<?xml version="1.0" encoding="UTF-8" standalone="no"?>
<!-- Created with Inkscape (http://www.inkscape.org/) -->

<svg
   xmlns:dc="http://purl.org/dc/elements/1.1/"
   xmlns:cc="http://creativecommons.org/ns#"
   xmlns:rdf="http://www.w3.org/1999/02/22-rdf-syntax-ns#"
   xmlns:svg="http://www.w3.org/2000/svg"
   xmlns="http://www.w3.org/2000/svg"
   xmlns:sodipodi="http://sodipodi.sourceforge.net/DTD/sodipodi-0.dtd"
   xmlns:inkscape="http://www.inkscape.org/namespaces/inkscape"
   width="3.3885036mm"
   height="5.354353mm"
   viewBox="0 0 3.3885037 5.3543529"
   version="1.1"
   id="svg5305"
   inkscape:version="0.92.4 (5da689c313, 2019-01-14)"
   sodipodi:docname="border-hold-L.svg">
  <defs
     id="defs5299" />
  <sodipodi:namedview
     id="base"
     pagecolor="#ffffff"
     bordercolor="#666666"
     borderopacity="1.0"
     inkscape:pageopacity="0.0"
     inkscape:pageshadow="2"
     inkscape:zoom="32"
     inkscape:cx="3.0238598"
     inkscape:cy="9.8607204"
     inkscape:document-units="mm"
     inkscape:current-layer="layer1"
     showgrid="false"
     inkscape:window-width="1920"
     inkscape:window-height="1001"
     inkscape:window-x="-9"
     inkscape:window-y="-9"
     inkscape:window-maximized="1" />
  <metadata
     id="metadata5302">
    <rdf:RDF>
      <cc:Work
         rdf:about="">
        <dc:format>image/svg+xml</dc:format>
        <dc:type
           rdf:resource="http://purl.org/dc/dcmitype/StillImage" />
        <dc:title />
      </cc:Work>
    </rdf:RDF>
  </metadata>
  <g
     inkscape:label="Layer 1"
     inkscape:groupmode="layer"
     id="layer1"
     transform="translate(-163.0946,-124.65579)">
    <g
       id="g818"
       transform="matrix(1.4,0,0,1.4,-65.915541,-50.933185)">
      <path
         inkscape:connector-curvature="0"
         id="path814"
         d="m 163.66181,129.17133 0.14781,-2.60512 -0.12009,-0.29562 v -0.59123 l 0.20323,-0.18476 0.0739,0.13857 h 0.49885 l 0.0739,-0.13857 h 0.24018 l 0.0924,-0.0554 v 1.30256 l 0.87762,-0.15705 -0.88685,2.65131 z"
         style="fill:#ffffff;fill-opacity:1;stroke:none;stroke-width:0.26458332px;stroke-linecap:butt;stroke-linejoin:miter;stroke-opacity:1" />
      <g
         transform="matrix(0.5912329,0,0,0.5912329,163.40315,129.30066)"
         style="fill:#000000;fill-opacity:1"
         id="use6834-2-4">
        <path
           id="path13737-5-5"
           d="m 4.3125,-0.09375 c 0.03125,0 0.0625,-0.03125 0.046875,-0.046875 L 3.96875,-4.59375 v -0.015625 c 0.046875,-0.0625 0.421875,-0.5 0.421875,-0.546875 V -6.109375 L 4.375,-6.140625 c -0.0625,-0.046875 -0.46875,-0.375 -0.5,-0.375 -0.078125,0 -0.046875,0.28125 -0.046875,0.34375 L 3.8125,-6.15625 3,-6.171875 2.96875,-6.1875 c 0.015625,-0.109375 0.015625,-0.234375 0.015625,-0.34375 -0.015625,0 -0.03125,0 -0.046875,0 H 2.484375 v 2.203125 c 0.375,0.046875 0.4375,0.53125 0.4375,0.8125 l 0.015625,1.40625 c 0,0.125 -0.390625,0.0625 -0.46875,0.0625 v 1.9375 z M 0.484375,-6.125 c 0.046875,-0.046875 0.25,-0.203125 0.34375,-0.3125 0.015625,0.078125 0,0.15625 0,0.234375 0,0.0625 0.0625,0.125 0.125,0.125 h 0.84375 c 0.1875,0 0.125,-0.28125 0.125,-0.359375 h 0.40625 v 1.96875 c -0.578125,-0.015625 -0.65625,0.5 -0.65625,0.90625 v 1.4375 c 0,0.03125 0.03125,0.171875 0.171875,0.171875 H 2.328125 V -0.21875 H 0.4375 l 0.375,-4.390625 C 0.828125,-4.796875 0.53125,-4.96875 0.484375,-5.125 Z m 0.46875,-0.09375 c 0,-0.0625 0.03125,-0.265625 -0.015625,-0.3125 -0.03125,-0.046875 -0.015625,0.078125 -0.03125,0.09375 0,0 -0.046875,0 -0.046875,-0.015625 C 0.875,-6.484375 0.90625,-6.5 0.90625,-6.5 c 0,0.015625 -0.015625,0.078125 0.015625,0.0625 -0.09375,-0.09375 -0.5625,0.1875 -0.5625,0.296875 V -5.125 c 0,0.15625 0.34375,0.421875 0.328125,0.5 l -0.390625,4.46875 c 0,0.03125 0.03125,0.0625 0.0625,0.0625 H 2.375 c 0.03125,0 0.078125,-0.03125 0.078125,-0.0625 v -1.859375 c 0,-0.03125 -0.046875,-0.0625 -0.078125,-0.0625 H 1.84375 c -0.03125,0 -0.046875,-0.015625 -0.046875,-0.046875 v -1.4375 c 0,-0.4375 0.09375,-0.8125 0.578125,-0.765625 0.03125,0 0.078125,-0.03125 0.078125,-0.0625 V -6.5 c 0,-0.03125 -0.046875,-0.0625 -0.078125,-0.0625 H 1.859375 c -0.109375,0 -0.0625,0.21875 -0.0625,0.34375 v 0.015625 h -0.84375 z m 0,0"
           style="stroke:none"
           inkscape:connector-curvature="0" />
      </g>
    </g>
  </g>
</svg>
