<?xml version="1.0" encoding="UTF-8" standalone="no"?>
<!-- Created with Inkscape (http://www.inkscape.org/) -->

<svg
   xmlns:dc="http://purl.org/dc/elements/1.1/"
   xmlns:cc="http://creativecommons.org/ns#"
   xmlns:rdf="http://www.w3.org/1999/02/22-rdf-syntax-ns#"
   xmlns:svg="http://www.w3.org/2000/svg"
   xmlns="http://www.w3.org/2000/svg"
   xmlns:sodipodi="http://sodipodi.sourceforge.net/DTD/sodipodi-0.dtd"
   xmlns:inkscape="http://www.inkscape.org/namespaces/inkscape"
   width="3.9538701mm"
   height="3.870728mm"
   viewBox="0 0 3.95387 3.870728"
   version="1.1"
   id="svg5305"
   inkscape:version="0.92.4 (5da689c313, 2019-01-14)"
   sodipodi:docname="coastalsea-2.svg">
  <defs
     id="defs5299" />
  <sodipodi:namedview
     id="base"
     pagecolor="#ffffff"
     bordercolor="#666666"
     borderopacity="1.0"
     inkscape:pageopacity="0.0"
     inkscape:pageshadow="2"
     inkscape:zoom="31.678384"
     inkscape:cx="-7.5235999"
     inkscape:cy="8.0722035"
     inkscape:document-units="mm"
     inkscape:current-layer="layer1"
     showgrid="false"
     inkscape:window-width="1920"
     inkscape:window-height="1001"
     inkscape:window-x="-9"
     inkscape:window-y="-9"
     inkscape:window-maximized="1" />
  <metadata
     id="metadata5302">
    <rdf:RDF>
      <cc:Work
         rdf:about="">
        <dc:format>image/svg+xml</dc:format>
        <dc:type
           rdf:resource="http://purl.org/dc/dcmitype/StillImage" />
        <dc:title></dc:title>
      </cc:Work>
    </rdf:RDF>
  </metadata>
  <g
     inkscape:label="Layer 1"
     inkscape:groupmode="layer"
     id="layer1"
     transform="translate(-162.79473,-123.21035)">
    <g
       style="opacity:1;vector-effect:none;fill:#000000;fill-opacity:1;stroke-width:1;stroke-linecap:butt;stroke-linejoin:miter;stroke-miterlimit:4;stroke-dasharray:none;stroke-dashoffset:0;stroke-opacity:1"
       id="g6728-1-2"
       transform="matrix(2.2345811,0,0,2.2345811,-270.82526,-913.22722)"
       inkscape:export-xdpi="1200.02"
       inkscape:export-ydpi="1200.02">
      <g
         id="use6726-1-6"
         transform="matrix(0.26458333,0,0,0.26458333,193.97951,465.51651)"
         style="vector-effect:none;fill:#000000;fill-opacity:1;stroke-width:3.77952766;stroke-linecap:butt;stroke-linejoin:miter;stroke-miterlimit:4;stroke-dasharray:none;stroke-dashoffset:0;stroke-opacity:1">
        <path
           inkscape:connector-curvature="0"
           style="vector-effect:none;fill:#000000;fill-opacity:1;stroke:none;stroke-width:3.77952766;stroke-linecap:butt;stroke-linejoin:miter;stroke-miterlimit:4;stroke-dasharray:none;stroke-dashoffset:0;stroke-opacity:1"
           d="m 3.625,0.125 c -1.4375,0 -3.09375,-1.21875 -3.171875,-2.375 0.265625,-0.28125 0.609375,-0.53125 1.03125,-0.53125 0.203125,0 0.40625,0.015625 0.609375,0.0625 -0.265625,0.078125 -0.84375,0.125 -0.84375,0.5 0,0.3125 0.28125,0.25 0.46875,0.296875 0,0 0.015625,0 0.03125,0 C 2.21875,-2.40625 2.828125,-2.75 3.515625,-2.75 c 0.171875,0 0.328125,0 0.5,0.03125 -0.265625,0.078125 -0.84375,0.125 -0.84375,0.5 0,0.296875 0.296875,0.28125 0.484375,0.328125 0.015625,0 0.03125,0 0.03125,0 C 4.171875,-2.375 4.78125,-2.75 5.46875,-2.75 c 0.109375,0 0.171875,0.015625 0.265625,0.0625 -0.25,0.0625 -0.6875,0.046875 -0.6875,0.421875 0,0.296875 1.359375,0.421875 1.625,0.453125 -0.5625,1.171875 -1.75,1.9375 -3.046875,1.9375 z M 2.0625,-2.53125 C 2.15625,-2.546875 2.25,-2.5625 2.296875,-2.578125 c 0.125,-0.046875 0.125,-0.203125 0,-0.25 C 2.078125,-2.90625 1.75,-2.984375 1.5,-2.984375 c -0.40625,0 -0.75,0.203125 -1.015625,0.4375 -0.046875,-0.171875 -0.09375,-0.359375 -0.09375,-0.53125 0,-1.78125 1.4375,-3.21875 3.21875,-3.21875 1.78125,0 3.21875,1.4375 3.21875,3.21875 0,0.3125 -0.109375,0.71875 -0.203125,1.046875 C 6.546875,-2.046875 5.265625,-2.171875 5.203125,-2.328125 5.25,-2.453125 5.8125,-2.515625 5.921875,-2.5625 6.046875,-2.59375 6.046875,-2.75 5.9375,-2.796875 5.78125,-2.859375 5.65625,-2.9375 5.484375,-2.9375 c -0.71875,0 -1.375,0.390625 -1.859375,0.859375 -0.09375,-0.015625 -0.265625,0 -0.265625,-0.125 0,-0.265625 0.6875,-0.328125 0.859375,-0.390625 0.125,-0.046875 0.125,-0.203125 0,-0.25 -0.203125,-0.0625 -0.5,-0.09375 -0.6875,-0.09375 -0.71875,0 -1.359375,0.359375 -1.84375,0.828125 -0.09375,-0.015625 -0.25,0.03125 -0.25,-0.109375 0,-0.203125 0.46875,-0.28125 0.625,-0.3125 z m -0.015625,-0.125 c -0.25,0.046875 -0.734375,0.125 -0.734375,0.4375 0,0.140625 0.0625,0.203125 0.15625,0.21875 0.046875,0.015625 0.25,0.03125 0.28125,0 0.46875,-0.46875 1.09375,-0.8125 1.78125,-0.8125 0.1875,0 0.46875,0.03125 0.65625,0.09375 -0.265625,0.09375 -0.953125,0.125 -0.953125,0.515625 0,0.125 0.078125,0.1875 0.171875,0.21875 0.046875,0.015625 0.25,0.046875 0.296875,0.015625 C 4.171875,-2.4375 4.796875,-2.8125 5.484375,-2.8125 5.625,-2.8125 5.75,-2.734375 5.875,-2.671875 5.8125,-2.65625 5.734375,-2.640625 5.65625,-2.625 c -0.125,0.03125 -0.671875,0.125 -0.5625,0.359375 0.109375,0.234375 1.34375,0.34375 1.578125,0.375 0.171875,0.015625 0.28125,-1.09375 0.28125,-1.1875 0,-1.859375 -1.5,-3.34375 -3.34375,-3.34375 -1.84375,0 -3.34375,1.484375 -3.34375,3.34375 0,0.21875 0.0625,0.4375 0.125,0.671875 0.015625,0.046875 0.0625,0.0625 0.109375,0.03125 0.25,-0.265625 0.609375,-0.484375 1,-0.484375 0.21875,0 0.546875,0.078125 0.765625,0.15625 -0.0625,0.015625 -0.140625,0.03125 -0.21875,0.046875 z m 0,0"
           id="path13761-4-2" />
      </g>
    </g>
  </g>
</svg>
