<?xml version="1.0" encoding="UTF-8" standalone="no"?>
<!-- Created with Inkscape (http://www.inkscape.org/) -->

<svg
   xmlns:dc="http://purl.org/dc/elements/1.1/"
   xmlns:cc="http://creativecommons.org/ns#"
   xmlns:rdf="http://www.w3.org/1999/02/22-rdf-syntax-ns#"
   xmlns:svg="http://www.w3.org/2000/svg"
   xmlns="http://www.w3.org/2000/svg"
   xmlns:sodipodi="http://sodipodi.sourceforge.net/DTD/sodipodi-0.dtd"
   xmlns:inkscape="http://www.inkscape.org/namespaces/inkscape"
   width="93.879753mm"
   height="10.058534mm"
   viewBox="0 0 93.879753 10.058534"
   version="1.1"
   id="svg881"
   inkscape:version="0.92.4 (5da689c313, 2019-01-14)"
   sodipodi:docname="counciloflorien.svg"
   inkscape:export-filename="C:\Users\crdavis\Desktop\MECCG\Council of Lorien Text.png"
   inkscape:export-xdpi="1200.02"
   inkscape:export-ydpi="1200.02">
  <defs
     id="defs875" />
  <sodipodi:namedview
     id="base"
     pagecolor="#ffffff"
     bordercolor="#666666"
     borderopacity="1.0"
     inkscape:pageopacity="0.0"
     inkscape:pageshadow="2"
     inkscape:zoom="2.8"
     inkscape:cx="154.25725"
     inkscape:cy="84.24724"
     inkscape:document-units="mm"
     inkscape:current-layer="layer1"
     showgrid="false"
     inkscape:window-width="1920"
     inkscape:window-height="1001"
     inkscape:window-x="-9"
     inkscape:window-y="-9"
     inkscape:window-maximized="1" />
  <metadata
     id="metadata878">
    <rdf:RDF>
      <cc:Work
         rdf:about="">
        <dc:format>image/svg+xml</dc:format>
        <dc:type
           rdf:resource="http://purl.org/dc/dcmitype/StillImage" />
        <dc:title></dc:title>
      </cc:Work>
    </rdf:RDF>
  </metadata>
  <g
     inkscape:label="Layer 1"
     inkscape:groupmode="layer"
     id="layer1"
     transform="translate(-30.923219,-95.423115)">
    <path
       style="opacity:1;vector-effect:none;fill:#000000;fill-opacity:1;stroke-width:0.26458332;stroke-linecap:butt;stroke-linejoin:miter;stroke-miterlimit:4;stroke-dasharray:none;stroke-dashoffset:0;stroke-opacity:1"
       d="m 90.99524,101.27058 c 0.0783,-2.381795 0.0871,-4.479365 0.01961,-4.661265 -0.0675,-0.1819 -0.410411,-0.33073 -0.762082,-0.33073 -0.351679,0 -0.639408,-0.11906 -0.639408,-0.26458 0,-0.14552 0.506011,-0.26621 1.124469,-0.2682 0.618471,-0.002 1.39237,-0.0754 1.719799,-0.16315 l 0.5953,-0.15954 v 4.661065 4.66107 l 1.653641,0.0419 c 0.90951,0.0231 1.891781,0.0246 2.18282,0.003 0.45439,-0.0331 0.468813,-0.003 0.102031,0.21572 -0.234921,0.13986 -0.770699,0.25809 -1.190619,0.26276 -0.419921,0.005 -1.477873,0.0123 -2.351001,0.017 -0.873122,0.005 -1.814621,0.0775 -2.092221,0.16182 -0.486191,0.1477 -0.499489,-0.006 -0.36239,-4.17722 z m -57.040323,3.63206 c -2.18484,-0.81263 -3.26838,-2.62046 -2.98825,-4.985705 0.21711,-1.83315 1.12113,-2.92762 3.01663,-3.65214 2.5118,-0.96007 6.4176,-0.79823 6.4176,0.26592 0,0.20235 -2.22865,1.86454 -2.49996,1.86454 -0.0905,0 -0.0513,-0.21144 0.087,-0.46986 0.38387,-0.71726 -0.10686,-1.31443 -1.23704,-1.50537 -2.19176,-0.3703 -3.59963,1.07378 -3.41962,3.50755 0.18487,2.499515 1.61309,3.782205 4.46128,4.006695 l 1.89688,0.14952 -1.02979,0.4886 c -1.38558,0.65741 -3.43778,0.80147 -4.70469,0.33025 z m 48.208243,-0.34186 c -0.0889,-0.20887 -0.0898,-1.1227 -0.0021,-2.49737 0.0325,-0.51184 0.2838,-0.81109 0.944211,-1.12447 1.16183,-0.55135 2.010489,-0.55197 2.010489,-0.001 0,0.31809 -0.16174,0.38497 -0.640429,0.26482 -0.979321,-0.24579 -1.47624,0.0657 -1.47624,0.92543 0,0.6984 0.0811,0.76544 0.926049,0.76544 0.50932,0 0.926039,0.13232 0.926039,0.29403 0,0.1916 -0.31619,0.23471 -0.90764,0.12376 -0.83947,-0.15749 -0.914,-0.11651 -0.99219,0.54546 -0.081,0.68541 -0.598919,1.14845 -0.7879,0.70437 z m -4.720601,-1.13845 c -0.945942,-0.94594 -0.53631,-2.16321 0.885899,-2.63258 1.621192,-0.53505 3.06301,0.57606 2.557812,1.97112 -0.42137,1.16359 -2.5355,1.56966 -3.443711,0.66146 z m 2.367971,-0.11629 c 0.46505,-0.56034 0.230708,-1.75187 -0.43034,-2.1882 -0.517461,-0.34155 -0.6316,-0.32445 -1.124482,0.16843 -0.68861,0.68861 -0.69388,1.19699 -0.01939,1.87148 0.625031,0.62503 1.138431,0.67339 1.574221,0.14829 z m -38.086713,0.18824 c -0.95618,-0.17106 -1.85209,-1.10682 -1.85209,-1.93447 0,-1.52625 2.14882,-2.950315 3.81922,-2.531065 1.77769,0.44617 2.35328,2.524815 1.03694,3.744765 -0.38505,0.35685 -0.9111,0.64882 -1.16899,0.64882 -0.25789,0 -0.62745,0.0428 -0.82126,0.0951 -0.1938,0.0523 -0.65002,0.0419 -1.01382,-0.0232 z m 2.16197,-0.77442 c 1.12078,-1.01428 0.19266,-3.266275 -1.34613,-3.266275 -0.95069,0 -1.45084,0.596855 -1.45084,1.731355 0,1.65869 1.65601,2.56748 2.79697,1.53492 z m 3.99786,0.56388 c -1.22128,-0.5135 -1.51899,-1.93639 -0.67475,-3.22485 0.45072,-0.687885 0.44862,-0.696535 -0.1323,-0.544625 -0.32466,0.0849 -0.59029,0.0464 -0.59029,-0.0855 0,-0.1319 0.55654,-0.23981 1.23675,-0.23981 h 1.23675 l -0.57529,0.61236 c -0.31641,0.336795 -0.57529,0.937525 -0.57529,1.334945 0,0.77235 1.03715,2.02144 1.67845,2.02144 0.72651,0 1.44077,-0.91648 1.57182,-2.01682 0.13953,-1.171495 0.0192,-1.521675 -0.60444,-1.759075 -0.23619,-0.0899 -0.11105,-0.15953 0.30909,-0.17197 0.38828,-0.0115 0.8943,-0.0931 1.12448,-0.18148 0.36138,-0.13868 0.41852,0.14608 0.41852,2.085805 0,2.02389 -0.0524,2.26011 -0.52917,2.38478 -0.35702,0.0934 -0.52917,0.008 -0.52917,-0.26203 0,-0.27775 -0.14183,-0.34187 -0.46302,-0.20932 -1.1745,0.48473 -2.15303,0.57108 -2.90214,0.2561 z m 19.57089,0.19987 c -0.55444,-0.0914 -0.59531,-0.23158 -0.59531,-2.04204 0,-1.31874 -0.10636,-1.980105 -0.33073,-2.056435 -0.1819,-0.0619 0.0562,-0.17024 0.52917,-0.2408 l 0.85989,-0.1283 v 2.048795 c 0,1.35902 0.10696,2.08444 0.3177,2.15469 0.49696,0.16565 -0.11729,0.37343 -0.78072,0.26409 z m 3.83646,0.009 -1.25677,-0.0991 v -2.49905 c 0,-2.044975 -0.0721,-2.499035 -0.39687,-2.499035 -0.21829,0 -0.39688,-0.11544 -0.39688,-0.25653 0,-0.14109 0.41672,-0.24086 0.92604,-0.22171 l 0.92604,0.0348 v 2.602955 2.60297 l 1.25677,0.004 c 0.90897,0.003 1.14694,0.075 0.8599,0.26053 -0.21828,0.14106 -0.45641,0.23684 -0.52917,0.21284 -0.0728,-0.024 -0.69783,-0.0882 -1.38906,-0.14274 z m 26.341474,-0.0726 c -0.97019,-0.39079 -1.514721,-1.46752 -1.235162,-2.44232 0.49558,-1.727955 3.661301,-2.507595 5.015671,-1.235225 0.67899,0.637875 0.83342,1.758175 0.36341,2.636405 -0.58432,1.0918 -2.699079,1.62313 -4.143919,1.04114 z m 2.828839,-0.52663 c 1.60363,-1.60362 -0.751799,-4.517325 -2.426561,-3.001695 -0.896599,0.811405 -0.495898,2.799545 0.657921,3.264435 0.886471,0.35717 1.194501,0.31141 1.76864,-0.26274 z m 3.12979,-1.19079 c 0.082,-1.870785 0.0514,-2.000075 -0.52917,-2.232795 -0.53039,-0.21261 -0.45958,-0.24937 0.50824,-0.2638 0.78566,-0.0117 1.12447,0.0928 1.12447,0.34691 0,0.2829 0.23113,0.24933 1.04053,-0.15113 0.82078,-0.40609 1.15604,-0.45299 1.5875,-0.22208 0.73988,0.39597 0.68922,1.183915 -0.11403,1.773395 l -0.661,0.48509 0.92558,1.00691 c 0.50908,0.5538 0.92559,1.05981 0.92559,1.12448 0,0.0647 -0.27349,0.11756 -0.60776,0.11756 -0.54755,0 -2.84678,-1.97507 -2.55005,-2.19052 0.0633,-0.046 0.44253,-0.2242 0.84271,-0.39606 0.43156,-0.18535 0.7276,-0.51858 0.7276,-0.81902 0,-0.804915 -0.75089,-0.894635 -1.4699,-0.17563 -0.53046,0.53046 -0.64677,0.91061 -0.64677,2.114 0,1.345 -0.0496,1.46728 -0.59531,1.46785 -0.57226,5.8e-4 -0.59194,-0.0763 -0.50823,-1.98516 z m 6.39521,-0.008 c 0,-1.819415 -0.0518,-2.013725 -0.59531,-2.232175 -0.49828,-0.20029 -0.41202,-0.24202 0.52917,-0.25606 l 1.12447,-0.0168 v 1.971215 c 0,1.59824 0.0876,2.02226 0.46303,2.24092 0.37445,0.2181 0.27324,0.27122 -0.52917,0.27773 l -0.99219,0.008 z m 3.97397,1.65306 c -1.29401,-0.65474 -1.59764,-2.32896 -0.61928,-3.414745 0.71727,-0.79604 3.77452,-1.14443 4.18693,-0.47713 0.069,0.11166 -0.0485,0.34739 -0.26111,0.52385 -0.30769,0.255355 -0.47295,0.234475 -0.80974,-0.10231 -0.78374,-0.78374 -2.20678,-0.39827 -2.58903,0.701325 -0.14325,0.41207 0.0419,0.46302 1.68281,0.46302 1.1627,0 1.84378,0.10733 1.84378,0.29056 0,0.1986 -0.49307,0.23334 -1.55794,0.10975 -1.06492,-0.1236 -1.61737,-0.0847 -1.74571,0.12298 -0.31163,0.50422 0.67858,1.32586 1.81732,1.50795 0.85693,0.13703 0.96668,0.21162 0.55068,0.37427 -0.78911,0.30852 -1.76943,0.26948 -2.49871,-0.0995 z m 5.165,-1.39001 c 0.15591,-1.45588 0.11085,-1.81207 -0.28453,-2.248955 -0.45732,-0.50533 -0.44763,-0.5191 0.36497,-0.5191 0.45912,0 0.83476,0.12604 0.83476,0.28009 0,0.742155 2.77561,3.424065 3.5437,3.424065 0.0957,0 0.12137,-0.56554 0.0571,-1.25677 -0.0643,-0.69122 -0.12682,-1.4564 -0.13903,-1.700385 -0.0122,-0.24399 -0.23056,-0.49807 -0.48522,-0.56462 -0.25466,-0.0666 0.043,-0.13481 0.66146,-0.15169 l 1.12448,-0.0307 v 2.101045 c 0,1.17814 -0.12168,2.17625 -0.27701,2.27225 -0.33855,0.20924 -2.41701,-0.74173 -3.61009,-1.65174 l -0.8754,-0.6677 v 1.22203 c 0,1.06123 -0.0724,1.22202 -0.55023,1.22202 -0.52003,0 -0.54006,-0.0949 -0.36497,-1.72985 z m -57.363803,1.00171 c -0.69609,-0.77242 -0.83367,-1.84234 -0.3348,-2.60372 0.73369,-1.119725 2.87972,-1.782765 3.82804,-1.182705 0.31481,0.19921 0.32059,0.31179 0.0337,0.65741 -0.43698,0.526525 -0.81049,0.535815 -0.81049,0.0202 0,-0.68813 -1.50883,-0.49832 -2.00021,0.251615 -0.86351,1.31788 0.1657,2.782 1.97508,2.80968 0.92247,0.0141 1.0881,0.0735 0.68659,0.24599 -0.97121,0.41734 -2.92654,0.30248 -3.37796,-0.19844 z M 98.34465,98.545605 c 0,-0.0629 0.366361,-0.37515 0.814131,-0.694 0.562549,-0.40057 0.898989,-0.49485 1.088739,-0.30511 0.18974,0.18974 0.024,0.4042 -0.536419,0.69399 -0.788961,0.40799 -1.366451,0.53694 -1.366451,0.30512 z"
       id="path845"
       inkscape:connector-curvature="0"
       sodipodi:nodetypes="csssccccccccccccccscsscccccscccccscsssccccccccccsccccccscccccsccccssccssccccscsccccccccsccccssscccccccccccsccccsccscssccccssccsssccscccscccsccccscssccccccccssscccccscccsscccsccssccccssccss" />
    <path
       style="opacity:1;vector-effect:none;fill:#000000;fill-opacity:1;stroke-width:0.26458332;stroke-linecap:butt;stroke-linejoin:miter;stroke-miterlimit:4;stroke-dasharray:none;stroke-dashoffset:0;stroke-opacity:1"
       d="m 54.299404,101.81588 c 0.15591,-1.45588 0.11085,-1.81207 -0.28453,-2.248956 -0.45732,-0.505329 -0.44763,-0.519099 0.36497,-0.519099 0.45912,0 0.83476,0.126041 0.83476,0.280089 0,0.742156 2.77561,3.424066 3.5437,3.424066 0.0957,0 0.12137,-0.56554 0.0571,-1.25677 -0.0643,-0.69122 -0.12682,-1.4564 -0.13903,-1.700389 -0.0122,-0.243987 -0.23056,-0.498067 -0.48522,-0.564615 -0.25466,-0.0666 0.043,-0.134811 0.66146,-0.15169 l 1.12448,-0.0307 v 2.101044 c 0,1.17814 -0.12168,2.17625 -0.27701,2.27225 -0.33855,0.20924 -2.41701,-0.74173 -3.61009,-1.65174 l -0.8754,-0.6677 v 1.22203 c 0,1.06123 -0.0724,1.22202 -0.55023,1.22202 -0.52003,0 -0.54006,-0.0949 -0.36497,-1.72985 z"
       id="path845-1"
       inkscape:connector-curvature="0"
       sodipodi:nodetypes="ccssscccccscccsscc" />
  </g>
</svg>
