<?xml version="1.0" encoding="UTF-8" standalone="no"?>
<!-- Created with Inkscape (http://www.inkscape.org/) -->

<svg
   xmlns:dc="http://purl.org/dc/elements/1.1/"
   xmlns:cc="http://creativecommons.org/ns#"
   xmlns:rdf="http://www.w3.org/1999/02/22-rdf-syntax-ns#"
   xmlns:svg="http://www.w3.org/2000/svg"
   xmlns="http://www.w3.org/2000/svg"
   xmlns:sodipodi="http://sodipodi.sourceforge.net/DTD/sodipodi-0.dtd"
   xmlns:inkscape="http://www.inkscape.org/namespaces/inkscape"
   width="5.4330821mm"
   height="5.3068285mm"
   viewBox="0 0 5.4330823 5.3068286"
   version="1.1"
   id="svg5305"
   inkscape:version="0.92.4 (5da689c313, 2019-01-14)"
   sodipodi:docname="dark-haven-L.svg">
  <defs
     id="defs5299" />
  <sodipodi:namedview
     id="base"
     pagecolor="#ffffff"
     bordercolor="#666666"
     borderopacity="1.0"
     inkscape:pageopacity="0.0"
     inkscape:pageshadow="2"
     inkscape:zoom="11.313709"
     inkscape:cx="16.665395"
     inkscape:cy="5.8678282"
     inkscape:document-units="mm"
     inkscape:current-layer="layer1"
     showgrid="false"
     inkscape:window-width="1047"
     inkscape:window-height="792"
     inkscape:window-x="593"
     inkscape:window-y="136"
     inkscape:window-maximized="0" />
  <metadata
     id="metadata5302">
    <rdf:RDF>
      <cc:Work
         rdf:about="">
        <dc:format>image/svg+xml</dc:format>
        <dc:type
           rdf:resource="http://purl.org/dc/dcmitype/StillImage" />
        <dc:title />
      </cc:Work>
    </rdf:RDF>
  </metadata>
  <g
     inkscape:label="Layer 1"
     inkscape:groupmode="layer"
     id="layer1"
     transform="translate(-163.93522,-125.76689)">
    <g
       id="g833"
       transform="matrix(1.4,0,0,1.4,-66.660706,-51.36812)">
      <path
         sodipodi:nodetypes="sssssssssscccccccccccccccccccccsccccsccccccccsccccc"
         id="path13741-0-6-7"
         d="m 167.47856,128.51887 c 0,-0.45266 -0.36952,-0.83142 -0.82218,-0.83142 -0.4619,0 -0.83142,0.37876 -0.83142,0.83142 0,0.45266 0.36952,0.82218 0.83142,0.82218 0.45266,0 0.82218,-0.36952 0.82218,-0.82218 z m -0.0739,0 c 0,0.40647 -0.33257,0.73904 -0.73904,0.73904 -0.40647,0 -0.73904,-0.33257 -0.73904,-0.73904 0,-0.44343 0.29561,-0.73904 0.73904,-0.73904 0.40647,0 0.73904,0.33257 0.73904,0.73904 z m -0.70209,0.82218 c -1.44571,-0.52201 -0.72933,-1.28255 -0.34798,-1.57596 0.27407,-0.0141 0.34775,-0.0314 0.59741,-0.0222 0.009,0.037 0.0462,0.0554 0.0831,0.0554 0.30427,0.19 0.29931,0.26901 0.39723,0.51733 7.6e-4,0.83179 -0.37554,0.93311 -0.7298,1.02542 z m -0.0462,0.0554 h 0.009 l 0.79447,0.89609 c 0.0369,0.0277 0.0739,0.009 0.0647,-0.037 l -0.18476,-1.18247 c -0.009,-0.009 0,-0.009 0.009,-0.009 l 1.19171,-0.0739 c 0.0462,-0.009 0.0554,-0.0554 0.0185,-0.0739 -0.12009,-0.0647 -0.33257,-0.17552 -0.5358,-0.28637 -0.15705,-0.0924 -0.32333,-0.17553 -0.47114,-0.27715 l -0.0185,-0.009 -0.0277,-0.0277 c 0.0277,-0.0554 0.0739,-0.10161 0.11085,-0.14781 0.18476,-0.27714 0.37876,-0.55428 0.582,-0.83142 0.0185,-0.0462 0,-0.0739 -0.0462,-0.0647 -0.1201,0.0554 -1.09933,0.45266 -1.1178,0.45266 h -0.009 l -0.34181,-1.15475 c -0.009,-0.0462 -0.0554,-0.0462 -0.0647,0 l -0.34181,1.15475 h -0.009 c -0.0185,0 -0.9977,-0.39724 -1.1178,-0.45266 -0.0369,-0.009 -0.0739,0.0185 -0.0369,0.0647 0.0369,0.0554 0.21248,0.30486 0.36952,0.53581 0.16629,0.22171 0.29562,0.41571 0.3141,0.44342 -0.0185,0.0277 -0.0462,0.0369 -0.0647,0.0462 -0.31409,0.20324 -0.6559,0.37876 -0.98847,0.55428 -0.037,0.0185 -0.0277,0.0647 0.0185,0.0739 l 1.1917,0.0739 c 0.009,0 0.0185,0 0.0185,0.009 v 0.009 l -0.20324,1.17323 c 0,0.0462 0.0369,0.0647 0.0739,0.037 0.22171,-0.25867 0.45266,-0.51733 0.68361,-0.76676 0.0369,-0.037 0.0739,-0.0924 0.12933,-0.12933 z"
         style="fill:#000000;fill-opacity:1;stroke:none;stroke-width:0.00810535;stroke-miterlimit:4;stroke-dasharray:none;stroke-opacity:1"
         inkscape:connector-curvature="0" />
      <path
         d="m 167.45283,128.5191 a 0.78821707,0.78821707 0 0 1 -0.78816,0.78822 0.78821707,0.78821707 0 0 1 -0.78828,-0.7881 0.78821707,0.78821707 0 0 1 0.78805,-0.78833 0.78821707,0.78821707 0 0 1 0.78839,0.78798"
         sodipodi:open="true"
         sodipodi:end="6.2828886"
         sodipodi:start="0"
         sodipodi:ry="0.78821707"
         sodipodi:rx="0.78821707"
         sodipodi:cy="128.5191"
         sodipodi:cx="166.66461"
         sodipodi:type="arc"
         id="path7554-8"
         style="opacity:0.93199978;fill:#000000;fill-opacity:1;fill-rule:evenodd;stroke:#000000;stroke-width:0.09240104;stroke-linecap:butt;stroke-linejoin:round;stroke-miterlimit:4;stroke-dasharray:none;stroke-dashoffset:0;stroke-opacity:1;paint-order:normal" />
      <path
         d="m 167.45283,128.5191 a 0.78821707,0.78821707 0 0 1 -0.78816,0.78822 0.78821707,0.78821707 0 0 1 -0.78828,-0.7881 0.78821707,0.78821707 0 0 1 0.78805,-0.78833 0.78821707,0.78821707 0 0 1 0.78839,0.78798"
         sodipodi:open="true"
         sodipodi:end="6.2828886"
         sodipodi:start="0"
         sodipodi:ry="0.78821707"
         sodipodi:rx="0.78821707"
         sodipodi:cy="128.5191"
         sodipodi:cx="166.66461"
         sodipodi:type="arc"
         id="path7554-5-8"
         style="opacity:1;fill:none;fill-opacity:1;fill-rule:evenodd;stroke:#ffffff;stroke-width:0.09240104;stroke-linecap:butt;stroke-linejoin:round;stroke-miterlimit:4;stroke-dasharray:none;stroke-dashoffset:0;stroke-opacity:1;paint-order:normal" />
      <g
         id="use6818-4-7"
         transform="matrix(0.59123291,0,0,0.59123288,164.57783,130.27409)"
         style="fill:#ffffff;fill-opacity:1">
        <path
           inkscape:connector-curvature="0"
           style="fill:#ffffff;fill-opacity:1;stroke:#000000;stroke-width:0.03382762;stroke-miterlimit:4;stroke-dasharray:none;stroke-opacity:1"
           d="m 4.90625,-2.96875 c 0,-0.765625 -0.625,-1.40625 -1.390625,-1.40625 -0.78125,0 -1.40625,0.640625 -1.40625,1.40625 0,0.765625 0.625,1.390625 1.40625,1.390625 0.765625,0 1.390625,-0.625 1.390625,-1.390625 z m -0.125,0 c 0,0.6875 -0.5625,1.25 -1.25,1.25 -0.6875,0 -1.25,-0.5625 -1.25,-1.25 0,-0.75 0.5,-1.25 1.25,-1.25 0.6875,0 1.25,0.5625 1.25,1.25 z m 0.171875,-0.1875 c 0.25,0.1875 0.53125,0.328125 0.8125,0.484375 0.25,0.140625 0.5,0.28125 0.703125,0.375 l -1.796875,0.125 C 4.59375,-2.171875 4.515625,-2.09375 4.53125,-2 L 4.828125,-0.21875 3.625,-1.5625 3.609375,-1.578125 H 3.59375 V -1.59375 L 3.546875,-1.609375 h -0.03125 c -0.078125,0 -0.15625,0.09375 -0.203125,0.125 -0.390625,0.40625 -0.75,0.84375 -1.125,1.25 L 2.484375,-2 v -0.015625 c 0,-0.078125 -0.0625,-0.15625 -0.140625,-0.15625 l -1.796875,-0.125 c 0.4375,-0.234375 0.875,-0.46875 1.3125,-0.734375 C 1.9375,-3.0625 2.1875,-3.1875 2.1875,-3.296875 2.1875,-3.390625 1.28125,-4.65625 1.125,-4.875 c 0.21875,0.09375 1.671875,0.6875 1.734375,0.6875 0.0625,0 0.125,-0.03125 0.140625,-0.09375 l 0.515625,-1.734375 0.5,1.734375 c 0.015625,0.0625 0.078125,0.09375 0.140625,0.09375 0.0625,0 1.5,-0.59375 1.734375,-0.6875 -0.0625,0.09375 -1.0625,1.453125 -1.0625,1.5625 0,0.0625 0.046875,0.109375 0.09375,0.140625 z m -1.4375,1.671875 H 3.53125 L 4.875,0.03125 C 4.9375,0.078125 5,0.046875 4.984375,-0.03125 l -0.3125,-2 c -0.015625,-0.015625 0,-0.015625 0.015625,-0.015625 l 2.015625,-0.125 c 0.078125,-0.015625 0.09375,-0.09375 0.03125,-0.125 C 6.53125,-2.40625 6.171875,-2.59375 5.828125,-2.78125 5.5625,-2.9375 5.28125,-3.078125 5.03125,-3.25 L 5,-3.265625 C 4.984375,-3.28125 4.96875,-3.296875 4.953125,-3.3125 5,-3.40625 5.078125,-3.484375 5.140625,-3.5625 5.453125,-4.03125 5.78125,-4.5 6.125,-4.96875 c 0.03125,-0.078125 0,-0.125 -0.078125,-0.109375 C 5.84375,-4.984375 4.1875,-4.3125 4.15625,-4.3125 c -0.015625,0 -0.015625,0 -0.015625,0 L 3.5625,-6.265625 c -0.015625,-0.078125 -0.09375,-0.078125 -0.109375,0 L 2.875,-4.3125 c 0,0 -0.015625,0 -0.015625,0 -0.03125,0 -1.6875,-0.671875 -1.890625,-0.765625 -0.0625,-0.015625 -0.125,0.03125 -0.0625,0.109375 0.0625,0.09375 0.359375,0.515625 0.625,0.90625 0.28125,0.375 0.5,0.703125 0.53125,0.75 -0.03125,0.046875 -0.078125,0.0625 -0.109375,0.078125 -0.53125,0.34375 -1.109375,0.640625 -1.671875,0.9375 -0.0625,0.03125 -0.046875,0.109375 0.03125,0.125 l 2.015625,0.125 c 0.015625,0 0.03125,0 0.03125,0.015625 v 0.015625 l -0.34375,1.984375 c 0,0.078125 0.0625,0.109375 0.125,0.0625 0.375,-0.4375 0.765625,-0.875 1.15625,-1.296875 0.0625,-0.0625 0.125,-0.15625 0.21875,-0.21875 z m 0,0"
           id="path13741-0-65" />
      </g>
      <path
         sodipodi:nodetypes="ssssssssss"
         id="path13741-0-65-5-6"
         d="m 167.46517,128.53938 c 0,-0.44707 -0.36494,-0.82114 -0.81199,-0.82114 -0.45621,0 -0.82115,0.37407 -0.82115,0.82114 0,0.44706 0.36494,0.812 0.82115,0.812 0.44705,0 0.81199,-0.36494 0.81199,-0.812 z m -0.073,0 c 0,0.40145 -0.32845,0.72988 -0.72989,0.72988 -0.40145,0 -0.72989,-0.32843 -0.72989,-0.72988 0,-0.43794 0.29196,-0.72991 0.72989,-0.72991 0.40144,0 0.72989,0.32846 0.72989,0.72991 z"
         style="fill:#000000;fill-opacity:1;stroke:none;stroke-width:0.0197525;stroke-miterlimit:4;stroke-dasharray:none;stroke-opacity:1"
         inkscape:connector-curvature="0" />
      <path
         sodipodi:nodetypes="ssssssssss"
         id="path13741-0-65-5"
         d="m 167.4996,128.53217 c 0,-0.46627 -0.38062,-0.85641 -0.84688,-0.85641 -0.4758,0 -0.85642,0.39014 -0.85642,0.85641 0,0.46627 0.38062,0.84689 0.85642,0.84689 0.46626,0 0.84688,-0.38062 0.84688,-0.84689 z m -0.0761,0 c 0,0.4187 -0.34256,0.76124 -0.76125,0.76124 -0.41869,0 -0.76124,-0.34254 -0.76124,-0.76124 0,-0.45675 0.3045,-0.76126 0.76124,-0.76126 0.41869,0 0.76125,0.34257 0.76125,0.76126 z"
         style="fill:#ffffff;fill-opacity:1;stroke:none;stroke-width:0.02060106;stroke-miterlimit:4;stroke-dasharray:none;stroke-opacity:1"
         inkscape:connector-curvature="0" />
    </g>
  </g>
</svg>
