<?xml version="1.0" encoding="UTF-8" standalone="no"?>
<!-- Created with Inkscape (http://www.inkscape.org/) -->

<svg
   xmlns:dc="http://purl.org/dc/elements/1.1/"
   xmlns:cc="http://creativecommons.org/ns#"
   xmlns:rdf="http://www.w3.org/1999/02/22-rdf-syntax-ns#"
   xmlns:svg="http://www.w3.org/2000/svg"
   xmlns="http://www.w3.org/2000/svg"
   xmlns:sodipodi="http://sodipodi.sourceforge.net/DTD/sodipodi-0.dtd"
   xmlns:inkscape="http://www.inkscape.org/namespaces/inkscape"
   width="3.9723461mm"
   height="3.9723461mm"
   viewBox="0 0 3.9723462 3.9723461"
   version="1.1"
   id="svg5305"
   inkscape:version="0.92.4 (5da689c313, 2019-01-14)"
   sodipodi:docname="dark-domain-2.svg">
  <defs
     id="defs5299" />
  <sodipodi:namedview
     id="base"
     pagecolor="#ffffff"
     bordercolor="#666666"
     borderopacity="1.0"
     inkscape:pageopacity="0.0"
     inkscape:pageshadow="2"
     inkscape:zoom="32"
     inkscape:cx="6.7528908"
     inkscape:cy="4.6048586"
     inkscape:document-units="mm"
     inkscape:current-layer="layer1"
     showgrid="false"
     inkscape:window-width="1920"
     inkscape:window-height="1001"
     inkscape:window-x="-9"
     inkscape:window-y="-9"
     inkscape:window-maximized="1" />
  <metadata
     id="metadata5302">
    <rdf:RDF>
      <cc:Work
         rdf:about="">
        <dc:format>image/svg+xml</dc:format>
        <dc:type
           rdf:resource="http://purl.org/dc/dcmitype/StillImage" />
        <dc:title />
      </cc:Work>
    </rdf:RDF>
  </metadata>
  <g
     inkscape:label="Layer 1"
     inkscape:groupmode="layer"
     id="layer1"
     transform="translate(-164.78192,-125.49099)">
    <circle
       style="opacity:1;vector-effect:none;fill:#ffffff;fill-opacity:1;fill-rule:evenodd;stroke:none;stroke-width:0.19401404;stroke-linecap:butt;stroke-linejoin:miter;stroke-miterlimit:4;stroke-dasharray:none;stroke-dashoffset:0;stroke-opacity:1;paint-order:markers stroke fill"
       id="path823"
       cx="166.77249"
       cy="127.48517"
       r="1.949235" />
    <g
       style="fill:#000000;fill-opacity:1"
       id="g6760-6-1"
       transform="matrix(2.2345811,0,0,2.2345811,-355.97195,-910.92811)"
       inkscape:export-xdpi="1200.02"
       inkscape:export-ydpi="1200.02">
      <g
         id="use6758-1-9"
         transform="matrix(0.26458333,0,0,0.26458333,232.96049,465.51651)">
        <path
           inkscape:connector-curvature="0"
           style="stroke:none"
           d="M 5.390625,-5.546875 5,-5.859375 V -5.5625 H 4.1875 V -5.875 H 3.296875 v 0.3125 h -0.84375 v -0.296875 l -0.40625,0.28125 V -4.6875 L 2.34375,-4.28125 2,-0.4375 H 5.375 L 5.03125,-4.28125 5.390625,-4.734375 Z m -1.71875,5.6875 c -1.78125,0 -3.234375,-1.453125 -3.234375,-3.234375 0,-1.78125 1.453125,-3.234375 3.234375,-3.234375 1.78125,0 3.234375,1.453125 3.234375,3.234375 0,1.78125 -1.453125,3.234375 -3.234375,3.234375 z m 0,0.125 c 1.859375,0 3.359375,-1.5 3.359375,-3.359375 0,-1.859375 -1.5,-3.359375 -3.359375,-3.359375 -1.859375,0 -3.359375,1.5 -3.359375,3.359375 0,1.859375 1.5,3.359375 3.359375,3.359375 z m 0,0"
           id="path13773-1-0" />
      </g>
    </g>
  </g>
</svg>
