<?xml version="1.0" encoding="UTF-8" standalone="no"?>
<!-- Created with Inkscape (http://www.inkscape.org/) -->

<svg
   xmlns:dc="http://purl.org/dc/elements/1.1/"
   xmlns:cc="http://creativecommons.org/ns#"
   xmlns:rdf="http://www.w3.org/1999/02/22-rdf-syntax-ns#"
   xmlns:svg="http://www.w3.org/2000/svg"
   xmlns="http://www.w3.org/2000/svg"
   xmlns:sodipodi="http://sodipodi.sourceforge.net/DTD/sodipodi-0.dtd"
   xmlns:inkscape="http://www.inkscape.org/namespaces/inkscape"
   width="5.4052629mm"
   height="5.2788167mm"
   viewBox="0 0 5.4052633 5.2788167"
   version="1.1"
   id="svg5305"
   inkscape:version="0.92.4 (5da689c313, 2019-01-14)"
   sodipodi:docname="free-haven-L.svg">
  <defs
     id="defs5299" />
  <sodipodi:namedview
     id="base"
     pagecolor="#ffffff"
     bordercolor="#666666"
     borderopacity="1.0"
     inkscape:pageopacity="0.0"
     inkscape:pageshadow="2"
     inkscape:zoom="15.839192"
     inkscape:cx="6.5200884"
     inkscape:cy="7.8114443"
     inkscape:document-units="mm"
     inkscape:current-layer="layer1"
     showgrid="false"
     inkscape:window-width="1180"
     inkscape:window-height="702"
     inkscape:window-x="702"
     inkscape:window-y="25"
     inkscape:window-maximized="0" />
  <metadata
     id="metadata5302">
    <rdf:RDF>
      <cc:Work
         rdf:about="">
        <dc:format>image/svg+xml</dc:format>
        <dc:type
           rdf:resource="http://purl.org/dc/dcmitype/StillImage" />
        <dc:title />
      </cc:Work>
    </rdf:RDF>
  </metadata>
  <g
     inkscape:label="Layer 1"
     inkscape:groupmode="layer"
     id="layer1"
     transform="translate(-163.04882,-125.13471)">
    <g
       id="g823"
       transform="matrix(1.4,0,0,1.4,-66.300582,-51.109646)">
      <path
         inkscape:connector-curvature="0"
         id="path826"
         d="m 164.34266,126.74565 1.0242,0.40818 0.0709,-0.0561 0.31834,-1.02646 0.36952,1.00695 1.03466,-0.33257 -0.55428,0.9238 0.0277,0.0277 0.86837,0.57276 -1.06237,0.0739 -0.0555,0.0739 0.14792,1.08089 -0.75752,-0.82219 -0.80371,0.81295 0.15536,-1.10708 -1.12535,-0.11234 0.9467,-0.57422 z"
         style="fill:#ffffff;fill-opacity:1;stroke:none;stroke-width:0.26458332px;stroke-linecap:butt;stroke-linejoin:miter;stroke-opacity:1" />
      <g
         inkscape:export-ydpi="1200.02"
         inkscape:export-xdpi="1200.02"
         transform="matrix(2.2345811,0,0,2.234581,112.39165,-930.72102)"
         id="g6820-9-8"
         style="fill:#000000;fill-opacity:1">
        <g
           transform="matrix(0.26458333,0,0,0.26458333,22.951,474.51801)"
           id="use6818-4-7">
          <path
             id="path13741-0-65"
             d="m 4.90625,-2.96875 c 0,-0.765625 -0.625,-1.40625 -1.390625,-1.40625 -0.78125,0 -1.40625,0.640625 -1.40625,1.40625 0,0.765625 0.625,1.390625 1.40625,1.390625 0.765625,0 1.390625,-0.625 1.390625,-1.390625 z m -0.125,0 c 0,0.6875 -0.5625,1.25 -1.25,1.25 -0.6875,0 -1.25,-0.5625 -1.25,-1.25 0,-0.75 0.5,-1.25 1.25,-1.25 0.6875,0 1.25,0.5625 1.25,1.25 z m 0.171875,-0.1875 c 0.25,0.1875 0.53125,0.328125 0.8125,0.484375 0.25,0.140625 0.5,0.28125 0.703125,0.375 l -1.796875,0.125 C 4.59375,-2.171875 4.515625,-2.09375 4.53125,-2 L 4.828125,-0.21875 3.625,-1.5625 3.609375,-1.578125 H 3.59375 V -1.59375 L 3.546875,-1.609375 h -0.03125 c -0.078125,0 -0.15625,0.09375 -0.203125,0.125 -0.390625,0.40625 -0.75,0.84375 -1.125,1.25 L 2.484375,-2 v -0.015625 c 0,-0.078125 -0.0625,-0.15625 -0.140625,-0.15625 l -1.796875,-0.125 c 0.4375,-0.234375 0.875,-0.46875 1.3125,-0.734375 C 1.9375,-3.0625 2.1875,-3.1875 2.1875,-3.296875 2.1875,-3.390625 1.28125,-4.65625 1.125,-4.875 c 0.21875,0.09375 1.671875,0.6875 1.734375,0.6875 0.0625,0 0.125,-0.03125 0.140625,-0.09375 l 0.515625,-1.734375 0.5,1.734375 c 0.015625,0.0625 0.078125,0.09375 0.140625,0.09375 0.0625,0 1.5,-0.59375 1.734375,-0.6875 -0.0625,0.09375 -1.0625,1.453125 -1.0625,1.5625 0,0.0625 0.046875,0.109375 0.09375,0.140625 z m -1.4375,1.671875 H 3.53125 L 4.875,0.03125 C 4.9375,0.078125 5,0.046875 4.984375,-0.03125 l -0.3125,-2 c -0.015625,-0.015625 0,-0.015625 0.015625,-0.015625 l 2.015625,-0.125 c 0.078125,-0.015625 0.09375,-0.09375 0.03125,-0.125 C 6.53125,-2.40625 6.171875,-2.59375 5.828125,-2.78125 5.5625,-2.9375 5.28125,-3.078125 5.03125,-3.25 L 5,-3.265625 C 4.984375,-3.28125 4.96875,-3.296875 4.953125,-3.3125 5,-3.40625 5.078125,-3.484375 5.140625,-3.5625 5.453125,-4.03125 5.78125,-4.5 6.125,-4.96875 c 0.03125,-0.078125 0,-0.125 -0.078125,-0.109375 C 5.84375,-4.984375 4.1875,-4.3125 4.15625,-4.3125 c -0.015625,0 -0.015625,0 -0.015625,0 L 3.5625,-6.265625 c -0.015625,-0.078125 -0.09375,-0.078125 -0.109375,0 L 2.875,-4.3125 c 0,0 -0.015625,0 -0.015625,0 -0.03125,0 -1.6875,-0.671875 -1.890625,-0.765625 -0.0625,-0.015625 -0.125,0.03125 -0.0625,0.109375 0.0625,0.09375 0.359375,0.515625 0.625,0.90625 0.28125,0.375 0.5,0.703125 0.53125,0.75 -0.03125,0.046875 -0.078125,0.0625 -0.109375,0.078125 -0.53125,0.34375 -1.109375,0.640625 -1.671875,0.9375 -0.0625,0.03125 -0.046875,0.109375 0.03125,0.125 l 2.015625,0.125 c 0.015625,0 0.03125,0 0.03125,0.015625 v 0.015625 l -0.34375,1.984375 c 0,0.078125 0.0625,0.109375 0.125,0.0625 0.375,-0.4375 0.765625,-0.875 1.15625,-1.296875 0.0625,-0.0625 0.125,-0.15625 0.21875,-0.21875 z m 0,0"
             style="stroke:none"
             inkscape:connector-curvature="0" />
        </g>
      </g>
    </g>
  </g>
</svg>
