<?xml version="1.0" encoding="UTF-8" standalone="no"?>
<!-- Created with Inkscape (http://www.inkscape.org/) -->

<svg
   xmlns:dc="http://purl.org/dc/elements/1.1/"
   xmlns:cc="http://creativecommons.org/ns#"
   xmlns:rdf="http://www.w3.org/1999/02/22-rdf-syntax-ns#"
   xmlns:svg="http://www.w3.org/2000/svg"
   xmlns="http://www.w3.org/2000/svg"
   xmlns:sodipodi="http://sodipodi.sourceforge.net/DTD/sodipodi-0.dtd"
   xmlns:inkscape="http://www.inkscape.org/namespaces/inkscape"
   width="1.8618151mm"
   height="2.9490583mm"
   viewBox="0 0 1.8618152 2.9490583"
   version="1.1"
   id="svg5305"
   inkscape:version="0.92.4 (5da689c313, 2019-01-14)"
   sodipodi:docname="free-hold.svg">
  <defs
     id="defs5299" />
  <sodipodi:namedview
     id="base"
     pagecolor="#ffffff"
     bordercolor="#666666"
     borderopacity="1.0"
     inkscape:pageopacity="0.0"
     inkscape:pageshadow="2"
     inkscape:zoom="31.678384"
     inkscape:cx="-10.262214"
     inkscape:cy="14.453825"
     inkscape:document-units="mm"
     inkscape:current-layer="layer1"
     showgrid="false"
     inkscape:window-width="1920"
     inkscape:window-height="1001"
     inkscape:window-x="-9"
     inkscape:window-y="-9"
     inkscape:window-maximized="1" />
  <metadata
     id="metadata5302">
    <rdf:RDF>
      <cc:Work
         rdf:about="">
        <dc:format>image/svg+xml</dc:format>
        <dc:type
           rdf:resource="http://purl.org/dc/dcmitype/StillImage" />
        <dc:title></dc:title>
      </cc:Work>
    </rdf:RDF>
  </metadata>
  <g
     inkscape:label="Layer 1"
     inkscape:groupmode="layer"
     id="layer1"
     transform="translate(-164.98931,-126.82274)">
    <g
       style="fill:#000000;fill-opacity:1"
       id="g6828-9-2"
       transform="matrix(1.7189085,0,0,1.7189085,109.91666,-685.88835)">
      <g
         id="use6826-7-5"
         transform="matrix(0.26458333,0,0,0.26458333,31.952499,474.51801)">
        <path
           inkscape:connector-curvature="0"
           style="stroke:none"
           d="m 2.9375,-2.015625 v -1.40625 C 2.9375,-3.828125 2.84375,-4.25 2.359375,-4.25 c -0.5,0 -0.546875,0.4375 -0.546875,0.828125 v 1.40625 c 0,0.03125 0.03125,0.0625 0.0625,0.0625 h 1 c 0.046875,0 0.0625,-0.03125 0.0625,-0.0625 z m 1.359375,-3.0625 C 4.1875,-4.90625 4.03125,-4.75 3.90625,-4.59375 L 3.890625,-4.578125 V -4.5625 H 3.875 V -4.5 l 0.390625,4.390625 H 0.46875 L 0.84375,-4.5 c 0,-0.03125 0,-0.0625 -0.03125,-0.09375 C 0.71875,-4.75 0.625,-4.890625 0.515625,-5.03125 c 0,0 0,-1 0,-0.984375 C 0.625,-6.09375 0.75,-6.1875 0.875,-6.265625 0.859375,-6.203125 0.859375,-6.125 0.859375,-6.09375 c 0,0.0625 0.0625,0.125 0.125,0.125 H 1.84375 c 0.03125,0 0.046875,-0.015625 0.078125,-0.046875 0.0625,-0.046875 0.03125,-0.21875 0.03125,-0.296875 V -6.328125 L 2.90625,-6.34375 v 0.03125 c 0,0.09375 -0.0625,0.34375 0.109375,0.34375 h 0.8125 c 0.0625,0 0.125,-0.0625 0.125,-0.125 C 3.953125,-6.125 3.9375,-6.203125 3.9375,-6.265625 4.078125,-6.1875 4.171875,-6.078125 4.296875,-6 Z M 0.71875,-4.5 0.328125,-0.046875 c 0,0.03125 0.03125,0.0625 0.0625,0.0625 h 3.9375 c 0.046875,0 0.078125,-0.03125 0.0625,-0.0625 L 4,-4.5 V -4.515625 C 4.078125,-4.59375 4.421875,-4.984375 4.421875,-5.0625 v -0.953125 c 0,0 0,-0.015625 0,-0.015625 C 4.375,-6.109375 4.234375,-6.203125 4.171875,-6.25 4.03125,-6.375 3.8125,-6.59375 3.8125,-6.265625 c 0,0.0625 0.015625,0.125 0.015625,0.15625 V -6.09375 L 3.03125,-6.109375 H 3.015625 c 0,-0.0625 0.015625,-0.140625 0.015625,-0.203125 0,-0.0625 0,-0.15625 -0.09375,-0.15625 l -1.03125,0.015625 c -0.125,0 -0.0625,0.28125 -0.0625,0.34375 H 1 C 1,-6.140625 1,-6.21875 1,-6.28125 1,-6.328125 1,-6.5 0.890625,-6.4375 c -0.15625,0.09375 -0.3125,0.21875 -0.46875,0.328125 -0.015625,0.015625 -0.03125,0.0625 -0.03125,0.078125 V -5 l 0.015625,0.015625 v 0.015625 c 0.109375,0.15625 0.21875,0.296875 0.3125,0.453125 z m 0,0"
           id="path13765-2-5" />
      </g>
    </g>
  </g>
</svg>
