<?xml version="1.0" encoding="UTF-8" standalone="no"?>
<!-- Created with Inkscape (http://www.inkscape.org/) -->

<svg
   xmlns:dc="http://purl.org/dc/elements/1.1/"
   xmlns:cc="http://creativecommons.org/ns#"
   xmlns:rdf="http://www.w3.org/1999/02/22-rdf-syntax-ns#"
   xmlns:svg="http://www.w3.org/2000/svg"
   xmlns="http://www.w3.org/2000/svg"
   xmlns:sodipodi="http://sodipodi.sourceforge.net/DTD/sodipodi-0.dtd"
   xmlns:inkscape="http://www.inkscape.org/namespaces/inkscape"
   width="3.9815841mm"
   height="3.9723461mm"
   viewBox="0 0 3.9815841 3.9723461"
   version="1.1"
   id="svg5305"
   inkscape:version="0.92.4 (5da689c313, 2019-01-14)"
   sodipodi:docname="free-domain-2.svg">
  <defs
     id="defs5299" />
  <sodipodi:namedview
     id="base"
     pagecolor="#ffffff"
     bordercolor="#666666"
     borderopacity="1.0"
     inkscape:pageopacity="0.0"
     inkscape:pageshadow="2"
     inkscape:zoom="31.678384"
     inkscape:cx="3.5165539"
     inkscape:cy="7.609092"
     inkscape:document-units="mm"
     inkscape:current-layer="layer1"
     showgrid="false"
     inkscape:window-width="1920"
     inkscape:window-height="1001"
     inkscape:window-x="-9"
     inkscape:window-y="-9"
     inkscape:window-maximized="1" />
  <metadata
     id="metadata5302">
    <rdf:RDF>
      <cc:Work
         rdf:about="">
        <dc:format>image/svg+xml</dc:format>
        <dc:type
           rdf:resource="http://purl.org/dc/dcmitype/StillImage" />
        <dc:title />
      </cc:Work>
    </rdf:RDF>
  </metadata>
  <g
     inkscape:label="Layer 1"
     inkscape:groupmode="layer"
     id="layer1"
     transform="translate(-162.7886,-123.21171)">
    <circle
       style="opacity:1;vector-effect:none;fill:#ffffff;fill-opacity:1;fill-rule:evenodd;stroke:none;stroke-width:0.1416762;stroke-linecap:butt;stroke-linejoin:miter;stroke-miterlimit:4;stroke-dasharray:none;stroke-dashoffset:0;stroke-opacity:1;paint-order:markers stroke fill"
       id="path815"
       cx="164.77641"
       cy="125.19623"
       r="1.9544083" />
    <g
       style="fill:#000000;fill-opacity:1"
       id="g6736-3-6"
       transform="matrix(2.2345811,0,0,2.2345811,-292.08455,-913.15196)">
      <g
         id="use6734-8-1"
         transform="matrix(0.26458333,0,0,0.26458333,203.474,465.51651)">
        <path
           inkscape:connector-curvature="0"
           style="stroke:none"
           d="m 4.234375,-3.4375 c 0,-0.328125 -0.0625,-0.6875 -0.46875,-0.6875 -0.40625,0 -0.421875,0.375 -0.421875,0.6875 v 1.265625 h 0.890625 z m -0.53125,3.484375 c -1.796875,0 -3.25,-1.4375 -3.25,-3.21875 0,-1.796875 1.453125,-3.25 3.25,-3.25 1.78125,0 3.21875,1.453125 3.21875,3.25 0,1.78125 -1.4375,3.21875 -3.21875,3.21875 z m 0,0.125 c 1.84375,0 3.359375,-1.5 3.359375,-3.34375 0,-1.859375 -1.515625,-3.375 -3.359375,-3.375 -1.859375,0 -3.375,1.515625 -3.375,3.375 0,1.84375 1.515625,3.34375 3.375,3.34375 z m 1.5,-5.859375 0.15625,0.109375 v 0.71875 L 5.015625,-4.453125 5,-4.421875 4.984375,-4.40625 v 0.046875 l 0.34375,3.71875 H 2.21875 l 0.328125,-3.71875 c 0,-0.03125 -0.015625,-0.046875 -0.03125,-0.078125 C 2.4375,-4.5625 2.34375,-4.6875 2.25,-4.8125 v -0.796875 l 0.15625,-0.09375 v 0.0625 c 0,0.0625 0.0625,0.109375 0.125,0.109375 H 3.375 c 0.171875,0 0.125,-0.234375 0.125,-0.3125 h 0.640625 c 0,0.09375 -0.03125,0.3125 0.125,0.3125 h 0.8125 c 0.0625,0 0.125,-0.0625 0.125,-0.125 z M 2.40625,-4.359375 2.078125,-0.59375 c 0,0.046875 0.03125,0.078125 0.078125,0.078125 h 3.234375 c 0.03125,0 0.0625,-0.03125 0.0625,-0.078125 L 5.109375,-4.359375 V -4.375 L 5.46875,-4.796875 c 0,0 0.015625,-0.046875 0.015625,-0.046875 v -0.765625 c 0,-0.078125 -0.40625,-0.421875 -0.40625,-0.21875 V -5.65625 H 4.28125 C 4.234375,-5.734375 4.328125,-5.96875 4.203125,-5.96875 H 3.4375 c -0.109375,0 -0.0625,0.1875 -0.0625,0.3125 H 2.53125 v -0.171875 c 0,-0.1875 -0.234375,0.03125 -0.375,0.140625 C 2.140625,-5.671875 2.125,-5.640625 2.125,-5.640625 v 0.84375 c 0,0.03125 0.25,0.359375 0.28125,0.421875 z m 0,0"
           id="path13729-9-5" />
      </g>
    </g>
  </g>
</svg>
