<?xml version="1.0" encoding="UTF-8" standalone="no"?>
<!-- Created with Inkscape (http://www.inkscape.org/) -->

<svg
   xmlns:dc="http://purl.org/dc/elements/1.1/"
   xmlns:cc="http://creativecommons.org/ns#"
   xmlns:rdf="http://www.w3.org/1999/02/22-rdf-syntax-ns#"
   xmlns:svg="http://www.w3.org/2000/svg"
   xmlns="http://www.w3.org/2000/svg"
   xmlns:sodipodi="http://sodipodi.sourceforge.net/DTD/sodipodi-0.dtd"
   xmlns:inkscape="http://www.inkscape.org/namespaces/inkscape"
   height="1em"
   viewBox="0 0 24.713282 36.943649"
   version="1.1"
   id="svg1009"
   inkscape:version="0.92.4 (5da689c313, 2019-01-14)"
   sodipodi:docname="gi.svg">
  <defs
     id="defs1003" />
  <sodipodi:namedview
     id="base"
     pagecolor="#ffffff"
     bordercolor="#666666"
     borderopacity="1.0"
     inkscape:pageopacity="0.0"
     inkscape:pageshadow="2"
     inkscape:zoom="6"
     inkscape:cx="53.140839"
     inkscape:cy="39.353987"
     inkscape:document-units="mm"
     inkscape:current-layer="layer1"
     showgrid="false"
     inkscape:window-width="1014"
     inkscape:window-height="731"
     inkscape:window-x="623"
     inkscape:window-y="114"
     inkscape:window-maximized="0" />
  <metadata
     id="metadata1006">
    <rdf:RDF>
      <cc:Work
         rdf:about="">
        <dc:format>image/svg+xml</dc:format>
        <dc:type
           rdf:resource="http://purl.org/dc/dcmitype/StillImage" />
        <dc:title />
      </cc:Work>
    </rdf:RDF>
  </metadata>
  <g
     inkscape:label="Layer 1"
     inkscape:groupmode="layer"
     id="layer1"
     transform="translate(-63.223495,-78.114784)">
    <path
       style="fill:#ffffff;stroke:none;stroke-width:0.26458332px;stroke-linecap:butt;stroke-linejoin:miter;stroke-opacity:1;fill-opacity:1"
       d="m 68.118466,114.80843 0.98255,-5.27004 -1.309439,-2.60272 -0.717173,-2.44775 -0.545676,-5.332024 0.07795,-1.605844 0.21827,-1.122532 -0.85749,-2.338609 -1.247258,-3.539094 -1.184895,-3.336414 0.01559,-1.886477 0.763946,-0.467722 1.060169,0.389768 4.443355,9.806564 0.717174,-0.717173 -0.951034,-3.835318 -1.699389,-6.937871 -0.04677,-1.995612 0.685992,-0.623629 1.106941,-0.01559 1.060169,1.870886 2.875698,10.480441 0.267968,0.08932 0.785196,-1.090604 -0.748355,-6.8911 -0.43654,-4.677216 0.187089,-1.730571 0.888671,-0.623628 1.07576,0.124725 0.919852,2.416562 1.258524,11.489283 h 0.357291 l 1.112562,-5.549217 0.483312,-3.913272 0.815838,-2.506749 1.366863,-0.143674 0.888671,1.605845 -0.171498,2.899874 -0.45213,7.904496 -0.109135,1.574663 0.249451,2.541288 -0.311815,1.668207 0.592448,-0.07795 1.262849,-2.697195 -0.109135,-1.870887 0.608038,-2.666014 0.670401,-0.685991 1.216076,-0.498903 0.85749,0.545675 0.249451,1.403165 -0.171498,0.997806 0.509286,2.148515 -0.805509,2.840516 -0.171498,2.135931 -0.951034,2.8531 -0.342996,1.59025 -0.05135,0.58434 -1.850716,2.97035 -1.371984,1.48112 -1.496709,2.99341 -0.104015,2.29129 z"
       id="path815"
       inkscape:connector-curvature="0" />
    <g
       style="fill:none;fill-opacity:1;stroke:#000000;stroke-width:0.02314146;stroke-miterlimit:4;stroke-dasharray:none;stroke-opacity:1"
       id="g6668"
       transform="matrix(21.606239,0,0,21.606239,-2368.4413,-9943.8778)">
      <g
         id="use6666"
         transform="matrix(0.26458333,0,0,0.26458333,112.49,465.51651)"
         style="fill:none;stroke:#000000;stroke-width:0.0874638;stroke-miterlimit:4;stroke-dasharray:none;stroke-opacity:1">
        <path
           inkscape:connector-curvature="0"
           style="fill:none;stroke:#000000;stroke-width:0.0874638;stroke-miterlimit:4;stroke-dasharray:none;stroke-opacity:1"
           d="M 4.484375,-3.34375 4.40625,-3.765625 C 4.390625,-3.875 4.46875,-4.21875 4.234375,-4.21875 c -0.3125,0 -0.4375,0.375 -0.4375,0.625 0,0.125 0.015625,0.21875 0.015625,0.328125 0,0.09375 -0.234375,0.53125 -0.28125,0.53125 C 3.515625,-2.734375 3.5,-2.75 3.5,-2.765625 3.5,-2.875 3.53125,-2.984375 3.53125,-3.09375 c 0,-0.0625 -0.015625,-0.125 -0.015625,-0.171875 C 3.5,-3.40625 3.484375,-3.53125 3.5,-3.65625 L 3.625,-5.4375 v -0.03125 c 0,-0.140625 -0.046875,-0.46875 -0.21875,-0.46875 -0.0625,0 -0.125,0 -0.171875,0.03125 C 3.0625,-5.484375 3.03125,-4.984375 2.96875,-4.546875 2.9375,-4.375 2.875,-3.953125 2.8125,-3.8125 c 0,0.015625 -0.015625,0.03125 -0.03125,0.03125 C 2.765625,-3.78125 2.75,-3.796875 2.75,-3.8125 2.65625,-4.46875 2.640625,-5.125 2.53125,-5.765625 c -0.03125,-0.125 -0.09375,-0.5 -0.234375,-0.5 -0.3125,0 -0.296875,0.1875 -0.296875,0.4375 0,0.640625 0.1875,1.265625 0.1875,1.921875 0,0.078125 -0.03125,0.25 -0.125,0.265625 -0.015625,0 -0.03125,0 -0.046875,-0.015625 C 1.84375,-4.140625 1.71875,-4.65625 1.59375,-5.140625 1.5625,-5.3125 1.4375,-5.84375 1.21875,-5.84375 1.140625,-5.84375 1,-5.75 1,-5.671875 c 0,0.5 0.265625,1.3125 0.390625,1.828125 0.03125,0.109375 0.078125,0.234375 0.078125,0.359375 0,0.046875 -0.03125,0.125 -0.09375,0.125 -0.03125,0 -0.046875,-0.046875 -0.046875,-0.0625 -0.0625,-0.140625 -0.125,-0.28125 -0.1875,-0.40625 C 1,-4.171875 0.8125,-4.484375 0.703125,-4.8125 0.65625,-4.9375 0.546875,-5.125 0.40625,-5.125 0.25,-5.125 0.25,-5 0.25,-4.890625 c 0,0.34375 0.25,0.78125 0.359375,1.109375 0.0625,0.1875 0.078125,0.375 0.171875,0.5625 0.03125,0.0625 0.046875,0.078125 0.046875,0.15625 0,0.0625 -0.03125,0.125 -0.03125,0.1875 v 0.296875 c 0,0.25 0.078125,0.890625 0.140625,1.140625 0.046875,0.234375 0.265625,0.40625 0.296875,0.625 v 0.015625 L 1.0625,0.109375 h 2.171875 c 0,-0.078125 -0.015625,-0.15625 -0.015625,-0.21875 0,-0.203125 0.140625,-0.40625 0.21875,-0.59375 0.0625,-0.125 0.171875,-0.21875 0.265625,-0.328125 0.140625,-0.171875 0.265625,-0.375 0.375,-0.5625 C 4.109375,-1.65625 4.09375,-1.75 4.109375,-1.828125 4.125,-1.9375 4.1875,-2.046875 4.21875,-2.15625 4.25,-2.234375 4.328125,-2.453125 4.328125,-2.53125 c 0,-0.34375 0.046875,-0.4375 0.15625,-0.8125 z m 0,0"
           id="path13749" />
      </g>
    </g>
  </g>
</svg>
