<?xml version="1.0" encoding="UTF-8" standalone="no"?>
<!-- Created with Inkscape (http://www.inkscape.org/) -->

<svg
   xmlns:dc="http://purl.org/dc/elements/1.1/"
   xmlns:cc="http://creativecommons.org/ns#"
   xmlns:rdf="http://www.w3.org/1999/02/22-rdf-syntax-ns#"
   xmlns:svg="http://www.w3.org/2000/svg"
   xmlns="http://www.w3.org/2000/svg"
   xmlns:sodipodi="http://sodipodi.sourceforge.net/DTD/sodipodi-0.dtd"
   xmlns:inkscape="http://www.inkscape.org/namespaces/inkscape"
   width="30.289183mm"
   height="36.497524mm"
   viewBox="0 0 30.289183 36.497524"
   version="1.1"
   id="svg1009"
   inkscape:version="0.92.4 (5da689c313, 2019-01-14)"
   sodipodi:docname="mind.svg">
  <defs
     id="defs1003" />
  <sodipodi:namedview
     id="base"
     pagecolor="#ffffff"
     bordercolor="#666666"
     borderopacity="1.0"
     inkscape:pageopacity="0.0"
     inkscape:pageshadow="2"
     inkscape:zoom="8.4852814"
     inkscape:cx="47.669626"
     inkscape:cy="7.9349021"
     inkscape:document-units="mm"
     inkscape:current-layer="layer1"
     showgrid="false"
     inkscape:window-width="1351"
     inkscape:window-height="811"
     inkscape:window-x="505"
     inkscape:window-y="121"
     inkscape:window-maximized="0" />
  <metadata
     id="metadata1006">
    <rdf:RDF>
      <cc:Work
         rdf:about="">
        <dc:format>image/svg+xml</dc:format>
        <dc:type
           rdf:resource="http://purl.org/dc/dcmitype/StillImage" />
        <dc:title />
      </cc:Work>
    </rdf:RDF>
  </metadata>
  <g
     inkscape:label="Layer 1"
     inkscape:groupmode="layer"
     id="layer1"
     transform="translate(-59.315711,-78.317982)">
    <path
       style="fill:#ffffff;stroke:none;stroke-width:0.26458332px;stroke-linecap:butt;stroke-linejoin:miter;stroke-opacity:1;fill-opacity:1"
       d="m 70.979868,114.06298 -1.265145,-5.63967 -1.387574,-1.44994 -1.902069,-0.48331 -1.714979,-0.0624 -0.966625,0.18709 c 0,0 -0.685992,-0.67041 -0.763945,-0.73277 -0.07795,-0.0624 -1.044579,-2.72837 -1.044579,-2.72837 l -0.155907,-1.6838 0.264573,-0.85828 -0.264573,-1.308833 0.109135,-1.247258 -1.870887,-1.013397 -0.311814,-0.748354 0.202679,-0.997807 1.091351,-1.231666 0.85749,-0.919853 1.340802,-1.855296 0.140316,-0.951034 -0.779536,-1.527891 0.530085,-2.026794 1.855296,-2.915465 2.104747,-1.792933 2.198292,-1.621435 c 0,0 2.502311,-1.07576 2.533492,-1.07576 0.03118,0 3.843113,-0.685992 3.843113,-0.685992 l 2.977828,0.311815 3.461141,1.340802 3.772956,2.666013 2.073566,2.650423 1.32521,3.164917 -0.218271,2.650423 -1.5123,2.931055 -1.527889,3.570276 -0.374178,3.617044 0.327405,2.75956 0.467722,2.77515 -2.3542,2.72838 -4.692807,2.88428 -3.118144,1.32521 -2.868693,0.43654 z"
       id="path815"
       inkscape:connector-curvature="0" />
    <g
       style="fill:#000000;fill-opacity:1;stroke:none;stroke-opacity:1"
       id="g6676"
       transform="matrix(22.753551,0,0,22.753551,-2672.2256,-10478.561)">
      <g
         id="use6674"
         transform="matrix(0.26458333,0,0,0.26458333,119.987,465.51651)"
         style="fill:#000000;fill-opacity:1;stroke:none;stroke-opacity:1">
        <path
           inkscape:connector-curvature="0"
           style="stroke:none;fill:#000000;fill-opacity:1;stroke-opacity:1"
           d="m 5.265625,-3.921875 c 0,-1.015625 -1.265625,-1.9375 -2.21875,-1.9375 -0.171875,0 -0.34375,0.046875 -0.515625,0.078125 -0.703125,0.0625 -1.796875,0.921875 -1.796875,1.671875 0,0.109375 0.09375,0.234375 0.09375,0.3125 0,0.21875 -0.59375,0.65625 -0.59375,0.875 0,0.28125 0.171875,0.265625 0.359375,0.375 C 0.578125,-2.5 0.5625,-2.453125 0.5625,-2.40625 c 0,0.0625 0.015625,0.109375 0.046875,0.15625 -0.03125,0.015625 -0.0625,0.0625 -0.0625,0.109375 0,0.21875 0.15625,1.046875 0.4375,1.046875 0.046875,0 0.109375,-0.03125 0.171875,-0.03125 0.296875,0 0.640625,0.03125 0.765625,0.34375 0.140625,0.296875 0.0625,0.625 0.140625,0.921875 0.015625,0.046875 0.03125,0.0625 0.078125,0.0625 H 2.8125 c 0.09375,0 0.3125,-0.09375 0.40625,-0.125 0.40625,-0.171875 1.5625,-0.71875 1.5625,-1.21875 0,-0.125 -0.03125,-0.25 -0.046875,-0.359375 C 4.703125,-1.71875 4.6875,-1.953125 4.6875,-2.1875 c 0,-0.890625 0.578125,-1.125 0.578125,-1.734375 z m -0.125,0 c 0,0.546875 -0.578125,0.828125 -0.578125,1.734375 0,0.234375 0.015625,0.46875 0.046875,0.6875 0.015625,0.109375 0.0625,0.234375 0.0625,0.359375 0,0.390625 -1.5,1.21875 -1.859375,1.21875 -0.15625,0 -0.328125,-0.015625 -0.46875,-0.015625 -0.0625,0 -0.109375,0 -0.171875,0.015625 C 2.09375,-0.71875 2.15625,-1.25 1.15625,-1.25 c -0.0625,0 -0.125,0.03125 -0.171875,0.03125 -0.1875,0 -0.296875,-0.765625 -0.296875,-0.921875 V -2.15625 c 0.03125,-0.015625 0.09375,-0.0625 0.09375,-0.109375 0,-0.0625 -0.09375,0 -0.09375,-0.140625 0,-0.046875 0.03125,-0.09375 0.03125,-0.15625 0,-0.1875 -0.375,-0.09375 -0.375,-0.359375 0,-0.140625 0.609375,-0.59375 0.609375,-0.875 0,-0.109375 -0.109375,-0.203125 -0.109375,-0.3125 0,-0.671875 1.0625,-1.484375 1.6875,-1.5625 0.171875,-0.015625 0.34375,-0.0625 0.515625,-0.0625 0.875,0 2.09375,0.875 2.09375,1.8125 z m 0,0"
           id="path13753" />
      </g>
    </g>
  </g>
</svg>
