<?xml version="1.0" encoding="UTF-8" standalone="no"?>
<!-- Created with Inkscape (http://www.inkscape.org/) -->

<svg
   xmlns:dc="http://purl.org/dc/elements/1.1/"
   xmlns:cc="http://creativecommons.org/ns#"
   xmlns:rdf="http://www.w3.org/1999/02/22-rdf-syntax-ns#"
   xmlns:svg="http://www.w3.org/2000/svg"
   xmlns="http://www.w3.org/2000/svg"
   xmlns:sodipodi="http://sodipodi.sourceforge.net/DTD/sodipodi-0.dtd"
   xmlns:inkscape="http://www.inkscape.org/namespaces/inkscape"
   height="1em"
   viewBox="0 0 30.289183 36.497524"
   version="1.1"
   id="svg1009"
   inkscape:version="0.92.4 (5da689c313, 2019-01-14)"
   sodipodi:docname="mind.svg">
  <defs
     id="defs1003" />
  <sodipodi:namedview
     id="base"
     pagecolor="#ffffff"
     bordercolor="#666666"
     borderopacity="1.0"
     inkscape:pageopacity="0.0"
     inkscape:pageshadow="2"
     inkscape:zoom="2.8"
     inkscape:cx="25.393857"
     inkscape:cy="55.632745"
     inkscape:document-units="mm"
     inkscape:current-layer="layer1"
     showgrid="false"
     inkscape:window-width="1920"
     inkscape:window-height="1001"
     inkscape:window-x="-9"
     inkscape:window-y="-9"
     inkscape:window-maximized="1" />
  <metadata
     id="metadata1006">
    <rdf:RDF>
      <cc:Work
         rdf:about="">
        <dc:format>image/svg+xml</dc:format>
        <dc:type
           rdf:resource="http://purl.org/dc/dcmitype/StillImage" />
        <dc:title></dc:title>
      </cc:Work>
    </rdf:RDF>
  </metadata>
  <g
     inkscape:label="Layer 1"
     inkscape:groupmode="layer"
     id="layer1"
     transform="translate(-59.315711,-78.317982)">
    <g
       style="fill:#000000;fill-opacity:1"
       id="g6676"
       transform="matrix(22.753551,0,0,22.753551,-2672.2256,-10478.561)">
      <g
         id="use6674"
         transform="matrix(0.26458333,0,0,0.26458333,119.987,465.51651)">
        <path
           inkscape:connector-curvature="0"
           style="stroke:none"
           d="m 5.265625,-3.921875 c 0,-1.015625 -1.265625,-1.9375 -2.21875,-1.9375 -0.171875,0 -0.34375,0.046875 -0.515625,0.078125 -0.703125,0.0625 -1.796875,0.921875 -1.796875,1.671875 0,0.109375 0.09375,0.234375 0.09375,0.3125 0,0.21875 -0.59375,0.65625 -0.59375,0.875 0,0.28125 0.171875,0.265625 0.359375,0.375 C 0.578125,-2.5 0.5625,-2.453125 0.5625,-2.40625 c 0,0.0625 0.015625,0.109375 0.046875,0.15625 -0.03125,0.015625 -0.0625,0.0625 -0.0625,0.109375 0,0.21875 0.15625,1.046875 0.4375,1.046875 0.046875,0 0.109375,-0.03125 0.171875,-0.03125 0.296875,0 0.640625,0.03125 0.765625,0.34375 0.140625,0.296875 0.0625,0.625 0.140625,0.921875 0.015625,0.046875 0.03125,0.0625 0.078125,0.0625 H 2.8125 c 0.09375,0 0.3125,-0.09375 0.40625,-0.125 0.40625,-0.171875 1.5625,-0.71875 1.5625,-1.21875 0,-0.125 -0.03125,-0.25 -0.046875,-0.359375 C 4.703125,-1.71875 4.6875,-1.953125 4.6875,-2.1875 c 0,-0.890625 0.578125,-1.125 0.578125,-1.734375 z m -0.125,0 c 0,0.546875 -0.578125,0.828125 -0.578125,1.734375 0,0.234375 0.015625,0.46875 0.046875,0.6875 0.015625,0.109375 0.0625,0.234375 0.0625,0.359375 0,0.390625 -1.5,1.21875 -1.859375,1.21875 -0.15625,0 -0.328125,-0.015625 -0.46875,-0.015625 -0.0625,0 -0.109375,0 -0.171875,0.015625 C 2.09375,-0.71875 2.15625,-1.25 1.15625,-1.25 c -0.0625,0 -0.125,0.03125 -0.171875,0.03125 -0.1875,0 -0.296875,-0.765625 -0.296875,-0.921875 V -2.15625 c 0.03125,-0.015625 0.09375,-0.0625 0.09375,-0.109375 0,-0.0625 -0.09375,0 -0.09375,-0.140625 0,-0.046875 0.03125,-0.09375 0.03125,-0.15625 0,-0.1875 -0.375,-0.09375 -0.375,-0.359375 0,-0.140625 0.609375,-0.59375 0.609375,-0.875 0,-0.109375 -0.109375,-0.203125 -0.109375,-0.3125 0,-0.671875 1.0625,-1.484375 1.6875,-1.5625 0.171875,-0.015625 0.34375,-0.0625 0.515625,-0.0625 0.875,0 2.09375,0.875 2.09375,1.8125 z m 0,0"
           id="path13753" />
      </g>
    </g>
  </g>
</svg>
