<?xml version="1.0" encoding="UTF-8" standalone="no"?>
<!-- Created with Inkscape (http://www.inkscape.org/) -->

<svg
   xmlns:dc="http://purl.org/dc/elements/1.1/"
   xmlns:cc="http://creativecommons.org/ns#"
   xmlns:rdf="http://www.w3.org/1999/02/22-rdf-syntax-ns#"
   xmlns:svg="http://www.w3.org/2000/svg"
   xmlns="http://www.w3.org/2000/svg"
   xmlns:sodipodi="http://sodipodi.sourceforge.net/DTD/sodipodi-0.dtd"
   xmlns:inkscape="http://www.inkscape.org/namespaces/inkscape"
   width="2.3187416mm"
   height="3.824538mm"
   viewBox="0 0 2.3187416 3.824538"
   version="1.1"
   id="svg5305"
   inkscape:version="0.92.4 (5da689c313, 2019-01-14)"
   sodipodi:docname="ruinlair-2.svg">
  <defs
     id="defs5299" />
  <sodipodi:namedview
     id="base"
     pagecolor="#ffffff"
     bordercolor="#666666"
     borderopacity="1.0"
     inkscape:pageopacity="0.0"
     inkscape:pageshadow="2"
     inkscape:zoom="31.678384"
     inkscape:cx="-15.212205"
     inkscape:cy="14.27973"
     inkscape:document-units="mm"
     inkscape:current-layer="layer1"
     showgrid="false"
     inkscape:window-width="1920"
     inkscape:window-height="1001"
     inkscape:window-x="-9"
     inkscape:window-y="-9"
     inkscape:window-maximized="1" />
  <metadata
     id="metadata5302">
    <rdf:RDF>
      <cc:Work
         rdf:about="">
        <dc:format>image/svg+xml</dc:format>
        <dc:type
           rdf:resource="http://purl.org/dc/dcmitype/StillImage" />
        <dc:title></dc:title>
      </cc:Work>
    </rdf:RDF>
  </metadata>
  <g
     inkscape:label="Layer 1"
     inkscape:groupmode="layer"
     id="layer1"
     transform="translate(-164.82902,-125.9012)">
    <g
       style="fill:#000000;fill-opacity:1"
       id="g6860-9-9"
       transform="matrix(2.2345811,0,0,2.2345811,31.928781,-930.614)"
       inkscape:export-xdpi="1200.02"
       inkscape:export-ydpi="1200.02">
      <g
         id="use6858-4-6"
         transform="matrix(0.26458333,0,0,0.26458333,59.432999,474.51801)">
        <path
           inkscape:connector-curvature="0"
           style="stroke:none"
           d="m 2.03125,-4.3125 -0.25,-0.859375 -0.453125,0.3125 C 1.296875,-5.09375 1.0625,-6.375 1,-6.484375 H 0.15625 V -5.1875 l 0.4375,0.53125 -0.4375,4.640625 h 3.921875 l -0.1875,-2.375 C 3.796875,-2.53125 3.671875,-3.25 3.640625,-3.46875 l -0.625,0.53125 -0.25,-1.046875 -0.171875,0.0625 c -0.046875,-0.25 -0.1875,-0.390625 -0.453125,-0.390625 -0.03125,0 -0.078125,0 -0.109375,0 z M 1.609375,-2.375 v -1.453125 c 0,-0.3125 0.046875,-0.734375 0.40625,-0.796875 L 2.1875,-4.046875 2.625,-4.203125 c 0.015625,0.109375 0.015625,0.234375 0.015625,0.375 V -2.375 Z m 0,0"
           id="path13745-6-3" />
      </g>
    </g>
  </g>
</svg>
