<?xml version="1.0" encoding="UTF-8" standalone="no"?>
<!-- Created with Inkscape (http://www.inkscape.org/) -->

<svg
   xmlns:dc="http://purl.org/dc/elements/1.1/"
   xmlns:cc="http://creativecommons.org/ns#"
   xmlns:rdf="http://www.w3.org/1999/02/22-rdf-syntax-ns#"
   xmlns:svg="http://www.w3.org/2000/svg"
   xmlns="http://www.w3.org/2000/svg"
   xmlns:sodipodi="http://sodipodi.sourceforge.net/DTD/sodipodi-0.dtd"
   xmlns:inkscape="http://www.inkscape.org/namespaces/inkscape"
   width="4.2214856mm"
   height="4.2332573mm"
   viewBox="0 0 4.2214855 4.2332573"
   version="1.1"
   id="svg8"
   inkscape:version="0.92.4 (5da689c313, 2019-01-14)"
   sodipodi:docname="scroll.svg">
  <defs
     id="defs2" />
  <sodipodi:namedview
     id="base"
     pagecolor="#ffffff"
     bordercolor="#666666"
     borderopacity="1.0"
     inkscape:pageopacity="0.0"
     inkscape:pageshadow="2"
     inkscape:zoom="7.9195959"
     inkscape:cx="-0.16122635"
     inkscape:cy="8.6722092"
     inkscape:document-units="mm"
     inkscape:current-layer="layer1"
     showgrid="false"
     inkscape:window-width="1920"
     inkscape:window-height="1001"
     inkscape:window-x="-9"
     inkscape:window-y="-9"
     inkscape:window-maximized="1" />
  <metadata
     id="metadata5">
    <rdf:RDF>
      <cc:Work
         rdf:about="">
        <dc:format>image/svg+xml</dc:format>
        <dc:type
           rdf:resource="http://purl.org/dc/dcmitype/StillImage" />
        <dc:title />
      </cc:Work>
    </rdf:RDF>
  </metadata>
  <g
     inkscape:label="Layer 1"
     inkscape:groupmode="layer"
     id="layer1"
     transform="translate(-76.538007,-93.2899)">
    <path
       style="fill:#020202;stroke-width:0.00547138"
       d="m 76.876668,97.514422 c -0.142035,-0.04147 -0.254097,-0.160533 -0.308887,-0.328197 -0.02317,-0.07089 -0.02997,-0.123607 -0.02977,-0.23055 1.66e-4,-0.08604 0.0017,-0.101223 0.0147,-0.149762 0.0414,-0.154002 0.124679,-0.246135 0.258286,-0.285713 0.0293,-0.0087 0.06508,-0.0099 0.332672,-0.01169 0.262872,-0.0018 0.300243,-0.003 0.303059,-0.01045 0.0037,-0.0098 -0.0047,-0.07366 -0.0233,-0.177053 -0.01728,-0.09574 -0.02548,-0.130454 -0.05812,-0.246212 -0.07026,-0.249143 -0.154956,-0.469292 -0.310508,-0.807028 -0.04573,-0.09931 -0.101663,-0.223644 -0.124267,-0.276305 -0.0226,-0.05266 -0.04614,-0.106833 -0.0523,-0.120376 -0.06886,-0.151483 -0.177425,-0.451639 -0.216714,-0.599116 -0.04587,-0.172188 -0.05263,-0.219984 -0.05266,-0.372052 -1.6e-5,-0.122851 9.26e-4,-0.135762 0.01501,-0.200408 0.01635,-0.07511 0.03887,-0.146551 0.05842,-0.185325 0.0558,-0.110613 0.15774,-0.188582 0.279182,-0.213513 0.05057,-0.01045 0.0835,-0.01072 1.221716,-0.01072 1.294646,-7.7e-5 1.20561,-0.0024 1.29899,0.03531 0.132695,0.05373 0.235755,0.167826 0.272176,0.301306 0.005,0.01794 0.01031,0.06094 0.0121,0.09556 0.0085,0.171343 -0.05983,0.319416 -0.186582,0.403803 l -0.0386,0.02569 -0.249777,0.0015 c -0.200901,0.0012 -0.250971,0.0029 -0.255874,0.0089 -0.0046,0.0055 -0.0019,0.02356 0.01059,0.07233 0.06315,0.245075 0.143157,0.459314 0.341991,0.915791 0.0099,0.02258 0.0293,0.06544 0.04327,0.09526 0.01395,0.02983 0.02344,0.05598 0.02105,0.05813 -0.04402,0.03976 -0.08553,0.07121 -0.0891,0.0675 -0.0024,-0.0026 -0.01477,-0.02814 -0.02726,-0.05672 -0.01251,-0.02859 -0.02851,-0.06429 -0.03557,-0.07933 -0.156957,-0.334411 -0.30035,-0.714039 -0.364718,-0.965585 -0.015,-0.05861 -0.03021,-0.108441 -0.03378,-0.11071 -0.0036,-0.0023 -0.397978,-0.0042 -0.876451,-0.0044 -0.947347,-1.94e-4 -0.908487,9.93e-4 -0.974819,-0.03108 -0.04041,-0.01957 -0.09292,-0.07154 -0.118383,-0.117172 -0.01072,-0.01928 -0.02623,-0.0572 -0.0344,-0.08427 -0.01293,-0.04284 -0.01492,-0.05921 -0.01538,-0.125848 -5.97e-4,-0.08699 0.0069,-0.126219 0.02768,-0.14579 l 0.01375,-0.01293 0.212434,-0.0015 c 0.178543,-0.0013 0.212913,-0.0028 0.215446,-0.0094 0.0038,-0.0099 -0.01348,-0.06054 -0.03276,-0.09603 -0.03076,-0.05651 -0.09897,-0.104262 -0.170562,-0.119413 -0.04103,-0.0087 -0.10928,-0.0076 -0.158631,0.0024 -0.118533,0.02426 -0.194562,0.100755 -0.233631,0.235048 -0.04309,0.148103 -0.04733,0.300608 -0.01306,0.470334 0.04437,0.219772 0.164738,0.544144 0.371549,1.001261 0.05976,0.132064 0.106833,0.237 0.120307,0.268099 0.0026,0.006 0.01375,0.03065 0.02461,0.05471 0.126536,0.278761 0.236854,0.628155 0.284164,0.90004 0.06481,0.372478 0.03931,0.670976 -0.07708,0.902126 -0.02079,0.04129 -0.04686,0.08335 -0.06484,0.104605 -0.03487,0.04122 -0.03891,0.04817 -0.03208,0.055 0.0073,0.0073 1.904714,0.0073 1.950404,4.2e-5 0.150337,-0.02402 0.271203,-0.127237 0.336476,-0.287333 0.04204,-0.103149 0.06135,-0.213959 0.06581,-0.377766 0.0026,-0.09721 0.0013,-0.130482 -0.0088,-0.216121 -0.01141,-0.0974 -0.03059,-0.212884 -0.04671,-0.281774 l -0.0077,-0.03283 0.04812,-0.04838 0.04813,-0.04837 0.01196,0.05112 c 0.103286,0.441067 0.09341,0.810516 -0.0281,1.052375 -0.05952,0.118479 -0.14437,0.204759 -0.253048,0.257328 -0.02708,0.01306 -0.06894,0.02944 -0.09301,0.0363 l -0.04377,0.01251 -1.220116,0.0012 c -1.1483,9.93e-4 -1.222049,6.18e-4 -1.252946,-0.0084 z m 0.196475,-0.110298 c 0.139022,-0.01593 0.22731,-0.08094 0.29422,-0.216678 0.01947,-0.03949 0.032,-0.07165 0.03091,-0.07933 l -0.0018,-0.01293 -0.190611,-0.0028 -0.190611,-0.0028 -0.0132,-0.01536 c -0.02039,-0.02372 -0.01786,-0.05091 0.0085,-0.09172 0.0735,-0.113721 0.06974,-0.258308 -0.0085,-0.327208 -0.0304,-0.02677 -0.06505,-0.03619 -0.11269,-0.03066 -0.146008,0.01694 -0.230131,0.126412 -0.238104,0.309849 -0.0059,0.135954 0.02486,0.24896 0.09455,0.347242 0.04188,0.05905 0.109061,0.108854 0.164378,0.121847 0.02938,0.0069 0.104744,0.0071 0.163004,4.11e-4 z m 0.363297,-0.433513 c 0.02049,-0.02468 0.03608,-0.331379 0.01746,-0.343346 -0.005,-0.0032 -0.06897,-0.0047 -0.15867,-0.004 l -0.150463,0.0015 8.61e-4,0.01643 c 4.73e-4,0.0091 0.0074,0.03464 0.01546,0.05691 0.02475,0.06873 0.0245,0.159908 -6.38e-4,0.237378 -0.01428,0.044 -0.01998,0.0422 0.133933,0.0422 0.103519,0 0.137672,-0.0017 0.142054,-0.007 z M 77.217103,94.03117 c 0.06886,-0.02045 0.126893,-0.106668 0.146032,-0.216964 0.01224,-0.07031 0.02757,-0.06476 -0.179169,-0.06476 -0.130001,0 -0.178264,0.0018 -0.183098,0.0066 -0.01031,0.01031 -0.0078,0.07401 0.0046,0.118575 0.02527,0.09123 0.06567,0.139805 0.130867,0.157387 0.03359,0.0091 0.04807,0.0089 0.08082,-8.6e-4 z m 2.304222,-0.005 c 0.05036,-0.0318 0.09975,-0.105733 0.119359,-0.17869 0.0132,-0.04895 0.01306,-0.149638 -2.69e-4,-0.193553 -0.02957,-0.0978 -0.09149,-0.168852 -0.186883,-0.214487 -0.07653,-0.03662 -0.01418,-0.0346 -1.088647,-0.03487 -1.0697,-2.67e-4 -0.999445,-0.0026 -0.972381,0.03139 0.03386,0.04243 0.05821,0.09508 0.0792,0.171178 0.0091,0.03296 0.01141,0.05773 0.01169,0.125848 4.12e-4,0.102708 -0.01059,0.154201 -0.0506,0.238063 -0.01441,0.03016 -0.02519,0.05788 -0.02395,0.06158 0.0018,0.0054 0.223936,0.0067 1.046932,0.0067 h 1.044687 l 0.02091,-0.0132 z m -1.629115,2.960111 c -0.03723,-0.02064 -0.03599,-0.08342 0.0019,-0.100728 0.01031,-0.0047 0.07448,-0.0066 0.230121,-0.0066 h 0.215777 l 0.01786,0.01597 c 0.01534,0.01375 0.01786,0.01958 0.01786,0.04148 0,0.02192 -0.0026,0.02779 -0.01786,0.04148 l -0.01786,0.01596 -0.217402,-1.66e-4 c -0.169934,-1.68e-4 -0.220256,-0.0018 -0.230477,-0.0074 z m 0.617664,-0.04496 c 0,-0.01407 0.04015,-0.09055 0.0729,-0.138899 0.03417,-0.05043 0.133851,-0.181184 0.218116,-0.286087 l 0.08696,-0.108262 0.005,-0.05588 c 0.0076,-0.08602 0.04139,-0.228223 0.05428,-0.228223 0.0024,0 0.0059,0.01393 0.0077,0.03095 0.0052,0.05012 0.02684,0.05123 0.0334,0.0017 0.01237,-0.09354 0.06198,-0.217054 0.115192,-0.287066 0.03025,-0.03979 0.0363,-0.0429 0.0299,-0.01534 -0.0074,0.03188 -0.006,0.07488 0.0028,0.08679 0.01072,0.0146 0.01477,0.0087 0.03547,-0.0523 0.03553,-0.104688 0.09891,-0.221859 0.167132,-0.308919 0.03312,-0.04228 0.128598,-0.141748 0.132393,-0.137944 9.93e-4,9.92e-4 -0.0044,0.01713 -0.01196,0.03579 -0.0164,0.04037 -0.03171,0.103176 -0.02769,0.113639 0.0069,0.01785 0.01978,0.0038 0.04574,-0.04957 0.052,-0.106943 0.126907,-0.205703 0.237082,-0.312574 0.05735,-0.05562 0.158782,-0.139243 0.16891,-0.139243 0.0023,0 -0.0028,0.02031 -0.01127,0.04514 -0.0085,0.02483 -0.01718,0.0556 -0.0192,0.06839 -0.003,0.01957 -0.0022,0.02325 0.0055,0.02325 0.0051,0 0.01334,-0.0076 0.01848,-0.0169 0.02375,-0.04304 0.08422,-0.131526 0.112002,-0.163907 0.06041,-0.07038 0.161095,-0.144616 0.259905,-0.191618 0.02489,-0.01183 0.04768,-0.02152 0.05068,-0.02152 0.003,0 -0.0032,0.01718 -0.01377,0.03816 -0.01855,0.03685 -0.02473,0.06579 -0.01406,0.06579 0.0028,0 0.01606,-0.01418 0.02939,-0.03151 0.07441,-0.09671 0.171946,-0.161405 0.287532,-0.190726 0.07344,-0.01863 0.08034,-0.01757 0.04998,0.0076 -0.04187,0.0347 -0.05113,0.04532 -0.04494,0.05152 0.0038,0.0038 0.0225,-0.0021 0.05949,-0.01899 0.0507,-0.02318 0.08896,-0.03664 0.104413,-0.03671 0.01726,-8.4e-5 -0.07267,0.117873 -0.13385,0.175603 -0.02088,0.01971 -0.06116,0.05132 -0.0895,0.07029 -0.05886,0.03938 -0.06597,0.05298 -0.02666,0.05105 0.01361,-6.38e-4 0.03547,-0.005 0.04844,-0.0095 0.02189,-0.0077 0.02332,-0.0077 0.02002,9.27e-4 -0.01611,0.04199 -0.125629,0.163557 -0.193827,0.215166 -0.04126,0.03122 -0.12714,0.07641 -0.145226,0.07641 -0.0066,0 -0.01661,0.0033 -0.02217,0.0074 -0.02509,0.01834 0.01622,0.02857 0.08142,0.02014 0.02384,-0.003 0.04408,-0.0048 0.04499,-0.004 8.61e-4,9.26e-4 -0.02259,0.02992 -0.05222,0.06445 -0.130949,0.152615 -0.255723,0.24591 -0.380812,0.284741 -0.07118,0.02209 -0.05556,0.04054 0.03081,0.03637 l 0.05358,-0.0026 -0.01757,0.02234 c -0.02966,0.0377 -0.146328,0.151694 -0.195425,0.190933 -0.101856,0.08141 -0.186369,0.130523 -0.273774,0.159125 -0.0334,0.01086 -0.05721,0.02166 -0.05721,0.02578 0,0.01597 0.04991,0.01889 0.125848,0.0074 l 0.02189,-0.0033 -0.02736,0.02503 c -0.06396,0.05849 -0.159807,0.115413 -0.238004,0.141337 -0.03957,0.01306 -0.0559,0.01719 -0.129946,0.03231 -0.02604,0.0054 -0.03419,0.0092 -0.03419,0.01642 0,0.0121 0.008,0.01423 0.07093,0.01889 l 0.05178,0.0038 -0.0217,0.0188 c -0.05195,0.04498 -0.149269,0.07697 -0.246014,0.08087 -0.03311,0.0015 -0.06177,0.0024 -0.06373,0.0026 -0.0069,2.05e-4 -0.19091,0.214412 -0.277037,0.322309 -0.04351,0.0545 -0.09044,0.11522 -0.09967,0.128928 -0.01687,0.02508 -0.05537,0.05774 -0.06803,0.05774 -0.0018,0 -0.003,-0.0065 -0.003,-0.0143 z m -0.594193,-0.431072 c -0.01334,-0.01334 -0.01861,-0.02354 -0.01861,-0.03584 0,-0.02336 0.01251,-0.04602 0.02994,-0.05393 0.01072,-0.0048 0.114464,-0.0066 0.408027,-0.0066 0.216526,0 0.393683,0.0015 0.393683,0.003 0,0.0017 -0.01981,0.02754 -0.04404,0.05745 l -0.04404,0.05438 H 78.287462 77.93428 Z m -0.123785,-0.454993 c -0.01939,-0.01045 -0.02612,-0.02385 -0.02612,-0.05171 0,-0.01776 0.0034,-0.02614 0.01599,-0.03866 l 0.01599,-0.01599 h 0.558705 0.558705 l -0.0212,0.03146 c -0.01169,0.01731 -0.02799,0.04316 -0.03628,0.05745 l -0.01509,0.02599 -0.517893,-2.06e-4 c -0.446379,-1.84e-4 -0.519951,-0.0015 -0.532801,-0.0082 z m -0.13139,-0.465025 c -0.03517,-0.01926 -0.03979,-0.06652 -0.0091,-0.09241 l 0.01665,-0.01401 0.714963,8.5e-5 c 0.558753,5.9e-5 0.717951,0.0017 0.728641,0.0069 0.0076,0.0037 0.01793,0.01548 0.02314,0.0261 0.01293,0.02629 0.005,0.05637 -0.01884,0.07081 -0.01631,0.0099 -0.042,0.01031 -0.728723,0.01045 -0.622613,2.05e-4 -0.713694,-8.61e-4 -0.726795,-0.008 z m -0.188643,-0.460676 c -0.01996,-0.0034 -0.03986,-0.0319 -0.03986,-0.05695 0,-0.0169 0.0036,-0.02553 0.01599,-0.03788 l 0.01599,-0.01599 h 0.720266 c 0.483539,0 0.723726,0.0018 0.730793,0.0056 0.0058,0.0032 0.01424,0.01279 0.0188,0.02161 0.01293,0.02491 0.01031,0.04682 -0.0077,0.06704 l -0.01597,0.01786 -0.713094,3.92e-4 c -0.392202,2.05e-4 -0.71855,-5.56e-4 -0.725218,-0.0018 z m -0.208301,-0.469314 c -0.02149,-0.0092 -0.0364,-0.03942 -0.03117,-0.06319 0.0019,-0.0087 0.01086,-0.02192 0.01988,-0.02952 l 0.01643,-0.01383 h 0.718647 0.718645 l 0.01613,0.01361 c 0.03145,0.02646 0.02499,0.07778 -0.01169,0.09313 -0.02781,0.01169 -1.419716,0.01141 -1.446853,-1.45e-4 z"
       id="path828-0"
       inkscape:connector-curvature="0" />
  </g>
</svg>
