<?xml version="1.0" encoding="UTF-8" standalone="no"?>
<!-- Created with Inkscape (http://www.inkscape.org/) -->

<svg
   xmlns:dc="http://purl.org/dc/elements/1.1/"
   xmlns:cc="http://creativecommons.org/ns#"
   xmlns:rdf="http://www.w3.org/1999/02/22-rdf-syntax-ns#"
   xmlns:svg="http://www.w3.org/2000/svg"
   xmlns="http://www.w3.org/2000/svg"
   xmlns:sodipodi="http://sodipodi.sourceforge.net/DTD/sodipodi-0.dtd"
   xmlns:inkscape="http://www.inkscape.org/namespaces/inkscape"
   width="6.3777561mm"
   height="6.3958535mm"
   viewBox="0 0 6.377756 6.3958536"
   version="1.1"
   id="svg8"
   inkscape:version="0.92.4 (5da689c313, 2019-01-14)"
   sodipodi:docname="scroll.svg">
  <defs
     id="defs2" />
  <sodipodi:namedview
     id="base"
     pagecolor="#ffffff"
     bordercolor="#666666"
     borderopacity="1.0"
     inkscape:pageopacity="0.0"
     inkscape:pageshadow="2"
     inkscape:zoom="7.9195959"
     inkscape:cx="26.137068"
     inkscape:cy="12.759265"
     inkscape:document-units="mm"
     inkscape:current-layer="layer1"
     showgrid="false"
     inkscape:window-width="1920"
     inkscape:window-height="1001"
     inkscape:window-x="-9"
     inkscape:window-y="-9"
     inkscape:window-maximized="1" />
  <metadata
     id="metadata5">
    <rdf:RDF>
      <cc:Work
         rdf:about="">
        <dc:format>image/svg+xml</dc:format>
        <dc:type
           rdf:resource="http://purl.org/dc/dcmitype/StillImage" />
        <dc:title></dc:title>
      </cc:Work>
    </rdf:RDF>
  </metadata>
  <g
     inkscape:label="Layer 1"
     inkscape:groupmode="layer"
     id="layer1"
     transform="translate(-75.459846,-92.208671)">
    <path
       style="fill:#020202;stroke-width:0.00826619"
       d="m 75.971492,98.59111 c -0.214588,-0.06265 -0.383892,-0.242533 -0.466669,-0.495841 -0.035,-0.107104 -0.04528,-0.186746 -0.04497,-0.348316 2.51e-4,-0.129996 0.0025,-0.152929 0.02221,-0.226262 0.06255,-0.232667 0.188366,-0.371862 0.39022,-0.431657 0.04427,-0.01309 0.09832,-0.01496 0.502603,-0.01766 0.397149,-0.0027 0.453609,-0.0046 0.457863,-0.01579 0.0056,-0.01475 -0.0071,-0.111279 -0.03521,-0.267493 -0.02611,-0.14464 -0.03849,-0.197091 -0.08781,-0.371979 -0.106149,-0.376407 -0.234108,-0.709008 -0.469118,-1.219262 -0.06909,-0.150041 -0.153593,-0.337882 -0.187743,-0.417443 -0.03415,-0.07956 -0.06971,-0.161404 -0.07902,-0.181865 -0.104029,-0.228861 -0.268054,-0.682339 -0.327412,-0.905148 -0.0693,-0.260143 -0.07952,-0.332353 -0.07956,-0.562098 -2.4e-5,-0.185604 0.0014,-0.20511 0.02268,-0.302777 0.0247,-0.113481 0.05873,-0.221411 0.08826,-0.27999 0.0843,-0.167116 0.238315,-0.284912 0.421791,-0.322577 0.0764,-0.01579 0.126153,-0.0162 1.845775,-0.0162 1.955959,-1.16e-4 1.821443,-0.0037 1.962521,0.05334 0.200477,0.08118 0.35618,0.253552 0.411205,0.455215 0.0075,0.02711 0.01558,0.09206 0.01828,0.14437 0.01288,0.258867 -0.0904,0.482576 -0.281889,0.610068 l -0.05831,0.03882 -0.377365,0.0023 c -0.303522,0.0018 -0.379168,0.0044 -0.386575,0.0135 -0.0069,0.0083 -0.0029,0.0356 0.016,0.109285 0.09541,0.37026 0.216283,0.693934 0.516683,1.383582 0.01496,0.03411 0.04427,0.09886 0.06537,0.143913 0.02108,0.04506 0.03542,0.08457 0.0318,0.08783 -0.06651,0.06007 -0.129227,0.107582 -0.134607,0.101973 -0.0037,-0.0039 -0.02231,-0.04252 -0.04119,-0.08569 -0.0189,-0.04319 -0.04308,-0.09713 -0.05374,-0.119859 -0.237132,-0.50523 -0.45377,-1.078774 -0.551018,-1.45881 -0.02266,-0.08855 -0.04564,-0.163834 -0.05104,-0.167262 -0.0054,-0.0035 -0.601267,-0.0064 -1.324146,-0.0066 -1.431257,-2.93e-4 -1.372548,0.0015 -1.472763,-0.04695 -0.06105,-0.02956 -0.140382,-0.10808 -0.178853,-0.177025 -0.0162,-0.02912 -0.03963,-0.08641 -0.05197,-0.127316 -0.01953,-0.06473 -0.02254,-0.08945 -0.02324,-0.190132 -9.01e-4,-0.131429 0.01039,-0.190693 0.04182,-0.220261 l 0.02077,-0.01953 0.320946,-0.0023 c 0.269744,-0.0019 0.321671,-0.0042 0.325498,-0.01413 0.0058,-0.01496 -0.02036,-0.09146 -0.0495,-0.145077 -0.04647,-0.08537 -0.149521,-0.157519 -0.257687,-0.18041 -0.06199,-0.01309 -0.165101,-0.01143 -0.23966,0.0037 -0.179081,0.03666 -0.293946,0.152222 -0.352972,0.355113 -0.0651,0.223754 -0.0715,0.454159 -0.01973,0.710583 0.06703,0.332032 0.248886,0.822095 0.561338,1.512711 0.09028,0.199522 0.161404,0.358061 0.181761,0.405045 0.0039,0.0091 0.02077,0.0463 0.03718,0.08265 0.191171,0.421153 0.357841,0.94902 0.429317,1.359785 0.09792,0.562742 0.05939,1.013715 -0.116451,1.362937 -0.03141,0.06238 -0.07079,0.125924 -0.09796,0.158038 -0.05268,0.06228 -0.05879,0.07277 -0.04846,0.08309 0.01101,0.01101 2.877653,0.01101 2.946682,6.4e-5 0.227129,-0.03629 0.409735,-0.19223 0.508349,-0.434105 0.06352,-0.155837 0.09269,-0.32325 0.09942,-0.570731 0.0039,-0.146863 0.0019,-0.197133 -0.01329,-0.326517 -0.01724,-0.147154 -0.04622,-0.321626 -0.07057,-0.425705 l -0.01163,-0.0496 0.0727,-0.0731 0.07271,-0.07308 0.01807,0.07723 c 0.156044,0.666367 0.14113,1.224532 -0.04246,1.589934 -0.08993,0.178998 -0.218115,0.309351 -0.382307,0.388773 -0.04092,0.01973 -0.104154,0.04447 -0.140527,0.05484 l -0.06612,0.0189 -1.843359,0.0018 c -1.734858,0.0015 -1.846279,9.33e-4 -1.892957,-0.01267 z m 0.296835,-0.166638 c 0.210035,-0.02407 0.343422,-0.122289 0.44451,-0.327359 0.02941,-0.05966 0.04834,-0.108246 0.0467,-0.119858 l -0.0027,-0.01953 -0.287976,-0.0042 -0.287976,-0.0042 -0.01994,-0.0232 c -0.03081,-0.03583 -0.02698,-0.07692 0.01288,-0.138575 0.11105,-0.171811 0.105359,-0.390254 -0.01288,-0.494348 -0.04593,-0.04044 -0.09828,-0.05467 -0.170253,-0.04632 -0.220589,0.02559 -0.347683,0.190984 -0.359729,0.468121 -0.0089,0.2054 0.03756,0.37613 0.142854,0.524615 0.06327,0.08922 0.164769,0.164458 0.248343,0.184088 0.04439,0.01039 0.158247,0.0108 0.246267,6.21e-4 z m 0.548872,-0.654954 c 0.03095,-0.03729 0.05451,-0.50065 0.02638,-0.518729 -0.0075,-0.0048 -0.104195,-0.0071 -0.23972,-0.006 l -0.22732,0.0023 0.0013,0.02482 c 7.15e-4,0.01371 0.01122,0.05233 0.02335,0.08598 0.03739,0.103842 0.03702,0.24159 -9.64e-4,0.358633 -0.02158,0.06647 -0.03018,0.06375 0.202347,0.06375 0.156397,0 0.207996,-0.0025 0.214615,-0.01059 z m -0.331376,-4.440925 c 0.10403,-0.03089 0.191711,-0.161154 0.220625,-0.32779 0.01849,-0.106232 0.04165,-0.09784 -0.270689,-0.09784 -0.196406,0 -0.269322,0.0027 -0.276626,0.01 -0.01558,0.01558 -0.01184,0.11182 0.0069,0.179144 0.03818,0.137826 0.09921,0.211218 0.197715,0.237782 0.05075,0.01371 0.07262,0.0135 0.122101,-0.0013 z m 3.481232,-0.0075 c 0.07609,-0.04805 0.150705,-0.159742 0.180327,-0.269966 0.01994,-0.07395 0.01973,-0.226075 -4.05e-4,-0.292421 -0.04468,-0.147756 -0.138221,-0.255103 -0.282344,-0.324049 -0.115621,-0.05532 -0.02142,-0.05228 -1.644734,-0.05268 -1.61611,-4.03e-4 -1.509968,-0.0039 -1.469079,0.04742 0.05116,0.0641 0.08795,0.143643 0.119651,0.258616 0.01371,0.04979 0.01724,0.08722 0.01766,0.190132 6.22e-4,0.155172 -0.016,0.232968 -0.07644,0.359667 -0.02177,0.04557 -0.03806,0.08745 -0.03619,0.09304 0.0027,0.0081 0.338324,0.01018 1.581712,0.01018 h 1.578318 l 0.03159,-0.01994 z m -2.461277,4.472152 c -0.05625,-0.03118 -0.05438,-0.126027 0.0029,-0.15218 0.01558,-0.0071 0.112526,-0.01 0.347668,-0.01 h 0.325996 l 0.02698,0.02412 c 0.02318,0.02077 0.02698,0.02958 0.02698,0.06267 0,0.03311 -0.0039,0.04198 -0.02698,0.06267 l -0.02698,0.02412 -0.328451,-2.51e-4 c -0.256738,-2.53e-4 -0.332764,-0.0027 -0.348206,-0.01122 z m 0.93317,-0.06793 c 0,-0.02125 0.06066,-0.136809 0.110137,-0.20985 0.05162,-0.07619 0.202222,-0.273734 0.32953,-0.432221 l 0.131387,-0.163564 0.0075,-0.08442 c 0.01142,-0.129954 0.06253,-0.344801 0.08201,-0.344801 0.0037,0 0.0089,0.02104 0.01163,0.04676 0.0079,0.07572 0.04055,0.0774 0.05046,0.0025 0.01869,-0.141317 0.09364,-0.327926 0.174033,-0.433701 0.0457,-0.06012 0.05484,-0.06481 0.04518,-0.02318 -0.01122,0.04817 -0.0091,0.113128 0.0042,0.131117 0.0162,0.02206 0.02231,0.01309 0.05359,-0.07902 0.05368,-0.158163 0.149438,-0.335186 0.252504,-0.466716 0.05004,-0.06388 0.194287,-0.214154 0.20002,-0.208408 0.0015,0.0015 -0.0066,0.02588 -0.01807,0.05407 -0.02478,0.06099 -0.0479,0.155878 -0.04184,0.171686 0.01039,0.02696 0.02989,0.0058 0.06911,-0.07489 0.07856,-0.16157 0.191732,-0.310776 0.358186,-0.472238 0.08664,-0.08403 0.239889,-0.210369 0.25519,-0.210369 0.0035,0 -0.0042,0.03068 -0.01703,0.0682 -0.01288,0.03751 -0.02595,0.084 -0.029,0.103323 -0.0046,0.02956 -0.0033,0.03513 0.0083,0.03513 0.0077,0 0.02015,-0.01142 0.02792,-0.02553 0.03588,-0.06502 0.127233,-0.198711 0.169214,-0.247631 0.09126,-0.106335 0.243383,-0.218487 0.392666,-0.289498 0.0376,-0.01787 0.07204,-0.03251 0.07657,-0.03251 0.0046,0 -0.0048,0.02595 -0.02081,0.05765 -0.02802,0.05567 -0.03737,0.0994 -0.02125,0.0994 0.0042,0 0.02426,-0.02142 0.04441,-0.04761 0.112422,-0.146115 0.259777,-0.243851 0.434405,-0.28815 0.110947,-0.02815 0.121375,-0.02655 0.07551,0.01143 -0.06325,0.05243 -0.07725,0.06847 -0.0679,0.07784 0.0058,0.0058 0.034,-0.0031 0.08988,-0.02869 0.07659,-0.03502 0.134399,-0.05536 0.157748,-0.05546 0.02607,-1.27e-4 -0.109784,0.178084 -0.202222,0.265302 -0.03155,0.02977 -0.0924,0.07754 -0.13521,0.10619 -0.08893,0.05949 -0.09967,0.08004 -0.04028,0.07713 0.02056,-9.64e-4 0.05359,-0.0075 0.07318,-0.01433 0.03307,-0.01163 0.03523,-0.01163 0.03024,0.0014 -0.02434,0.06344 -0.1898,0.247103 -0.292834,0.325075 -0.06234,0.04717 -0.192085,0.115434 -0.219409,0.115434 -0.01,0 -0.02509,0.005 -0.03349,0.01122 -0.03791,0.02771 0.02451,0.04317 0.123016,0.03043 0.03602,-0.0046 0.0666,-0.0073 0.06797,-0.006 0.0013,0.0014 -0.03413,0.0452 -0.0789,0.09738 -0.197839,0.230571 -0.386348,0.371522 -0.575334,0.430188 -0.10754,0.03338 -0.08394,0.06124 0.04655,0.05494 l 0.08095,-0.0039 -0.02655,0.03375 c -0.04481,0.05696 -0.221073,0.229181 -0.29525,0.288464 -0.153884,0.122995 -0.281567,0.197195 -0.413619,0.240406 -0.05046,0.01641 -0.08643,0.03272 -0.08643,0.03895 0,0.02412 0.0754,0.02854 0.190132,0.01122 l 0.03307,-0.005 -0.04134,0.03781 c -0.09663,0.08837 -0.241438,0.174366 -0.359579,0.213533 -0.05978,0.01973 -0.08446,0.02597 -0.196322,0.04882 -0.03934,0.0081 -0.05166,0.01392 -0.05166,0.0248 0,0.01828 0.01205,0.0215 0.107166,0.02854 l 0.07823,0.0058 -0.03278,0.0284 c -0.07848,0.06795 -0.225516,0.116285 -0.371679,0.122184 -0.05002,0.0023 -0.09333,0.0037 -0.09628,0.0039 -0.01039,3.1e-4 -0.288428,0.323935 -0.418548,0.486947 -0.06573,0.08234 -0.136643,0.174075 -0.150581,0.194785 -0.02549,0.03789 -0.08365,0.08724 -0.102783,0.08724 -0.0027,0 -0.0046,-0.0098 -0.0046,-0.0216 z m -0.897709,-0.651267 c -0.02015,-0.02015 -0.02811,-0.03556 -0.02811,-0.05415 0,-0.03529 0.0189,-0.06953 0.04524,-0.08147 0.0162,-0.0073 0.172933,-0.01 0.61645,-0.01 0.327128,0 0.594778,0.0023 0.594778,0.0046 0,0.0025 -0.02993,0.04161 -0.06654,0.08679 l -0.06654,0.08216 h -0.53359 -0.533589 z m -0.187016,-0.687405 c -0.02929,-0.01579 -0.03947,-0.03604 -0.03947,-0.07813 0,-0.02684 0.0052,-0.03949 0.02416,-0.05841 l 0.02416,-0.02416 h 0.844095 0.844095 l -0.03203,0.04753 c -0.01766,0.02615 -0.04229,0.06521 -0.05482,0.08679 l -0.02279,0.03926 -0.782436,-3.1e-4 c -0.674393,-2.78e-4 -0.785545,-0.0023 -0.804959,-0.01246 z M 77.155719,95.68408 c -0.05314,-0.0291 -0.06012,-0.100498 -0.01371,-0.139613 l 0.02516,-0.02117 1.08017,1.28e-4 c 0.844168,9e-5 1.084685,0.0025 1.100835,0.01039 0.01143,0.0056 0.02709,0.02339 0.03496,0.03943 0.01953,0.03972 0.0075,0.08517 -0.02846,0.10698 -0.02464,0.01496 -0.06346,0.01558 -1.10096,0.01579 -0.940646,3.11e-4 -1.078253,-0.0013 -1.098045,-0.01205 z m -0.285003,-0.695992 c -0.03016,-0.0052 -0.06022,-0.04819 -0.06022,-0.08604 0,-0.02553 0.0054,-0.03857 0.02416,-0.05723 l 0.02416,-0.02416 h 1.088183 c 0.730533,0 1.093409,0.0027 1.104086,0.0085 0.0087,0.0048 0.02152,0.01932 0.0284,0.03265 0.01953,0.03764 0.01558,0.07073 -0.01163,0.101288 l -0.02412,0.02698 -1.077347,5.92e-4 c -0.592541,3.11e-4 -1.08559,-8.4e-4 -1.095663,-0.0027 z m -0.314702,-0.709042 c -0.03247,-0.01392 -0.05499,-0.05956 -0.04709,-0.09547 0.0029,-0.01309 0.01641,-0.03311 0.03004,-0.0446 l 0.02482,-0.0209 h 1.085735 1.085734 l 0.02437,0.02056 c 0.04751,0.03997 0.03776,0.117511 -0.01766,0.140694 -0.04202,0.01766 -2.144914,0.01724 -2.185913,-2.19e-4 z"
       id="path828-0"
       inkscape:connector-curvature="0" />
  </g>
</svg>
