<?xml version="1.0" encoding="UTF-8" standalone="no"?>
<!-- Created with Inkscape (http://www.inkscape.org/) -->

<svg
   xmlns:dc="http://purl.org/dc/elements/1.1/"
   xmlns:cc="http://creativecommons.org/ns#"
   xmlns:rdf="http://www.w3.org/1999/02/22-rdf-syntax-ns#"
   xmlns:svg="http://www.w3.org/2000/svg"
   xmlns="http://www.w3.org/2000/svg"
   xmlns:sodipodi="http://sodipodi.sourceforge.net/DTD/sodipodi-0.dtd"
   xmlns:inkscape="http://www.inkscape.org/namespaces/inkscape"
   width="3.3532288mm"
   height="5.3414197mm"
   viewBox="0 0 3.3532289 5.3414196"
   version="1.1"
   id="svg5305"
   inkscape:version="0.92.4 (5da689c313, 2019-01-14)"
   sodipodi:docname="shadow-hold-L.svg">
  <defs
     id="defs5299" />
  <sodipodi:namedview
     id="base"
     pagecolor="#ffffff"
     bordercolor="#666666"
     borderopacity="1.0"
     inkscape:pageopacity="0.0"
     inkscape:pageshadow="2"
     inkscape:zoom="16"
     inkscape:cx="5.3259282"
     inkscape:cy="9.4987193"
     inkscape:document-units="mm"
     inkscape:current-layer="layer1"
     showgrid="false"
     inkscape:window-width="1920"
     inkscape:window-height="1001"
     inkscape:window-x="-9"
     inkscape:window-y="-9"
     inkscape:window-maximized="1" />
  <metadata
     id="metadata5302">
    <rdf:RDF>
      <cc:Work
         rdf:about="">
        <dc:format>image/svg+xml</dc:format>
        <dc:type
           rdf:resource="http://purl.org/dc/dcmitype/StillImage" />
        <dc:title />
      </cc:Work>
    </rdf:RDF>
  </metadata>
  <g
     inkscape:label="Layer 1"
     inkscape:groupmode="layer"
     id="layer1"
     transform="translate(-162.73258,-124.32918)">
    <g
       id="g823"
       transform="matrix(1.4,0,0,1.4,-65.763679,-50.799957)">
      <path
         inkscape:connector-curvature="0"
         id="path815"
         d="m 163.40813,127.38327 0.0277,-1.14551 -0.12009,-0.30486 v -0.57275 l 0.18401,-0.13801 0.0746,0.0826 0.009,0.009 h 0.49886 l 0.009,-0.009 0.0832,-0.12934 h 0.52656 l 0.0522,0.14788 0.51134,-0.009 0.009,-0.009 0.0739,-0.0739 0.13857,0.10162 z"
         style="fill:#ffffff;fill-opacity:1;stroke:none;stroke-width:0.26458332px;stroke-linecap:butt;stroke-linejoin:miter;stroke-opacity:1" />
      <g
         inkscape:export-ydpi="1200.02"
         inkscape:export-xdpi="1200.02"
         transform="matrix(2.2345811,0,0,2.2345811,60.300227,-931.41372)"
         id="g6844-7-8"
         style="fill:#000000;fill-opacity:1">
        <g
           transform="matrix(0.26458333,0,0,0.26458333,45.943501,474.51801)"
           id="use6842-9-8">
          <path
             id="path13769-2-4"
             d="M 4.46875,-6.0625 0.609375,-2.25 0.421875,-0.09375 C 0.40625,-0.0625 0.4375,-0.046875 0.453125,-0.046875 h 3.9375 c 0.03125,0 0.046875,-0.015625 0.046875,-0.046875 V -0.109375 L 4.03125,-4.5625 c 0.0625,-0.0625 0.4375,-0.5 0.4375,-0.53125 z M 2.046875,-6.359375 H 2.9375 v 0.015625 c 0,0.0625 0,0.125 0,0.203125 C 2.9375,-6.078125 3.015625,-6 3.0625,-6 h 0.828125 c 0.0625,0 0.140625,-0.078125 0.140625,-0.140625 0,-0.015625 0,-0.078125 0,-0.125 0.078125,0.046875 0.15625,0.125 0.234375,0.171875 L 0.75,-2.625 0.921875,-4.546875 C 0.9375,-4.65625 0.65625,-4.96875 0.59375,-5.078125 v -0.96875 C 0.734375,-6.15625 0.859375,-6.25 1,-6.34375 L 0.90625,-6.390625 c 0,0.015625 0,0.046875 0,0.0625 0,0.078125 0,0.15625 0,0.1875 C 0.90625,-6.078125 0.984375,-6 1.046875,-6 h 0.84375 C 1.9375,-6 1.96875,-6.015625 1.96875,-6.03125 2.0625,-6.109375 2.046875,-6.21875 2.046875,-6.328125 Z m -1.015625,0.21875 c 0,-0.046875 0,-0.109375 0,-0.1875 0,-0.046875 0,-0.1875 -0.09375,-0.125 C 0.875,-6.40625 0.46875,-6.15625 0.46875,-6.09375 v 1.046875 C 0.546875,-4.875 0.75,-4.703125 0.796875,-4.5625 l -0.1875,2.109375 c 0,0.078125 0.0625,0.109375 0.109375,0.046875 l 3.6875,-3.640625 C 4.421875,-6.078125 4.421875,-6.125 4.390625,-6.140625 4.28125,-6.234375 4.15625,-6.328125 4.03125,-6.421875 c -0.125,-0.09375 -0.125,0 -0.125,0.109375 0,0.0625 0,0.140625 0,0.171875 0,0 -0.015625,0.015625 -0.015625,0.015625 h -0.8125 C 3.0625,-6.125 3.0625,-6.140625 3.0625,-6.140625 c 0,-0.078125 0,-0.140625 0,-0.203125 C 3.0625,-6.40625 3.0625,-6.5 3,-6.5 l -1.015625,0.015625 c -0.078125,0 -0.078125,0.09375 -0.078125,0.15625 0,0.0625 0.015625,0.109375 0,0.171875 v 0.015625 c 0,0 -0.015625,0.015625 -0.015625,0.015625 h -0.84375 c 0,0 -0.015625,-0.015625 -0.015625,-0.015625 z m 0,0"
             style="stroke:none"
             inkscape:connector-curvature="0" />
        </g>
      </g>
    </g>
  </g>
</svg>
