<?xml version="1.0" encoding="UTF-8" standalone="no"?>
<!-- Created with Inkscape (http://www.inkscape.org/) -->

<svg
   xmlns:dc="http://purl.org/dc/elements/1.1/"
   xmlns:cc="http://creativecommons.org/ns#"
   xmlns:rdf="http://www.w3.org/1999/02/22-rdf-syntax-ns#"
   xmlns:svg="http://www.w3.org/2000/svg"
   xmlns="http://www.w3.org/2000/svg"
   xmlns:sodipodi="http://sodipodi.sourceforge.net/DTD/sodipodi-0.dtd"
   xmlns:inkscape="http://www.inkscape.org/namespaces/inkscape"
   width="10.661241mm"
   height="10.546148mm"
   viewBox="0 0 10.661241 10.546148"
   version="1.1"
   id="svg8"
   inkscape:version="0.92.4 (5da689c313, 2019-01-14)"
   sodipodi:docname="stage-point.svg">
  <defs
     id="defs2" />
  <sodipodi:namedview
     id="base"
     pagecolor="#ffffff"
     bordercolor="#666666"
     borderopacity="1.0"
     inkscape:pageopacity="0.0"
     inkscape:pageshadow="2"
     inkscape:zoom="5.6"
     inkscape:cx="-4.0331668"
     inkscape:cy="-2.3420835"
     inkscape:document-units="mm"
     inkscape:current-layer="layer1"
     showgrid="false"
     inkscape:window-width="1920"
     inkscape:window-height="1001"
     inkscape:window-x="-9"
     inkscape:window-y="-9"
     inkscape:window-maximized="1" />
  <metadata
     id="metadata5">
    <rdf:RDF>
      <cc:Work
         rdf:about="">
        <dc:format>image/svg+xml</dc:format>
        <dc:type
           rdf:resource="http://purl.org/dc/dcmitype/StillImage" />
        <dc:title />
      </cc:Work>
    </rdf:RDF>
  </metadata>
  <g
     inkscape:label="Layer 1"
     inkscape:groupmode="layer"
     id="layer1"
     transform="translate(-25.963951,-171.22793)">
    <g
       id="g826"
       transform="matrix(0.18200666,0,0,0.18200666,38.50568,151.27676)"
       style="fill:#000000">
      <path
         style="fill:#000000;stroke-width:0.26458332"
         d="m -42.861095,166.87707 c -0.447728,-0.37674 -0.814052,-0.92796 -0.814052,-1.22494 0,-0.29698 -0.258633,-1.48369 -0.574738,-2.63714 -0.59889,-2.1853 -1.525953,-3.39044 -2.608112,-3.39044 -0.512117,0 -1.077225,-0.19799 -3.232216,-1.13244 l -1.255692,-0.5445 -1.409506,0.97076 c -0.775227,0.53392 -1.486607,0.97076 -1.580844,0.97076 -0.09424,0 -0.71066,0.38015 -1.369835,0.84478 -1.538521,1.08445 -1.853836,0.96766 -4.62558,-1.71336 -1.548421,-1.49774 -2.128894,-2.24007 -2.128894,-2.72252 0,-0.69464 0.547318,-1.81981 1.856822,-3.81723 1.442636,-2.20049 1.45488,-2.25049 0.857016,-3.49994 -1.139059,-2.38048 -1.655504,-3.67578 -1.655504,-4.15219 0,-0.41429 -0.51764,-0.6147 -3.200338,-1.23905 -1.760186,-0.40966 -3.397296,-0.88878 -3.638021,-1.06472 -0.348165,-0.25447 -0.472282,-0.9872 -0.606846,-3.58252 -0.184601,-3.56037 0.0033,-4.18866 1.252888,-4.18866 0.33266,0 0.678421,-0.11906 0.768358,-0.26458 0.08994,-0.14553 0.625718,-0.26459 1.190625,-0.26459 0.564907,0 1.100688,-0.11906 1.190625,-0.26458 0.08994,-0.14552 0.460064,-0.26458 0.822504,-0.26458 1.390385,0 2.094946,-0.65391 2.617976,-2.42977 0.270726,-0.9192 0.691721,-1.96893 0.935544,-2.33273 0.930661,-1.38861 0.947662,-1.32314 -1.20443,-4.63838 -2.09768,-3.23142 -2.125375,-2.94931 0.558826,-5.69234 1.839753,-1.88008 2.473313,-2.36928 3.068407,-2.36928 0.651781,0 1.891603,0.66368 4.445965,2.37995 1.667,1.12005 1.64987,1.12006 4.047511,-0.004 1.236494,-0.57944 2.420533,-1.05353 2.631197,-1.05353 0.681538,0 1.261637,-0.94215 1.645759,-2.6729 0.693449,-3.1245 1.183679,-4.59791 1.641086,-4.93238 0.283443,-0.20726 1.334193,-0.33222 2.793516,-0.33222 3.552404,0 4.801923,0.72063 5.046469,2.91042 0.137263,1.22913 0.637937,3.28636 0.961099,3.94909 0.101166,0.20746 0.776423,0.5786 1.500569,0.82475 0.724146,0.24614 2.062623,0.81766 2.97439,1.27003 l 1.65776,0.8225 2.853367,-1.71339 c 1.569355,-0.94237 3.126082,-1.7134 3.459393,-1.7134 0.820322,0 5.300385,4.36669 5.300385,5.16625 0,0.31491 -0.238125,0.78807 -0.529167,1.05146 -0.291041,0.26339 -0.529166,0.58237 -0.529166,0.70884 0,0.12648 -0.394322,0.8032 -0.876269,1.50383 -1.660458,2.41388 -1.706644,2.72484 -0.725717,4.88611 1.768874,3.89737 1.646695,3.72492 2.792611,3.94152 4.204988,0.79479 5.49266,1.16615 5.879894,1.69573 0.40237,0.55027 0.475445,6.22388 0.08945,6.94512 -0.136601,0.25524 -0.761679,0.61267 -1.389062,0.79428 -0.627385,0.18162 -1.506342,0.44121 -1.953236,0.57687 -0.446895,0.13566 -1.195224,0.24666 -1.662954,0.24666 -1.293448,0 -2.070571,0.66562 -2.573065,2.2039 -0.245777,0.75238 -0.787974,1.87996 -1.204886,2.50572 -0.41691,0.62575 -0.758018,1.25584 -0.758018,1.40018 0,0.14434 0.362151,0.76345 0.804777,1.3758 1.520918,2.10408 3.163973,4.72704 3.163973,5.05093 0,0.64367 -4.976485,5.17811 -5.688542,5.18325 -0.291042,0.002 -0.886354,-0.23886 -1.322917,-0.53547 -1.798558,-1.22197 -4.354605,-2.63223 -4.770837,-2.63223 -0.244845,0 -1.176573,0.34174 -2.070502,0.75943 -0.893929,0.41768 -2.19547,0.92128 -2.892311,1.11911 -1.326428,0.37656 -1.310159,0.35201 -1.648236,2.48709 -0.253732,1.60242 -1.132882,4.13317 -1.624536,4.67643 -0.369049,0.4078 -0.859764,0.48294 -3.153868,0.48294 -2.536801,0 -2.770756,-0.0454 -3.530867,-0.68498 z m 6.308532,-4.41048 c 0.352163,-1.49036 0.750694,-2.96111 0.885629,-3.26833 0.256717,-0.58449 1.738622,-1.4246 2.517952,-1.42746 0.249725,-7.9e-4 1.406544,-0.47642 2.570711,-1.05667 1.164166,-0.58025 2.313588,-1.05575 2.554269,-1.05666 0.447061,-0.002 2.495526,1.09894 4.843785,2.60257 l 1.312638,0.8405 1.531633,-1.51565 c 0.842399,-0.83361 1.531633,-1.68565 1.531633,-1.89342 0,-0.20778 -0.446484,-1.02822 -0.992187,-1.82322 -2.023864,-2.94841 -2.437522,-3.64805 -2.442401,-4.13096 -0.0028,-0.27201 0.421614,-1.19683 0.943023,-2.05517 0.521409,-0.85833 1.146487,-2.2904 1.389062,-3.18237 0.628338,-2.31047 1.29825,-2.72394 5.468128,-3.37488 2.256515,-0.35226 2.248959,-0.34329 2.248959,-2.67067 v -2.06373 l -1.389063,-0.40598 c -0.763984,-0.22329 -1.865312,-0.47145 -2.447396,-0.55147 -2.495827,-0.34311 -3.029746,-0.63144 -3.613861,-1.95153 -0.302091,-0.68272 -1.0979,-2.40586 -1.768468,-3.82919 -1.024691,-2.175 -1.166637,-2.66045 -0.889685,-3.04271 0.18124,-0.25016 0.514086,-0.85796 0.739656,-1.35068 0.225571,-0.49271 0.87802,-1.51556 1.449888,-2.273 0.57187,-0.75743 1.033981,-1.54493 1.026916,-1.74998 -0.01132,-0.32864 -2.563169,-2.62902 -3.140987,-2.83146 -0.121471,-0.0426 -1.472235,0.64205 -3.001704,1.52135 -1.529466,0.8793 -3.037091,1.59873 -3.350278,1.59873 -0.313188,0 -1.056564,-0.26789 -1.651948,-0.59531 -0.595381,-0.32742 -1.45384,-0.79795 -1.907688,-1.04562 -0.453845,-0.24768 -1.038278,-0.45604 -1.298736,-0.46303 -0.260459,-0.007 -0.920433,-0.24068 -1.466607,-0.51932 -0.930222,-0.47456 -1.038749,-0.66287 -1.715444,-2.97656 -0.39732,-1.35847 -0.811435,-2.76761 -0.920258,-3.13141 -0.18713,-0.62558 -0.31373,-0.66559 -2.334327,-0.73764 -1.50823,-0.0538 -2.212496,0.024 -2.395024,0.26458 -0.275177,0.36268 -0.916297,3.42951 -1.038566,4.96805 -0.0807,1.01545 -0.800878,1.76781 -1.926648,2.01276 -0.381781,0.0831 -1.051336,0.31211 -1.487898,0.509 -3.573539,1.61159 -4.490657,1.97909 -4.939014,1.97909 -0.282689,0 -1.21529,-0.47625 -2.072445,-1.05834 -0.857154,-0.58208 -1.668004,-1.05833 -1.801884,-1.05833 -0.133881,0 -0.561244,-0.25 -0.949695,-0.55556 -0.452511,-0.35594 -0.91689,-0.50135 -1.292453,-0.40469 -0.741861,0.19092 -2.935449,2.72672 -2.728376,3.15401 0.185961,0.38372 1.770835,2.68361 2.530216,3.67171 0.962085,1.25187 0.964395,2.14744 0.0095,3.69928 -0.469768,0.76347 -1.025242,1.98959 -1.234387,2.72471 -0.635479,2.23364 -0.88923,2.70942 -1.628448,3.05336 -1.291923,0.60109 -2.007012,0.79934 -5.416267,1.50159 l -0.737795,0.15197 0.07634,2.14749 0.07634,2.14749 1.058333,0.2118 c 0.582084,0.11649 1.600626,0.31571 2.263428,0.44271 3.548212,0.67986 3.440297,0.58478 4.473744,3.94167 0.34053,1.10612 0.92716,2.31753 1.362231,2.81305 0.420277,0.47867 0.763762,1.09271 0.763301,1.36455 -4.5e-4,0.27183 -0.593397,1.44673 -1.317637,2.6109 -0.724239,1.16417 -1.520716,2.5055 -1.769947,2.98073 l -0.453149,0.86407 1.175473,1.20681 c 1.659865,1.70411 1.903211,1.79844 3.014949,1.16866 0.516258,-0.29245 1.374529,-0.77858 1.907273,-1.08029 0.532744,-0.30171 1.39382,-0.83749 1.913504,-1.19063 1.134184,-0.7707 1.701543,-0.80293 2.633279,-0.14962 0.386265,0.27084 1.178552,0.64241 1.760635,0.82572 0.582083,0.18329 1.171443,0.43794 1.309688,0.56589 0.138244,0.12794 0.51817,0.23262 0.84428,0.23262 0.326109,0 0.657008,0.10368 0.735327,0.23041 0.07832,0.12672 0.487032,0.29933 0.908249,0.38357 0.810932,0.16219 1.001776,0.46694 1.355277,2.16414 0.12124,0.58209 0.348094,1.41552 0.504119,1.85209 0.156025,0.43656 0.35142,1.24023 0.434213,1.78593 l 0.150535,0.99219 2.303113,-0.002 2.303116,-0.002 0.640292,-2.70975 z"
         id="path840"
         inkscape:connector-curvature="0"
         sodipodi:nodetypes="cscscccssssscsccsscscscsscsccsscsscccccsscsccccccssccscsccsccscscccccscccsscccccscccsccccccsscccccccccccscscccccscccccsccscsccccsccccsccsccccccc" />
      <path
         style="fill:#000000;stroke-width:0.26458332"
         d="m -42.692365,166.70215 c -0.459883,-0.43166 -0.796063,-1.2963 -1.222955,-3.14539 -0.712094,-3.08443 -1.024368,-3.43291 -4.039399,-4.50764 -3.566398,-1.27126 -3.473696,-1.27934 -6.33662,0.55249 -1.384313,0.88574 -2.755119,1.61044 -3.046238,1.61044 -0.517717,0 -5.129727,-4.44081 -5.116806,-4.92687 0.006,-0.22414 0.227822,-0.62703 2.478279,-4.50039 l 1.029251,-1.77148 -0.538789,-1.08136 c -0.783615,-1.57273 -1.618261,-3.64745 -1.70972,-4.24995 -0.08165,-0.53785 -1.075153,-0.87336 -5.183615,-1.75052 -0.9182,-0.19604 -1.766606,-0.47912 -1.885346,-0.62907 -0.35569,-0.4492 -0.515463,-6.71956 -0.177624,-6.97091 0.313917,-0.23356 1.907982,-0.71823 3.203258,-0.97393 3.545119,-0.69986 3.836786,-0.90023 4.478181,-3.07635 0.273457,-0.92778 0.717189,-2.00291 0.98607,-2.38918 0.785744,-1.12877 0.592478,-1.8541 -1.230917,-4.61963 -0.945886,-1.43462 -1.719792,-2.77338 -1.719792,-2.97504 0,-0.48164 4.135645,-4.71264 4.768099,-4.87803 0.546614,-0.14294 0.956852,0.0511 3.433984,1.62469 3.184372,2.0228 2.83314,1.94522 4.767803,1.05303 0.94297,-0.43485 1.921232,-0.9 2.17392,-1.03366 0.252687,-0.13366 0.632999,-0.24301 0.845142,-0.24301 0.887188,0 1.745076,-1.17772 2.120048,-2.91042 0.655794,-3.03034 1.135169,-4.55531 1.505768,-4.7901 0.591563,-0.37477 4.911855,-0.27736 5.893726,0.13289 1.053074,0.44001 1.254387,0.72511 1.50681,2.13399 0.330671,1.8456 1.057656,4.23116 1.381192,4.5323 0.170939,0.1591 1.075787,0.56005 2.010769,0.89099 0.934985,0.33095 2.214788,0.88914 2.844009,1.24043 l 1.144043,0.63871 3.061629,-1.85758 c 3.64086,-2.20902 3.382454,-2.24884 6.546535,1.00879 2.168581,2.2327 2.261743,2.52038 1.122429,3.46592 -0.226227,0.18775 -0.411322,0.44872 -0.411322,0.57993 0,0.13121 -0.394321,0.81181 -0.876268,1.51244 -1.644941,2.39132 -1.701623,2.73977 -0.773314,4.75382 0.447374,0.97062 0.952897,2.14311 1.123382,2.60553 0.411503,1.11617 0.970005,1.56187 2.245992,1.79236 3.525081,0.63676 5.195811,1.10044 5.458614,1.51492 0.122002,0.19243 0.223649,1.7506 0.225877,3.46261 l 0.004,3.11274 -0.859896,0.52429 c -0.472942,0.28836 -1.113245,0.52474 -1.422897,0.52528 -0.30965,5.3e-4 -0.990433,0.17958 -1.512856,0.39786 -0.52242,0.21828 -1.245732,0.39688 -1.607362,0.39688 -1.319387,0 -1.901058,0.50441 -2.392133,2.0744 -0.257614,0.82361 -0.811749,2.00946 -1.231413,2.63522 -0.419666,0.62575 -0.763026,1.25584 -0.763026,1.40018 0,0.14434 0.362151,0.76345 0.804778,1.3758 1.538181,2.12796 3.163974,4.72862 3.163974,5.06117 0,0.47216 -4.890309,4.91573 -5.40994,4.91573 -0.235757,0 -1.611284,-0.71438 -3.056726,-1.5875 -2.79081,-1.6858 -3.345853,-1.83448 -4.362247,-1.16851 -0.351703,0.23044 -1.627436,0.75713 -2.83496,1.17041 -2.445687,0.83705 -2.167893,0.44156 -3.012837,4.28939 -0.246663,1.12329 -0.667935,2.40321 -0.936162,2.84427 l -0.487683,0.80194 h -2.767261 c -2.505443,0 -2.827266,-0.0563 -3.401486,-0.59532 z m 5.787903,-1.98437 c 1.086729,-4.75808 1.354175,-5.48909 2.226406,-6.08542 0.478911,-0.32742 1.121031,-0.59606 1.426932,-0.59698 0.305903,-7.9e-4 1.508686,-0.47641 2.672853,-1.05666 1.164166,-0.58025 2.313588,-1.05575 2.554269,-1.05667 0.447085,-0.002 2.495529,1.09894 4.844126,2.60279 l 1.312977,0.84072 1.663586,-1.6488 c 0.914972,-0.90684 1.663584,-1.8079 1.663584,-2.00235 0,-0.19445 -0.510974,-1.09086 -1.135499,-1.99202 -0.624526,-0.90115 -1.44729,-2.17723 -1.828367,-2.83573 l -0.692864,-1.19727 0.761392,-1.31627 c 0.418764,-0.72395 0.927893,-1.61393 1.1314,-1.97774 0.203507,-0.3638 0.517028,-1.28695 0.696714,-2.05145 0.375161,-1.59617 1.121961,-2.28005 2.787015,-2.55221 0.582084,-0.0951 1.653646,-0.26503 2.38125,-0.37752 2.322632,-0.35908 2.514153,-0.57027 2.509491,-2.76719 -0.0021,-1.0499 -0.09362,-2.04976 -0.203088,-2.22191 -0.288836,-0.45419 -2.317298,-1.0677 -4.221518,-1.2768 -1.878655,-0.20628 -2.750087,-0.75502 -3.238465,-2.03926 -0.181732,-0.47787 -0.876967,-2.03746 -1.544971,-3.46574 -0.997612,-2.13303 -1.158362,-2.67652 -0.899967,-3.04271 0.173021,-0.24521 0.486129,-0.8262 0.695796,-1.29111 0.209666,-0.4649 0.866285,-1.48775 1.459156,-2.273 0.592867,-0.78524 1.077941,-1.56096 1.077941,-1.7238 0,-0.34817 -2.469046,-2.72664 -3.177638,-3.06107 -0.346667,-0.16361 -0.71578,-0.0679 -1.275625,0.33073 -0.433289,0.30853 -0.860869,0.56096 -0.950174,0.56096 -0.08931,0 -0.946298,0.47625 -1.904426,1.05834 -0.95813,0.58208 -2.042649,1.05833 -2.410045,1.05833 -0.367392,0 -1.530741,-0.47625 -2.585217,-1.05833 -1.054476,-0.58209 -2.152854,-1.05834 -2.440842,-1.05834 -0.287986,0 -0.912548,-0.26789 -1.387912,-0.59531 -0.690038,-0.47528 -0.990618,-0.99541 -1.490795,-2.57969 -0.344569,-1.0914 -0.628086,-2.22577 -0.630033,-2.52081 -0.0019,-0.29505 -0.188889,-0.80106 -0.41542,-1.12448 -0.365435,-0.52173 -0.641406,-0.58758 -2.447396,-0.58399 -1.119537,0.002 -2.184273,0.0985 -2.366084,0.21395 -0.181811,0.11545 -0.513996,1.21495 -0.73819,2.44335 -0.826932,4.53087 -0.327787,3.88352 -4.222912,5.47681 -1.891771,0.77382 -3.692091,1.51269 -4.000712,1.64193 -0.447444,0.18738 -0.914791,-0.002 -2.306796,-0.93609 -0.960117,-0.6441 -1.819923,-1.17108 -1.91068,-1.17108 -0.09076,0 -0.467741,-0.23813 -0.83774,-0.52917 -0.37,-0.29104 -0.899895,-0.52917 -1.177547,-0.52917 -0.583158,0 -3.034288,2.1984 -3.26635,2.92956 -0.104558,0.32943 0.199394,0.964 0.917027,1.9145 0.590383,0.78195 1.073423,1.51279 1.073423,1.62408 0,0.11129 0.297656,0.55609 0.661458,0.98845 0.867142,1.03054 0.834422,1.77936 -0.147477,3.37515 -0.444914,0.72308 -1.038503,2.12385 -1.319087,3.11283 -0.673553,2.37408 -1.254494,2.81766 -4.618853,3.52672 -0.582083,0.12267 -1.475052,0.32425 -1.984375,0.44794 l -0.926041,0.2249 -0.07773,2.06552 c -0.08686,2.30811 0.08866,2.68619 1.343769,2.89465 3.276918,0.54426 5.211791,1.05878 5.555155,1.47722 0.190282,0.23188 0.669022,1.4435 1.063868,2.69247 0.443869,1.40405 0.969623,2.50735 1.377355,2.89039 0.3627,0.34074 0.659455,0.84547 0.659455,1.12161 0,0.54864 -0.86333,2.14098 -2.431338,4.48439 -0.554535,0.82876 -1.008245,1.65845 -1.008245,1.84376 0,0.52452 2.701712,3.13169 3.245247,3.13169 0.571977,0 1.495499,-0.45823 4.078427,-2.02365 1.044845,-0.63324 2.04501,-1.15135 2.222588,-1.15135 0.177578,0 0.93005,0.29556 1.672159,0.65679 0.742108,0.36123 2.301787,0.99612 3.465954,1.41087 2.236994,0.79696 2.749405,1.32286 2.947612,3.02518 0.04789,0.41128 0.207936,0.97363 0.355663,1.24966 0.14773,0.27604 0.2686,0.79962 0.2686,1.16351 0,0.3639 0.116115,0.96704 0.258035,1.34031 0.250619,0.65918 0.326509,0.67868 2.640793,0.67868 2.382695,0 2.382761,-1e-5 2.54894,-0.7276 z"
         id="path838"
         inkscape:connector-curvature="0"
         sodipodi:nodetypes="ccccscccscccccscssccccsscccccccsscscscsccccccsccscsscccsccscccccscccsscccccsccccccscccsccscscscscccsccccscsccsccscccsscccsssscsssccscscc" />
      <path
         style="fill:#000000;stroke-width:0.26458332"
         d="m -42.415013,166.88331 c -0.420283,-0.22804 -0.785508,-0.69553 -0.870215,-1.11389 -0.73506,-3.63022 -1.219043,-4.98115 -2.035579,-5.68185 -0.466342,-0.40018 -1.062366,-0.7276 -1.324497,-0.7276 -0.262133,0 -0.68335,-0.10508 -0.936037,-0.23351 -0.950447,-0.48307 -3.396189,-1.35399 -3.802301,-1.35399 -0.232225,0 -0.706173,0.22085 -1.053219,0.49078 -1.305375,1.0153 -4.276663,2.68422 -4.778908,2.68422 -0.724558,0 -4.976657,-3.95838 -4.973775,-4.63021 0.0012,-0.29104 0.288188,-1.00542 0.637646,-1.5875 2.577954,-4.29404 2.857339,-4.97248 2.293546,-5.56948 -0.313404,-0.33186 -1.879295,-4.29092 -1.879295,-4.75143 0,-0.36887 -0.0869,-0.40512 -2.116667,-0.88308 -0.654844,-0.1542 -1.955983,-0.46199 -2.891421,-0.68398 -0.935437,-0.22199 -1.828406,-0.53075 -1.984375,-0.68612 -0.283263,-0.28219 -0.667379,-5.6287 -0.452852,-6.30325 0.133768,-0.42061 2.219718,-1.36328 3.016694,-1.36328 0.305026,0 0.920233,-0.11494 1.367128,-0.25541 0.446894,-0.14047 1.110191,-0.3139 1.473993,-0.38539 1.142099,-0.22442 1.574265,-0.75991 2.099447,-2.60141 0.280302,-0.98284 0.756032,-2.10023 1.057179,-2.48307 0.728717,-0.92642 0.691267,-1.43899 -0.204154,-2.79427 -2.291225,-3.46793 -2.687889,-4.14833 -2.687889,-4.61056 0,-0.63448 4.206808,-4.86156 4.838243,-4.86156 0.253861,0 1.084811,0.39979 1.846556,0.88842 3.54897,2.27651 4.00477,2.55116 4.233881,2.55116 0.134541,0 1.096394,-0.40077 2.13745,-0.89059 1.041056,-0.48983 2.343531,-1.03624 2.894388,-1.21424 1.158473,-0.37435 1.664018,-1.03958 1.919153,-2.52538 0.297828,-1.73441 1.154811,-4.71052 1.437941,-4.99365 0.350885,-0.35088 3.128614,-0.53807 4.634225,-0.31229 1.692966,0.25388 2.552317,1.07611 2.803499,2.68242 0.223586,1.42983 0.733935,3.4762 1.009144,4.0464 0.09677,0.2005 0.990452,0.65751 1.985963,1.01559 0.995508,0.35807 2.324309,0.93816 2.952893,1.2891 0.628581,0.35093 1.253712,0.63806 1.389181,0.63806 0.257509,0 3.891958,-2.08451 5.13125,-2.94298 0.39429,-0.27313 0.899441,-0.4966 1.122559,-0.4966 0.477014,0 4.665538,3.7739 5.014193,4.51784 0.174268,0.37184 0.10497,0.65826 -0.255675,1.05677 -0.577993,0.63867 -1.359234,1.89904 -2.478995,3.99933 l -0.801934,1.50416 0.936316,2.06772 c 1.873004,4.13627 1.665295,3.87453 3.356835,4.23001 0.838623,0.17624 2.266833,0.4762 3.173799,0.66657 2.476134,0.51975 2.572311,0.68511 2.464665,4.2376 -0.04979,1.64324 -0.104312,3.05789 -0.121156,3.14367 -0.08916,0.45413 -2.582505,1.22711 -4.793123,1.48596 -1.662369,0.19465 -2.443162,0.83446 -2.884844,2.36396 -0.204219,0.70718 -0.782815,1.91308 -1.28577,2.67977 -0.867743,1.32277 -0.892677,1.42416 -0.487979,1.98438 0.234567,0.32471 1.214983,1.75898 2.178699,3.18726 l 1.752211,2.59687 -0.760638,0.84016 c -0.418351,0.46208 -0.904076,0.9335 -1.079388,1.04759 -0.175313,0.11408 -0.879647,0.79984 -1.565188,1.5239 -1.543698,1.63044 -2.30491,1.70755 -4.207553,0.42624 -0.727061,-0.48963 -1.926188,-1.2062 -2.66473,-1.59237 l -1.3428,-0.70214 -1.961949,0.88782 c -1.079068,0.4883 -2.527742,1.05235 -3.219272,1.25343 -1.320658,0.38401 -1.375397,0.46204 -1.660211,2.36641 -0.305128,2.04022 -1.199131,4.47886 -1.794933,4.89617 -0.771104,0.54011 -4.795412,0.52716 -5.801355,-0.0187 z m 5.278096,-1.50407 c 0.139163,-0.1819 0.51988,-1.40229 0.846037,-2.71198 0.326158,-1.30969 0.709743,-2.68978 0.852414,-3.06686 0.258598,-0.6835 1.69205,-1.56185 2.554068,-1.56502 0.249724,-7.9e-4 1.406543,-0.47641 2.57071,-1.05666 1.164167,-0.58025 2.225217,-1.05575 2.357893,-1.05667 0.132672,-7.9e-4 1.530032,0.77224 3.105242,1.71813 1.575213,0.94588 2.965837,1.71979 3.090276,1.71979 0.425018,0 3.538482,-3.44809 3.411725,-3.77842 -0.06953,-0.18118 -0.914892,-1.5087 -1.878587,-2.95004 -0.963697,-1.44134 -1.752174,-2.74257 -1.752174,-2.89163 0,-0.14905 0.469363,-1.06106 1.04303,-2.02669 0.573664,-0.96562 1.185402,-2.34176 1.359413,-3.05809 0.479264,-1.97292 0.935496,-2.32148 3.747487,-2.86307 4.082942,-0.78637 3.904237,-0.63906 3.904237,-3.21834 0,-1.47159 -0.109627,-2.27148 -0.330729,-2.41315 -0.614455,-0.39371 -2.178481,-0.86966 -2.870936,-0.87367 -0.378465,-0.002 -1.033309,-0.1132 -1.455208,-0.24669 -0.421897,-0.13349 -1.097523,-0.31511 -1.501394,-0.4036 -0.557784,-0.12221 -0.866939,-0.4614 -1.286015,-1.41094 -0.303438,-0.68753 -1.077198,-2.35873 -1.719467,-3.71379 l -1.167762,-2.46373 0.535548,-0.75211 c 0.294551,-0.41366 0.535546,-0.8593 0.535546,-0.99032 0,-0.13102 0.535782,-0.99909 1.190625,-1.92905 0.654844,-0.92996 1.190625,-1.89118 1.190625,-2.13603 0,-0.24485 -0.769186,-1.12049 -1.709301,-1.94587 l -1.709298,-1.50068 -2.193306,1.24715 c -1.206317,0.68593 -2.371897,1.39695 -2.590178,1.58004 -0.928354,0.77872 -1.698379,0.69632 -3.775123,-0.40398 -1.114872,-0.59068 -2.214576,-1.07397 -2.44379,-1.07397 -0.229213,0 -0.863623,-0.22797 -1.409797,-0.50661 -0.930223,-0.47457 -1.038749,-0.66288 -1.715445,-2.97656 -0.39732,-1.35848 -0.811482,-2.76761 -0.920364,-3.13141 -0.189912,-0.63455 -0.295648,-0.66453 -2.599444,-0.737 -1.719389,-0.0541 -2.47591,0.0211 -2.663531,0.26458 -0.238887,0.31006 -1.034542,3.9327 -1.203487,5.47951 -0.07256,0.66433 -1.260303,1.55235 -2.124173,1.58815 -0.256635,0.0106 -0.673354,0.13382 -0.926041,0.27374 -0.949042,0.52551 -4.645872,2.12685 -4.910016,2.12685 -0.250129,0 -2.683606,-1.46172 -4.468389,-2.68403 -1.19348,-0.81736 -1.809407,-0.6285 -3.490437,1.07025 -1.679975,1.69769 -1.672525,1.59472 -0.243149,3.36082 0.483231,0.59707 0.878602,1.21302 0.878602,1.36877 0,0.15574 0.305527,0.64627 0.67895,1.09006 0.882106,1.04832 0.886638,2.03049 0.01528,3.31291 -0.387338,0.57007 -1.001252,2.0102 -1.364253,3.2003 -0.543634,1.78229 -0.787662,2.22317 -1.384055,2.50055 -0.975288,0.45358 -2.095248,0.812 -3.369887,1.07846 -0.582083,0.12169 -1.475052,0.32349 -1.984375,0.44844 l -0.926042,0.2272 0.09589,2.23657 c 0.05274,1.23012 0.149061,2.32587 0.214052,2.43501 0.06499,0.10914 0.370577,0.19844 0.679079,0.19844 0.308502,0 0.926553,0.11426 1.373448,0.25391 0.446894,0.13965 1.577308,0.40691 2.512031,0.59392 0.934723,0.187 1.850877,0.49138 2.035898,0.6764 0.18502,0.18502 0.65503,1.35876 1.044466,2.60831 0.445586,1.42971 1.0058,2.61101 1.511235,3.18666 0.791405,0.90136 0.796774,0.92713 0.366523,1.75872 -0.240156,0.46418 -0.58621,1.07939 -0.769008,1.36713 -2.067568,3.25459 -2.581318,4.11383 -2.581318,4.31726 0,0.39849 3.106852,3.22936 3.544186,3.22936 0.450206,0 1.61347,-0.61784 3.816025,-2.0268 2.209872,-1.41364 2.465909,-1.46542 3.788252,-0.76609 0.635066,0.33586 2.259041,1.00873 3.60884,1.49527 2.419646,0.87217 2.458021,0.89962 2.727425,1.95101 0.150289,0.58652 0.398976,1.42359 0.552641,1.86015 0.153665,0.43656 0.331761,1.15094 0.395772,1.5875 0.303352,2.06896 0.168534,1.95391 2.405054,2.05233 1.126546,0.0496 2.182514,0.1141 2.346598,0.14338 0.164081,0.0293 0.412192,-0.0956 0.551354,-0.27748 z"
         id="path836"
         inkscape:connector-curvature="0"
         sodipodi:nodetypes="cccscscscccsssccsscccssscscccccscccscsccccsccccccccsccccsccsccccccsccsccscsscscscccccccssssccccssscccccccscccscccccccscssccscccssscscsccccc" />
      <path
         style="fill:#000000;stroke-width:0.26458332"
         d="m -42.460759,166.6861 c -0.297876,-0.21781 -0.75051,-1.4232 -1.217073,-3.24114 -0.86637,-3.37577 -0.961493,-3.47981 -4.254072,-4.65276 -3.351204,-1.19384 -3.70382,-1.21131 -5.097301,-0.25257 -0.65578,0.45118 -1.268484,0.82034 -1.361567,0.82034 -0.09308,0 -0.704363,0.36817 -1.3584,0.81816 -0.796088,0.54772 -1.380317,0.76958 -1.767464,0.67118 -0.318066,-0.0808 -1.530803,-1.1075 -2.694969,-2.28147 l -2.116667,-2.13449 0.682878,-1.24867 c 0.375583,-0.68677 1.198269,-2.127 1.828192,-3.20052 l 1.145314,-1.95185 -0.539889,-1.09086 c -1.064359,-2.15056 -1.661287,-3.62672 -1.661287,-4.10825 0,-0.71725 -0.450757,-0.98081 -2.513541,-1.46969 -1.018646,-0.24142 -2.422841,-0.57482 -3.120433,-0.7409 -0.697592,-0.16607 -1.369699,-0.42693 -1.493571,-0.57969 -0.123872,-0.15276 -0.26749,-1.64515 -0.319151,-3.31642 l -0.09393,-3.03867 0.79375,-0.38409 c 0.436563,-0.21126 1.27,-0.47445 1.852083,-0.58489 4.264747,-0.8091 4.511022,-0.96308 5.190777,-3.24557 0.306475,-1.02909 0.781973,-2.15678 1.056663,-2.50599 0.771567,-0.98089 0.615576,-1.9597 -0.605031,-3.79641 -2.106542,-3.16983 -2.335117,-3.54388 -2.335117,-3.8213 0,-0.36873 4.287532,-4.85723 4.63701,-4.85435 0.149261,10e-4 1.339886,0.65325 2.645832,1.44893 4.051231,2.46831 3.472095,2.31692 5.422461,1.41749 0.94297,-0.43486 1.921232,-0.90001 2.17392,-1.03367 0.252687,-0.13365 0.681786,-0.24301 0.953553,-0.24301 0.934757,0 1.82296,-1.15709 2.154782,-2.8071 0.45624,-2.2687 1.084355,-4.41669 1.410132,-4.82228 0.212394,-0.26444 0.964753,-0.33101 2.990122,-0.26459 2.43491,0.0799 2.774723,0.15309 3.388418,0.73019 0.413457,0.38881 0.682104,0.92911 0.682104,1.37184 0,0.40173 0.135454,1.06558 0.301006,1.47524 0.165553,0.40965 0.441598,1.34014 0.613429,2.06774 0.308189,1.30499 0.333697,1.33029 1.881806,1.86694 0.863161,0.29922 2.318457,0.92499 3.233989,1.39061 l 1.664605,0.84659 3.050411,-1.85078 c 3.617198,-2.19466 3.39099,-2.22636 6.416794,0.89927 1.895348,1.95788 1.936798,2.02894 1.519528,2.60508 -1.197342,1.65321 -2.465321,3.68642 -2.96954,4.76168 -0.46546,0.99259 -0.464817,0.99759 0.356293,2.77812 0.452424,0.98106 0.960771,2.15893 1.12966,2.6175 0.423645,1.1503 1.262991,1.83979 2.513478,2.06474 1.069488,0.19239 2.51478,0.49354 3.96875,0.82696 1.400323,0.3211 1.455209,0.46596 1.455209,3.84077 v 3.13581 l -0.780611,0.40367 c -0.429337,0.22201 -1.010108,0.40366 -1.290606,0.40366 -0.280495,0 -0.937427,0.1786 -1.459849,0.39688 -0.52242,0.21828 -1.340633,0.39952 -1.818249,0.40276 -1.197768,0.008 -1.919385,0.68159 -2.433158,2.27085 -0.24016,0.74289 -0.790007,1.90788 -1.221883,2.58888 -0.431874,0.681 -0.785228,1.35811 -0.785228,1.5047 0,0.14658 0.362151,0.76752 0.804778,1.37987 1.504286,2.08107 3.163972,4.72554 3.163972,5.04133 0,0.4887 -4.663411,4.6712 -5.206122,4.66924 -0.265332,-0.001 -0.839607,-0.24442 -1.27617,-0.54103 -1.959351,-1.33122 -4.373385,-2.63223 -4.884118,-2.63223 -0.307152,0 -0.846215,0.18855 -1.19792,0.419 -0.351703,0.23044 -1.605206,0.74994 -2.78556,1.15445 -1.180356,0.4045 -2.257187,0.84655 -2.392958,0.98232 -0.135773,0.13577 -0.374867,0.95572 -0.531323,1.82211 -0.426743,2.36312 -1.029639,4.3048 -1.474909,4.75007 -0.527058,0.52706 -5.317321,0.56703 -6.024033,0.0503 z m 5.610884,-1.43915 c 0.126119,-0.25466 0.51726,-1.70307 0.869203,-3.21869 0.572188,-2.46407 0.723893,-2.80693 1.433651,-3.24015 0.436562,-0.26648 1.004054,-0.48494 1.261094,-0.48549 0.257037,-5.3e-4 1.574096,-0.51817 2.926792,-1.15029 l 2.45945,-1.14931 1.703414,0.97348 c 0.936879,0.53541 2.29439,1.35159 3.016689,1.81374 l 1.313273,0.84027 1.795581,-1.78182 c 0.987571,-0.98 1.795582,-1.96955 1.795582,-2.199 0,-0.22945 -0.510982,-1.12561 -1.135515,-1.99147 -0.624533,-0.86586 -1.447297,-2.11306 -1.828366,-2.77156 l -0.692849,-1.19727 0.761392,-1.31627 c 0.418764,-0.72395 0.927894,-1.61393 1.131401,-1.97774 0.203506,-0.3638 0.515244,-1.27952 0.69275,-2.03493 0.451112,-1.91979 0.681387,-2.04479 4.93385,-2.67804 0.742016,-0.1105 1.66475,-0.40772 2.050521,-0.66048 0.648911,-0.42519 0.7014,-0.59902 0.7014,-2.32295 0,-1.02486 -0.118669,-2.08512 -0.263708,-2.35613 -0.292129,-0.54584 -2.244217,-1.17884 -4.498793,-1.45879 -1.798814,-0.22337 -2.468538,-0.63065 -2.899849,-1.76349 -0.184354,-0.48422 -0.88174,-2.04899 -1.549744,-3.47727 -0.997611,-2.13303 -1.158362,-2.67652 -0.899967,-3.04271 0.173022,-0.24521 0.48613,-0.8262 0.695796,-1.29111 0.209667,-0.4649 0.866286,-1.48775 1.459156,-2.273 0.592868,-0.78524 1.077942,-1.58068 1.077942,-1.76763 0,-0.43272 -3.1876,-3.42112 -3.665829,-3.43675 -0.197194,-0.006 -1.553057,0.70266 -3.013027,1.57579 -1.459971,0.87312 -2.94135,1.5875 -3.291949,1.5875 -0.350599,0 -1.505207,-0.47625 -2.565792,-1.05834 -1.060587,-0.58208 -2.156306,-1.05878 -2.434934,-1.05932 -0.278627,-5.6e-4 -0.863872,-0.21887 -1.300543,-0.48517 -0.644575,-0.39309 -0.90591,-0.86475 -1.389063,-2.50698 -0.327313,-1.11253 -0.595114,-2.24737 -0.595114,-2.52185 0,-0.27449 -0.246766,-0.81278 -0.54837,-1.1962 -0.507987,-0.6458 -0.699108,-0.69714 -2.595264,-0.69714 -1.225817,0 -2.223875,0.13266 -2.488099,0.33073 -0.443629,0.33254 -1.247434,3.52146 -1.247434,4.94892 0,1.14481 -0.694301,1.70005 -3.571875,2.85643 -1.455208,0.58479 -3.073291,1.24924 -3.59574,1.47655 l -0.949907,0.4133 -1.753765,-1.17651 c -0.96457,-0.64708 -1.828019,-1.17651 -1.918776,-1.17651 -0.09076,0 -0.467741,-0.23812 -0.83774,-0.52916 -0.37,-0.29105 -0.928288,-0.52917 -1.24064,-0.52917 -0.611565,0 -3.594057,2.8152 -3.594057,3.39246 0,0.18393 0.47625,0.9652 1.058333,1.73616 0.582084,0.77097 1.058334,1.49281 1.058334,1.6041 0,0.11129 0.297656,0.55609 0.661458,0.98845 0.863722,1.02647 0.834422,1.75501 -0.133183,3.31156 -0.437053,0.70307 -1.031846,2.10997 -1.321763,3.12644 -0.289917,1.01646 -0.7305,1.99805 -0.979074,2.1813 -0.495538,0.36531 -1.747563,0.78415 -3.386814,1.13297 -2.219096,0.47221 -2.655607,0.59697 -2.976562,0.85071 -0.382064,0.30206 -0.458616,4.08308 -0.09431,4.65809 0.232876,0.36756 1.328665,0.66474 4.09444,1.11042 2.552226,0.41127 2.771803,0.608 3.608831,3.23333 0.407328,1.27758 1.049719,2.72815 1.427536,3.22349 0.825786,1.08266 0.850661,1.45018 0.157773,2.33105 -0.291042,0.37 -0.529167,0.74726 -0.529167,0.83836 0,0.0911 -0.593595,1.08288 -1.319099,2.20395 l -1.3191,2.03833 1.642185,1.65691 c 1.0432,1.05256 1.858714,1.65692 2.235821,1.65692 0.326499,0 1.783034,-0.71438 3.236742,-1.5875 1.453711,-0.87313 2.831312,-1.5875 3.061341,-1.5875 0.230026,0 0.731205,0.20507 1.113729,0.45571 0.671713,0.44012 1.989079,0.96489 4.659003,1.85588 1.028134,0.3431 1.345917,0.60123 1.65712,1.34604 0.21177,0.50684 0.330303,0.97627 0.263406,1.04316 -0.0669,0.0669 0.04025,0.55464 0.238109,1.08386 0.197855,0.52922 0.42386,1.41933 0.502229,1.97802 0.227772,1.62376 0.471641,1.76233 3.101602,1.76233 1.964394,0 2.376313,-0.0743 2.568852,-0.46302 z"
         id="path834"
         inkscape:connector-curvature="0"
         sodipodi:nodetypes="csccsccscssccsscssccccccscsscsccccscsccccsccccscsccsccscscsccscccscccccccscccccssccccsccscccccccsccscccsscscssccsscsscscscccccssccscccscsccccccsc" />
      <path
         style="fill:#000000;stroke-width:0.26458332"
         d="m -42.44884,166.48451 c -0.383426,-0.3016 -0.69714,-0.79951 -0.69714,-1.10646 0,-0.30695 -0.250857,-1.48778 -0.557459,-2.62406 -0.44573,-1.6519 -0.739235,-2.22557 -1.464415,-2.86229 -0.498825,-0.43797 -1.128602,-0.79632 -1.399501,-0.79632 -0.270901,0 -1.368086,-0.35678 -2.438191,-0.79284 -1.070102,-0.43606 -2.125826,-0.79325 -2.34605,-0.79375 -0.220223,-5.3e-4 -1.019199,0.41581 -1.775499,0.92514 -0.756301,0.50932 -1.447266,0.92604 -1.535475,0.92604 -0.08821,0 -0.539393,0.28005 -1.002626,0.62233 -1.539606,1.13761 -1.637552,1.11347 -3.83487,-0.94513 -1.118951,-1.04832 -2.144595,-2.12485 -2.27921,-2.3923 -0.267269,-0.53101 0.107421,-1.37511 1.965837,-4.42865 1.195975,-1.96509 1.247255,-2.30218 0.555526,-3.65175 -0.951528,-1.85643 -1.615151,-3.50771 -1.615151,-4.01894 0,-0.62762 -0.465819,-0.87242 -2.513541,-1.32092 -2.722246,-0.59625 -4.439398,-1.04818 -4.604113,-1.21175 -0.190875,-0.18954 -0.486657,-5.65941 -0.33245,-6.14796 0.05973,-0.18921 0.453221,-0.41295 0.874436,-0.49719 0.421216,-0.0842 0.829927,-0.25686 0.908247,-0.38358 0.07832,-0.12673 0.454343,-0.23041 0.835605,-0.23041 0.381263,0 1.058845,-0.11493 1.50574,-0.25541 0.446894,-0.14047 1.124901,-0.31755 1.506682,-0.39352 1.191716,-0.23711 1.802785,-0.98533 2.334016,-2.85786 0.278831,-0.98284 0.753358,-2.10023 1.054505,-2.48307 0.301147,-0.38285 0.54754,-0.91273 0.54754,-1.17751 0,-0.26477 -0.773906,-1.674 -1.719792,-3.13161 -0.945885,-1.4576 -1.719791,-2.86481 -1.719791,-3.12713 0,-0.61046 3.962395,-4.56556 4.573986,-4.56556 0.253681,0 1.084484,0.39979 1.846229,0.88842 0.761746,0.48863 1.970953,1.26253 2.687124,1.71979 0.716174,0.45726 1.432322,0.83138 1.59144,0.83138 0.15912,0 1.001911,-0.34748 1.872869,-0.77217 0.870958,-0.42469 2.096108,-0.9307 2.722557,-1.12448 1.559555,-0.4824 2.112624,-1.16434 2.556635,-3.15235 1.119774,-5.01367 1.113157,-5.00517 3.8945,-5.00517 3.193632,0 4.44841,0.7323 4.44841,2.59613 0,0.42835 0.178594,1.20626 0.396875,1.72868 0.218281,0.52242 0.396875,1.23289 0.396875,1.57881 0,0.84109 0.59536,1.29929 2.626011,2.02104 0.934985,0.33232 2.208054,0.88787 2.829044,1.23457 0.620988,0.34669 1.256612,0.63035 1.412494,0.63035 0.155882,0 1.572229,-0.7739 3.147441,-1.71979 1.57521,-0.94588 3.016883,-1.71979 3.203718,-1.71979 0.400053,0 4.772959,4.20543 4.772959,4.59016 0,0.14463 -0.204351,0.48877 -0.454115,0.76475 -0.541218,0.59804 -1.342009,1.89772 -2.446811,3.97117 l -0.810374,1.52088 0.891345,1.78641 c 0.490238,0.98253 0.965507,2.0945 1.05615,2.47104 0.346213,1.43817 1.074008,1.98036 3.136218,2.33638 1.064183,0.18372 2.208371,0.44236 2.54264,0.57475 0.33427,0.13239 0.831782,0.24071 1.10558,0.24071 1.10022,0 1.309929,0.63014 1.247416,3.74828 -0.05464,2.72544 -0.102513,2.96869 -0.656715,3.33667 -0.635926,0.42224 -1.98524,0.77034 -4.18233,1.07899 -1.547579,0.2174 -2.750105,0.90054 -2.755905,1.56559 -0.0057,0.65143 -0.644509,2.40188 -1.00993,2.7673 -0.169953,0.16995 -0.309002,0.40907 -0.309002,0.53138 0,0.12231 -0.260517,0.57475 -0.578924,1.00542 l -0.578924,0.78303 0.629917,0.85201 c 0.346456,0.46861 1.335561,1.91762 2.19801,3.22002 l 1.56809,2.36801 -2.34669,2.19172 c -1.351182,1.26195 -2.582365,2.1969 -2.902244,2.20393 -0.305556,0.007 -1.641795,-0.64261 -2.969421,-1.44298 -2.568096,-1.54818 -3.557556,-1.76756 -4.673727,-1.03621 -0.351703,0.23044 -1.615583,0.7535 -2.808624,1.16235 -1.19304,0.40885 -2.255501,0.90492 -2.361022,1.10237 -0.105522,0.19744 -0.272418,0.9543 -0.370883,1.68191 -0.272756,2.01554 -1.194244,4.6033 -1.743974,4.89751 -0.269113,0.14403 -1.493097,0.26186 -2.719967,0.26186 -1.856079,0 -2.347741,-0.0921 -2.927811,-0.54837 z m 5.563592,-0.84069 c 0.174543,-0.27948 0.700326,-2.2137 1.5126,-5.56446 0.189978,-0.7837 1.525632,-1.77505 2.393804,-1.77674 0.280413,-5.3e-4 1.515896,-0.48794 2.745518,-1.08312 l 2.235676,-1.08212 1.355522,0.73586 c 0.745537,0.40472 2.058593,1.18934 2.917899,1.74358 0.859306,0.55425 1.702975,1.00773 1.874819,1.00773 0.171847,0 1.106392,-0.82238 2.07677,-1.82752 1.998435,-2.07002 1.990299,-1.95519 0.31106,-4.39019 -0.602128,-0.87312 -1.369264,-2.07915 -1.704745,-2.68005 l -0.609965,-1.09256 1.061384,-1.81786 c 0.583761,-0.99982 1.206233,-2.44891 1.383273,-3.2202 0.447789,-1.95084 0.981999,-2.25311 5.157529,-2.91819 2.382594,-0.3795 2.514137,-0.53838 2.509491,-3.03097 -0.0021,-1.19542 -0.09286,-2.31312 -0.201406,-2.48376 -0.25277,-0.39739 -2.363642,-1.13608 -3.260792,-1.1411 -0.378465,-0.002 -1.033309,-0.11307 -1.455208,-0.24656 -0.421897,-0.13349 -1.075269,-0.30952 -1.451941,-0.39118 -0.497758,-0.10792 -0.811088,-0.45724 -1.146916,-1.27865 -0.254132,-0.62159 -0.990616,-2.23885 -1.636627,-3.59391 l -1.174571,-2.46373 0.535549,-0.75211 c 0.29455,-0.41366 0.535546,-0.85873 0.535546,-0.98905 0,-0.13032 0.535781,-0.97327 1.190625,-1.87322 0.654843,-0.89994 1.190625,-1.86952 1.190625,-2.15462 0,-0.46243 -2.387733,-2.99887 -3.327795,-3.53505 -0.347974,-0.19848 -3.837958,1.60114 -5.372991,2.7706 -0.911408,0.69435 -1.456415,0.60696 -3.60234,-0.57762 -1.054475,-0.58208 -2.10689,-1.05833 -2.338699,-1.05833 -0.23181,0 -0.836502,-0.19791 -1.343761,-0.43981 -0.804672,-0.38372 -0.991992,-0.66929 -1.468869,-2.23931 -0.300619,-0.98972 -0.618514,-2.19079 -0.706427,-2.66904 -0.342902,-1.86536 -0.647774,-2.06062 -3.210322,-2.05612 -1.269952,0.002 -2.46571,0.10342 -2.657237,0.22487 -0.362685,0.22998 -1.37156,4.36775 -1.37156,5.62527 0,0.54524 -0.203954,0.82338 -0.834401,1.13789 -0.458919,0.22894 -0.996315,0.41625 -1.194215,0.41625 -0.197898,0 -0.566558,0.11448 -0.819245,0.2544 -0.887069,0.49119 -4.637601,2.12685 -4.876835,2.12685 -0.133011,0 -0.943149,-0.47625 -1.800304,-1.05833 -0.857155,-0.58209 -1.635514,-1.05834 -1.729687,-1.05834 -0.09417,0 -0.473951,-0.23812 -0.84395,-0.52916 -1.226928,-0.96511 -2.119533,-0.71534 -3.830825,1.07194 -0.843171,0.8806 -1.533038,1.69767 -1.533038,1.8157 0,0.11802 0.368783,0.67745 0.819518,1.24316 0.450735,0.56571 1.000443,1.38576 1.221574,1.82232 0.221131,0.43656 0.612569,1.03188 0.869864,1.32292 0.862049,0.97512 0.866464,1.5859 0.0211,2.9189 -0.435594,0.68686 -1.046899,2.09703 -1.358456,3.13372 -0.829803,2.7611 -1.008791,2.86976 -6.658319,4.04217 -0.395501,0.0821 -0.828078,0.2851 -0.961281,0.45118 -0.135105,0.16844 -0.168114,1.35481 -0.07466,2.68319 0.16136,2.29355 0.191893,2.38385 0.828989,2.4517 0.363802,0.0387 1.078177,0.1787 1.5875,0.311 0.509323,0.13229 1.640417,0.38847 2.513542,0.56927 0.873125,0.1808 1.732771,0.43943 1.910326,0.57474 0.177554,0.1353 0.638431,1.25866 1.024171,2.49635 0.438028,1.40546 1.001361,2.59204 1.500436,3.16046 0.68581,0.78109 0.756528,0.9929 0.498849,1.49413 -0.525215,1.02164 -1.243714,2.2178 -2.376819,3.95696 -0.605965,0.93007 -1.101755,1.81269 -1.101755,1.96138 0,0.42537 3.346836,3.52922 3.80551,3.52922 0.429099,0 1.241314,-0.42281 3.470532,-1.80663 2.853973,-1.77165 2.535542,-1.70896 4.407672,-0.8678 0.922759,0.4146 2.451651,1.02241 3.397536,1.35068 2.156955,0.74858 2.332273,0.89307 2.521257,2.07794 0.0847,0.53108 0.32598,1.3566 0.536168,1.83448 0.210187,0.47788 0.382159,1.25879 0.382159,1.73536 0,1.44394 0.418668,1.73395 2.645833,1.83278 1.091406,0.0484 2.185707,0.1117 2.43178,0.14062 0.246073,0.0289 0.540354,-0.0963 0.653952,-0.27816 z"
         id="path832"
         inkscape:connector-curvature="0"
         sodipodi:nodetypes="csscssccscccscscccccsccccscssscsscsssssscscsscscccscssccccscccccccccscscsccccccccscccccsscccccccccscscccscccccssscscsccssscsccccccscscccsscccccscccc" />
      <path
         style="fill:#000000;stroke-width:0.26458332"
         d="m -42.443514,166.28445 c -0.240837,-0.26612 -0.440785,-0.65308 -0.444336,-0.8599 -0.01738,-1.01313 -1.334979,-4.85956 -1.853832,-5.41185 -0.344596,-0.36681 -1.51139,-0.92103 -2.808685,-1.33412 -1.220562,-0.38865 -2.283735,-0.81105 -2.362607,-0.93867 -0.07887,-0.12761 -0.574704,-0.23203 -1.101852,-0.23203 -0.719376,0 -1.577324,0.39599 -3.439517,1.5875 -1.364589,0.87313 -2.60944,1.5875 -2.766337,1.5875 -0.363541,0 -4.112227,-3.34484 -4.444497,-3.96569 -0.280949,-0.52495 0.121973,-1.43652 1.857046,-4.20136 1.300126,-2.07176 1.512358,-2.81886 0.971285,-3.41913 -0.376542,-0.41774 -0.624206,-0.98888 -1.51556,-3.49507 -0.181147,-0.50932 -0.423031,-1.17999 -0.537521,-1.49039 -0.165788,-0.44947 -0.629607,-0.65327 -2.278463,-1.00114 -1.138664,-0.24024 -2.665611,-0.5911 -3.393216,-0.7797 l -1.322916,-0.3429 -0.029,-2.36012 -0.029,-2.36012 0.161292,1.90582 c 0.08871,1.04821 0.300545,2.04471 0.470741,2.21445 0.284588,0.28383 1.028835,0.49874 3.130135,0.90387 3.493812,0.6736 3.541923,0.6948 3.851899,1.69713 0.750056,2.42538 1.640387,4.50334 2.112632,4.93072 0.284769,0.25771 0.517761,0.62079 0.517761,0.80685 0,0.36718 -1.08756,2.2584 -2.694266,4.68522 -1.186248,1.79175 -1.176193,1.8329 0.935894,3.83043 1.05655,0.99924 1.66833,1.38148 2.205555,1.37802 0.628297,-0.004 2.33262,-0.89933 5.531287,-2.90564 0.576302,-0.36147 0.733195,-0.34647 1.758908,0.16816 0.619389,0.31077 1.542883,0.7168 2.052206,0.9023 0.509323,0.1855 1.039151,0.43725 1.177396,0.55945 0.138245,0.1222 0.447373,0.22218 0.686953,0.22218 0.77456,0 2.0715,0.80269 2.264498,1.40152 0.103314,0.32057 0.21563,0.9211 0.249587,1.3345 0.03396,0.41341 0.193796,0.88371 0.355195,1.04511 0.161401,0.1614 0.293454,0.68076 0.293454,1.15413 0,1.17205 0.506114,2.19265 1.16984,2.35904 0.302474,0.0758 1.55938,0.10274 2.793124,0.0598 l 2.243172,-0.0781 0.554043,-2.17986 c 0.304726,-1.19892 0.651319,-2.27048 0.77021,-2.38125 0.542679,-0.50559 -0.642565,4.39234 -1.247794,5.15642 -0.177384,0.22394 -1.092565,0.33073 -2.834402,0.33073 -2.156108,0 -2.643296,-0.0783 -3.01031,-0.48385 z m 7.256992,-5.99844 c -0.0076,-0.29104 0.07362,-0.66017 0.180531,-0.82029 0.267173,-0.40013 1.258318,-0.8995 1.785302,-0.8995 0.239295,0 1.501257,-0.49537 2.804364,-1.10082 l 2.36928,-1.10081 1.247929,0.62162 c 0.686361,0.34189 2.050264,1.13982 3.030897,1.77317 1.371396,0.88573 1.890998,1.09373 2.250969,0.90109 0.82645,-0.44231 3.506687,-3.42032 3.506687,-3.89629 0,-0.25303 -0.773906,-1.61149 -1.719791,-3.0188 -0.945886,-1.4073 -1.719792,-2.75054 -1.719792,-2.98498 0,-0.23444 0.431646,-1.16274 0.959218,-2.0629 0.527568,-0.90016 1.117385,-2.23625 1.310703,-2.96908 0.537372,-2.03709 0.626782,-2.08805 4.893845,-2.78975 0.66585,-0.10949 1.657093,-0.4625 2.202759,-0.78445 0.872895,-0.51502 0.981552,-0.53047 0.904156,-0.12859 -0.119592,0.62099 -1.018519,1.01446 -3.523806,1.5424 -3.331078,0.70196 -3.664839,0.90223 -4.057616,2.43476 -0.185692,0.72453 -0.747678,1.93997 -1.248857,2.70098 -0.501179,0.761 -0.911235,1.62666 -0.911235,1.92369 0,0.29703 0.366283,0.97124 0.813961,1.49826 0.886254,1.04331 3.155998,4.46232 3.152818,4.74922 -0.0038,0.34261 -4.478354,4.54336 -4.839489,4.54336 -0.200702,0 -1.544963,-0.71202 -2.987246,-1.58227 -1.442287,-0.87024 -2.88833,-1.58462 -3.213434,-1.5875 -0.325104,-0.003 -1.328468,0.35196 -2.229699,0.78852 -0.901232,0.43656 -1.848602,0.79375 -2.105269,0.79375 -0.256664,0 -0.530743,0.10369 -0.609063,0.23041 -0.07832,0.12673 -0.480631,0.29806 -0.894021,0.38073 -0.425136,0.085 -0.879465,0.41593 -1.045933,0.76178 -0.268978,0.55882 -0.295505,0.56591 -0.308168,0.0823 z m 23.842123,-21.16667 c 0.0054,-0.43656 0.06469,-0.58312 0.131773,-0.32569 0.06708,0.25743 0.06267,0.61462 -0.0098,0.79375 -0.07248,0.17913 -0.127362,-0.0315 -0.12197,-0.46806 z m -0.05158,-1.9255 c 0,-1.30656 -1.688224,-2.19337 -4.894792,-2.57119 -2.136693,-0.25176 -2.387489,-0.42739 -3.018462,-2.11382 -0.299061,-0.79931 -0.973103,-2.30588 -1.49787,-3.34793 l -0.954124,-1.89464 0.740132,-1.46284 c 0.407072,-0.80456 1.19144,-2.06348 1.743041,-2.79759 0.551598,-0.73411 1.002908,-1.53405 1.002908,-1.77764 0,-0.47001 -3.435824,-3.67239 -3.940101,-3.67239 -0.368276,0 -5.010349,2.62294 -5.207966,2.94269 -0.31229,0.50529 -1.730288,0.1818 -3.620818,-0.82602 -1.091903,-0.58208 -2.183849,-1.05833 -2.426544,-1.05833 -0.242697,0 -0.762775,-0.16818 -1.155731,-0.37374 -0.579462,-0.30311 -0.82435,-0.76556 -1.295996,-2.44739 -0.319839,-1.14052 -0.65029,-2.40412 -0.734332,-2.808 -0.284808,-1.3687 -0.99042,-1.77921 -3.058261,-1.77921 -1.023318,0 -2.260055,0.16691 -2.748299,0.37092 l -0.887719,0.37091 0.188915,-0.70164 0.188913,-0.70165 h 2.815214 c 3.295264,0 3.565866,0.15434 4.062968,2.31729 0.5441,2.36745 1.009822,4.01899 1.228519,4.35657 0.115393,0.17812 0.800327,0.49922 1.522082,0.71356 0.721751,0.21434 2.142297,0.82587 3.156767,1.35895 l 1.84449,0.96926 1.243349,-0.75677 c 3.987615,-2.42708 5.003218,-2.93999 5.384967,-2.71961 0.218281,0.12602 1.333441,1.11946 2.478135,2.20764 l 2.08126,1.97852 -0.581099,0.74042 c -0.869524,1.10793 -2.231245,3.34295 -2.785211,4.57142 l -0.490249,1.08719 0.870514,1.90653 c 0.478782,1.04859 1.094155,2.41492 1.367496,3.03629 0.543666,1.23586 0.901806,1.44434 3.276862,1.90746 1.364081,0.26598 2.747296,0.59317 4.034896,0.95443 0.312198,0.0876 0.503656,2.49065 0.198438,2.49065 -0.07276,0 -0.132292,-0.21164 -0.132292,-0.4703 z m -56.780978,-0.6975 c -0.224251,-0.58439 0.02396,-0.78278 1.48306,-1.18538 0.654844,-0.18068 1.556265,-0.43951 2.00316,-0.57517 0.446894,-0.13566 1.017184,-0.24665 1.267311,-0.24665 0.250127,0 0.919,-0.23683 1.486384,-0.52629 0.929401,-0.47415 1.091279,-0.71662 1.6339,-2.4474 0.331261,-1.05661 0.814794,-2.20505 1.074519,-2.5521 0.741468,-0.99076 0.577991,-1.97137 -0.632241,-3.79247 -2.101264,-3.16189 -2.335116,-3.54365 -2.335116,-3.81205 0,-0.14827 1.005407,-1.25093 2.234238,-2.45037 2.485607,-2.42614 2.17505,-2.36766 4.517002,-0.85048 1.646127,1.06641 2.038906,1.30459 3.094993,1.87683 l 0.982689,0.53247 2.166813,-1.05886 c 1.191744,-0.58238 2.374051,-1.05887 2.627347,-1.05887 0.945846,0 2.024412,-1.39402 2.362441,-3.05339 0.401442,-1.97068 0.882465,-3.12038 0.659723,-1.57682 -0.084,0.58209 -0.213273,1.53459 -0.287277,2.11667 -0.297979,2.34376 0.05688,2.01621 -3.938177,3.63511 -0.727605,0.29485 -1.831121,0.77827 -2.452257,1.07427 -0.621138,0.29601 -1.288298,0.53819 -1.482579,0.53819 -0.194284,0 -1.11483,-0.51531 -2.045661,-1.14514 -0.93083,-0.62983 -2.015021,-1.36404 -2.409311,-1.6316 -1.231532,-0.83567 -1.856525,-0.63388 -3.615071,1.16719 -1.738107,1.78014 -1.958492,2.45947 -1.059644,3.26629 0.308835,0.27721 0.91005,1.11942 1.336033,1.87158 0.425983,0.75215 0.947206,1.51087 1.158273,1.68604 0.439007,0.36434 0.517708,1.72718 0.114143,1.9766 -0.409665,0.25318 -1.436349,2.451 -1.976096,4.23022 -0.264874,0.87313 -0.612086,1.67637 -0.771584,1.78499 -0.377801,0.25728 -1.866996,0.72182 -3.200414,0.99834 -2.311852,0.47941 -3.175085,0.77895 -3.491363,1.21149 -0.311511,0.42602 -0.340588,0.42583 -0.505238,-0.003 z"
         id="path830"
         inkscape:connector-curvature="0"
         sodipodi:nodetypes="cccccscscccccccccccccccssccccssscccsccccccsccccscccccscscccscsscsccsccssccccccccccsscscscsscssccssccccssscccsccccccscccssccsscsccsccsccsccsccsscsccccsccscc" />
      <path
         style="fill:#000000;stroke-width:0.26458332"
         d="m -41.79533,166.49358 c -0.348549,-0.1462 -0.586674,-0.29433 -0.529166,-0.32919 0.05751,-0.0349 1.354714,0.006 2.882683,0.0901 1.527969,0.0844 2.182812,0.17635 1.455208,0.20426 -0.727604,0.0279 -1.739635,0.10696 -2.248958,0.17567 -0.509323,0.0687 -1.211218,0.005 -1.559767,-0.14089 z m -16.017288,-6.31116 c -0.08018,-0.12974 0.264151,-0.28374 0.765184,-0.34224 0.722214,-0.0843 0.852116,-0.0354 0.62694,0.23589 -0.325176,0.39181 -1.175549,0.45677 -1.392124,0.10635 z m 13.093986,-0.40977 -0.604599,-0.64357 0.581851,0.15216 c 0.320018,0.0837 0.646014,0.31936 0.724437,0.52373 0.248782,0.64831 -0.07634,0.63334 -0.701689,-0.0323 z m 11.048043,-0.85801 c 0.190995,-0.0764 0.419198,-0.067 0.507119,0.0209 0.08792,0.0879 -0.06835,0.15045 -0.347266,0.13896 -0.308226,-0.0127 -0.370919,-0.0754 -0.159853,-0.15985 z m -13.841016,-0.35643 c -2.085711,-0.93147 -2.7558,-1.17947 -3.571875,-1.32197 -0.754454,-0.13174 -0.836348,-0.20188 -0.441971,-0.37852 0.319024,-0.14289 0.860296,-0.034 1.5875,0.3195 0.606886,0.29497 1.548255,0.67721 2.091931,0.84944 0.543677,0.17222 1.05672,0.4235 1.140095,0.5584 0.184317,0.29823 -0.0989,0.28879 -0.80568,-0.0268 z m 18.917709,-1.68395 c 0,-0.25099 0.791998,-0.37748 0.933183,-0.14904 0.08601,0.13916 -0.08877,0.25303 -0.388401,0.25303 -0.29963,0 -0.544782,-0.0468 -0.544782,-0.10399 z m 10.552882,-0.22522 c 0.196517,-0.25383 0.300075,-0.76088 0.230127,-1.12679 -0.102955,-0.53857 -0.05849,-0.60829 0.233447,-0.366 0.516941,0.42902 0.446495,0.87297 -0.230126,1.45026 -0.47692,0.40691 -0.521902,0.4151 -0.233448,0.0425 z m -0.377303,-2.33376 c -0.09592,-0.1552 -0.117655,-0.33893 -0.0483,-0.40828 0.06935,-0.0694 0.196601,0.0576 0.282773,0.28218 0.178906,0.46623 0.02643,0.54823 -0.234473,0.1261 z m -1.215396,-1.76833 c -0.339397,-0.54571 -0.729429,-1.17078 -0.866735,-1.38907 -0.218668,-0.34762 -0.19218,-0.34981 0.213413,-0.0177 0.441632,0.36163 1.615255,2.39895 1.381943,2.39895 -0.06134,0 -0.389224,-0.44648 -0.728621,-0.99218 z m -38.678607,-2.74421 c -0.192839,-0.73741 -0.08675,-0.8905 0.296835,-0.42831 0.158291,0.19073 0.191683,0.50046 0.07441,0.69021 -0.154184,0.24948 -0.25637,0.17739 -0.371245,-0.2619 z m -3.222202,-6.58237 c -0.08994,-0.14552 -0.04446,-0.26458 0.101062,-0.26458 0.145521,0 0.338168,0.11906 0.428105,0.26458 0.08994,0.14553 0.04446,0.26459 -0.101062,0.26459 -0.145521,0 -0.338168,-0.11906 -0.428105,-0.26459 z m -1.785938,-0.43977 c 0.181901,-0.0734 0.479558,-0.0734 0.661459,0 0.181901,0.0734 0.03307,0.13346 -0.330729,0.13346 -0.363803,0 -0.512631,-0.0601 -0.33073,-0.13346 z m 48.170705,-0.5347 c 0.190994,-0.0764 0.4192,-0.067 0.507119,0.0209 0.08792,0.0879 -0.06835,0.15045 -0.347266,0.13897 -0.308226,-0.0127 -0.370919,-0.0754 -0.159853,-0.15986 z m 3.356901,-6.69798 c -0.08994,-0.14552 -0.03743,-0.26458 0.116676,-0.26458 0.154109,0 0.280199,0.11906 0.280199,0.26458 0,0.14552 -0.0525,0.26458 -0.116676,0.26458 -0.06417,0 -0.190262,-0.11906 -0.280199,-0.26458 z m -54.421486,-0.18078 c 0.190996,-0.0764 0.419199,-0.067 0.507118,0.0209 0.08792,0.0879 -0.06835,0.15046 -0.347265,0.13897 -0.308225,-0.0127 -0.37092,-0.0754 -0.159853,-0.15985 z m 2.166276,-0.61346 c 0.512963,-0.3315 0.79375,-0.3315 0.79375,0 0,0.14552 -0.26789,0.26276 -0.595312,0.26053 -0.481393,-0.003 -0.519367,-0.0531 -0.198438,-0.26053 z m 2.116667,-0.37818 c 0,-0.0728 0.238125,-0.25973 0.529167,-0.41549 0.291041,-0.15576 0.529166,-0.22367 0.529166,-0.15091 0,0.0728 -0.238125,0.25973 -0.529166,0.41549 -0.291042,0.15576 -0.529167,0.22367 -0.529167,0.15091 z m 43.38636,-0.55423 c -0.507764,-0.61182 -0.206766,-0.67419 0.497639,-0.10312 0.425508,0.34497 0.499094,0.50639 0.230836,0.50639 -0.216585,0 -0.544399,-0.18147 -0.728475,-0.40327 z m -1.432891,-3.48791 c -0.143584,-0.37708 -0.113194,-0.40747 0.148114,-0.14811 0.180822,0.17947 0.262115,0.39297 0.180652,0.47443 -0.08146,0.0815 -0.229407,-0.0654 -0.328766,-0.32632 z m -38.452502,-2.98797 c 0,-0.50933 0.05445,-0.71769 0.121,-0.46303 0.06655,0.25467 0.06655,0.67138 0,0.92605 -0.06655,0.25466 -0.121,0.0463 -0.121,-0.46302 z m 37.001173,-0.0152 c -0.01148,-0.22685 0.164272,-0.64356 0.390583,-0.92604 0.404887,-0.50537 0.407575,-0.50512 0.168042,0.0156 -0.133884,0.29104 -0.309647,0.70776 -0.390583,0.92604 -0.127116,0.34283 -0.15,0.34071 -0.168042,-0.0156 z m -38.582554,-2.69673 c -0.144031,-0.1819 -0.403302,-0.62839 -0.576159,-0.99219 -0.302806,-0.6373 -0.298548,-0.64213 0.116572,-0.13229 0.513115,0.63019 0.984053,1.45521 0.830665,1.45521 -0.06006,0 -0.227047,-0.14883 -0.371078,-0.33073 z m 41.920632,-3.65315 c -0.1163,-0.44472 -0.07408,-0.48764 0.23081,-0.2346 0.205232,0.17033 0.307901,0.41526 0.228153,0.54429 -0.215869,0.34928 -0.301803,0.2913 -0.458963,-0.30969 z m -34.306923,-0.49855 -0.653164,-0.50192 0.963451,0.30156 c 0.529897,0.16585 0.90609,0.39436 0.835986,0.50779 -0.190947,0.30897 -0.426252,0.24586 -1.146273,-0.30743 z m 21.555247,-0.93689 c -0.873125,-0.5031 -1.791819,-0.91833 -2.041543,-0.92273 -0.632079,-0.0112 -2.324082,-0.84675 -2.324082,-1.14775 0,-0.14251 0.140663,-0.13315 0.330729,0.022 0.181901,0.14849 0.937057,0.44874 1.678123,0.66722 1.432129,0.42222 3.073059,1.20293 3.944273,1.87659 0.936268,0.72396 0.04709,0.44651 -1.5875,-0.49534 z m 2.778125,0.81736 c 0,-0.0572 0.184777,-0.1749 0.410618,-0.26156 0.235458,-0.0904 0.341662,-0.046 0.248968,0.10399 -0.15538,0.2514 -0.659586,0.37185 -0.659586,0.15757 z m -25.781299,-0.83052 c -0.282475,-0.21365 -0.38635,-0.38846 -0.230833,-0.38846 0.155514,0 0.430974,0.1786 0.612132,0.39688 0.412009,0.49644 0.2824,0.49358 -0.381299,-0.008 z m 33.576562,-0.98377 -1.312971,-1.38906 1.389063,1.31297 c 1.290741,1.22003 1.5104,1.46515 1.312971,1.46515 -0.04185,0 -0.66693,-0.62508 -1.389063,-1.38906 z m -28.565055,0.85989 c 0.08994,-0.14552 0.364855,-0.26276 0.610928,-0.26054 0.38557,0.004 0.392555,0.0395 0.05053,0.26054 -0.518153,0.33485 -0.868411,0.33485 -0.661458,0 z m 1.322917,-0.52938 c 0.08994,-0.14552 0.282583,-0.26458 0.428104,-0.26458 0.145521,0 0.191,0.11906 0.101063,0.26458 -0.08994,0.14552 -0.282583,0.26458 -0.428104,0.26458 -0.145521,0 -0.191,-0.11906 -0.101063,-0.26458 z m 22.37934,-0.36076 c 0.06063,-0.053 0.4079,-0.25113 0.771702,-0.44019 0.605049,-0.31442 0.630492,-0.3062 0.298334,0.0965 -0.199721,0.24211 -0.546987,0.4402 -0.771703,0.4402 -0.224715,0 -0.358965,-0.0434 -0.298333,-0.0965 z m -19.85095,-0.84539 c 0.625353,-0.66566 0.950471,-0.68064 0.701688,-0.0323 -0.07842,0.20436 -0.404418,0.44004 -0.724437,0.52373 l -0.58185,0.15216 z m -13.244015,-0.22044 c 0,-0.25691 0.745424,-0.35345 1.082326,-0.14017 0.271375,0.17179 0.174811,0.23715 -0.354722,0.2401 -0.400182,0.002 -0.727604,-0.0427 -0.727604,-0.0999 z m 35.933725,-0.34131 c 0.190994,-0.0764 0.419197,-0.067 0.507118,0.0209 0.08792,0.0879 -0.06835,0.15045 -0.347265,0.13896 -0.308227,-0.0127 -0.37092,-0.0754 -0.159853,-0.15985 z m -13.814558,-2.35926 c -0.09416,-0.24539 -0.111675,-0.50569 -0.03891,-0.57845 0.07276,-0.0728 0.209336,0.0685 0.303498,0.31387 0.09416,0.24538 0.111676,0.50568 0.03892,0.57844 -0.07276,0.0728 -0.209336,-0.0685 -0.303498,-0.31386 z m -0.790467,-2.8757 c -0.423293,-0.64603 -0.536863,-0.66972 -3.21084,-0.66972 -2.548515,0 -3.403838,-0.2301 -2.353511,-0.63315 0.781857,-0.30002 3.827894,-0.16224 4.728062,0.21388 0.492934,0.20596 1.034539,0.63288 1.203563,0.9487 0.441529,0.825 0.153463,0.93504 -0.367274,0.14029 z"
         id="path828"
         inkscape:connector-curvature="0"
         sodipodi:nodetypes="cccccccccccccccccccccccsscccccscsscccccccccccccsccccccscsccsscccccccssscccccccsccscscsccscccccsccscccccsccsscscccccccccscccccsccscsccccccsccccccscsccccscccccccsccsscccccccccccsscccs" />
    </g>
  </g>
</svg>
